<?xml version="1.0" standalone="no"?>
<!DOCTYPE svg PUBLIC "-//W3C//DTD SVG 1.1//EN" "http://www.w3.org/Graphics/SVG/1.1/DTD/svg11.dtd" >
<svg xmlns="http://www.w3.org/2000/svg" xmlns:xlink="http://www.w3.org/1999/xlink" version="1.1">
<metadata>
Created by FontForge 20170731 at Tue Feb 21 01:21:03 2017
 By ,,,
</metadata>
<defs>
<font id="Vision-Thin" horiz-adv-x="517" >
  <font-face 
    font-family="Vision Thin"
    font-weight="250"
    font-stretch="normal"
    units-per-em="1000"
    panose-1="0 0 0 0 0 0 0 0 0 0"
    ascent="800"
    descent="-200"
    x-height="506"
    cap-height="612"
    bbox="-9400 -458 947 879"
    underline-thickness="50"
    underline-position="-225"
    unicode-range="U+0020-FB04"
  />
<missing-glyph horiz-adv-x="333" 
 />
    <glyph glyph-name="f_f" unicode="ff" horiz-adv-x="574" 
d="M223 703q41 0 72 -21l-13 -29q-17 17 -60 17q-31 0 -53 -15.5t-32.5 -42t-15 -52.5t-4.5 -54h157h1h66q0 32 6 63t20.5 63t44 51.5t70.5 19.5q40 0 72 -21l-13 -29q-17 17 -60 17q-31 0 -53 -15.5t-32.5 -42t-15 -52.5t-4.5 -54h158v-32h-160v-474h-33v474h-66h-1h-159
v-474h-33v474h-67v32h67q0 32 6 63t20.5 63t44 51.5t70.5 19.5z" />
    <glyph glyph-name="f_i" unicode="fi" horiz-adv-x="383" 
d="M307 506v-506h-33v474h-159v-474h-33v474h-67v32h67q0 32 6 62.5t20 63t43.5 52t70.5 19.5q40 0 72 -21l-13 -29q-34 17 -60 17q-31 0 -53 -15.5t-32.5 -42.5t-15 -52t-4.5 -54h191z" />
    <glyph glyph-name="f_l" unicode="fl" horiz-adv-x="510" 
d="M271 660q-21 10 -49 10q-31 0 -53 -15.5t-32.5 -42t-15 -52.5t-4.5 -54h154v154zM271 180v294h-156v-474h-33v474h-67v32h67q0 32 6 63t20.5 63t44 51.5t70.5 19.5q23 0 48 -9v6h33l1 -520q0 -28 4 -53t13 -50t28.5 -40t47.5 -15q36 0 62 17l13 -29q-31 -21 -74 -21
q-38 0 -64.5 18.5t-39.5 49.5t-18.5 61t-5.5 62z" />
    <glyph glyph-name="f_f_l" unicode="ffl" horiz-adv-x="772" 
d="M532 658q-22 12 -53 12t-53 -15.5t-32.5 -42.5t-15 -52t-4.5 -54h158v152zM735 10l-3 -1.5t-6 -3.5t-8 -4t-11 -4t-13 -4t-16 -3t-18 -1q-38 0 -64.5 18.5t-39.5 49.5t-18.5 61t-5.5 62v294h-159v-474h-33v474h-66h-1h-158v-474h-33v474h-67v32h67q0 25 3.5 49t13 52
t24 48.5t40.5 34t59 13.5q41 0 72 -21l-13 -29q-2 2 -7.5 5.5t-20.5 7.5t-32 4q-31 0 -53 -15.5t-32.5 -42.5t-15 -52t-4.5 -54h157h1h66q0 25 3.5 49t13 52t24 48.5t40.5 34t59 13.5q26 0 52 -11v8h33l2 -520q0 -28 4 -53t13 -50t28.5 -40t47.5 -15q37 0 62 17z" />
    <glyph glyph-name="f_f_t" unicode="fft" horiz-adv-x="830" 
d="M781 41l12 -30q-31 -21 -74 -21q-38 0 -64.5 19t-39.5 50t-18.5 61t-5.5 62v292h-65h-1h-158v-474h-33v474h-60h-7h-152v-474h-33v474h-67v32h67q0 32 6 63t20 63.5t43.5 52t70.5 19.5q40 0 72 -21l-13 -30q-18 18 -60 18q-41 0 -66 -29t-32 -62.5t-7 -73.5h151h7h60
q0 32 6 63t20 63.5t43.5 52t70.5 19.5q40 0 72 -21l-13 -30q-18 18 -60 18q-31 0 -53 -16t-32.5 -42.5t-15 -52t-4.5 -54.5h157h1h65v149h33v-149h154v-32h-153v-292q2 -159 93 -159q36 0 63 18z" />
    <glyph glyph-name="f_j" unicode="fj" horiz-adv-x="378" 
d="M223 703q41 0 72 -21l-13 -29q-17 17 -60 17q-31 0 -53 -15.5t-32.5 -42t-15 -52.5t-4.5 -54h148h10h23v-506q0 -32 -5.5 -62t-18.5 -61t-39.5 -49.5t-64.5 -18.5q-33 0 -75 21l13 30q27 -18 62 -18q28 0 47.5 15t28.5 40t13 50t4 53l2 474h-150v-474h-33v474h-67v32h67
q0 32 6 63t20.5 63t44 51.5t70.5 19.5z" />
    <glyph glyph-name="f_t" unicode="ft" horiz-adv-x="578" 
d="M528 41l13 -30q-42 -21 -75 -21q-38 0 -64.5 19t-39.5 50t-18.5 61t-5.5 62v292h-63h-3h-156l-1 -474h-33v474h-67v32h67q0 32 6 63t20.5 63t44 51.5t70.5 19.5t72 -21l-13 -29q-17 17 -60 17q-31 0 -53 -15.5t-32.5 -42t-15 -52.5t-4.5 -54h155h3h63v149h33l1 -149h153
v-32h-153l1 -292q0 -28 4 -53t13 -50.5t28.5 -40.5t47.5 -15q35 0 62 18z" />
    <glyph glyph-name="t_f" unicode="tf" horiz-adv-x="572" 
d="M475 703q41 0 72 -21l-13 -29q-17 17 -60 17q-31 0 -53 -15.5t-32.5 -42t-15 -52.5t-4.5 -54h158v-32h-160v-474h-33v474h-66h-1h-152l1 -293q0 -28 4 -53t13 -50t28.5 -40t47.5 -15q10 0 19.5 1.5t16.5 4t12.5 5t9.5 4.5l4 2l13 -29q-32 -21 -74 -21q-38 0 -64.5 19
t-40 49.5t-19 60.5t-5.5 62v293h-66v32h66v148h33l1 -148h152h1h66q0 32 6 63t20.5 63t44 51.5t70.5 19.5z" />
    <glyph glyph-name="f_f_j" unicode="ffj" horiz-adv-x="646" 
d="M438 -191q-33 0 -75 21l13 30q27 -18 62 -18q28 0 47.5 15t28.5 40t13 50t4 53l2 474h-159v-474h-33v474h-66h-1h-159v-474h-33v474h-67v32h67q0 32 6 63t20.5 63t44 51.5t70.5 19.5t72 -21l-13 -29q-17 17 -60 17q-31 0 -53 -15.5t-32.5 -42t-15 -52.5t-4.5 -54h157h1
h66q0 32 6 63t20.5 63t44 51.5t70.5 19.5q40 0 72 -21l-13 -29q-17 17 -60 17q-31 0 -53 -15.5t-32.5 -42t-15 -52.5t-4.5 -54h157h1h32v-506q0 -32 -5.5 -62t-18.5 -61t-39.5 -49.5t-64.5 -18.5z" />
    <glyph glyph-name=".notdef" horiz-adv-x="333" 
 />
    <glyph glyph-name=".null" horiz-adv-x="0" 
 />
    <glyph glyph-name="nonmarkingreturn" horiz-adv-x="333" 
 />
    <glyph glyph-name="space" unicode=" " horiz-adv-x="250" 
 />
    <glyph glyph-name="exclam" unicode="!" horiz-adv-x="177" 
d="M69 727h42l-7 -588h-32zM123 24q0 -14 -10.5 -24t-24.5 -10t-24 10t-10 24t10 24t24 10t24.5 -10t10.5 -24z" />
    <glyph glyph-name="quotedbl" unicode="&#x22;" horiz-adv-x="293" 
d="M54 622h46l-8 -211h-30zM193 622h46l-9 -211h-30z" />
    <glyph glyph-name="numbersign" unicode="#" horiz-adv-x="669" 
d="M446 178l-30 -178h-35l29 178h-202l-29 -178h-36l30 178h-119l8 31h116l32 192h-117l7 32h115l29 178h36l-30 -178h202l29 178h36l-29 -178h126l-7 -32h-125l-31 -192h125l-8 -31h-122zM415 209l32 192h-202l-31 -192h201z" />
    <glyph glyph-name="dollar" unicode="$" horiz-adv-x="499" 
d="M432 167q0 -77 -46 -122.5t-119 -51.5v-68h-35v68q-92 6 -165 61l21 31q30 -23 73 -40.5t83 -17.5q78 0 115.5 43t37.5 94q0 46 -32.5 78.5t-79 51.5t-93 38.5t-79 52.5t-32.5 80q0 57 38 101t113 55v82h35v-79h9q87 0 137 -46l-14 -31q-51 42 -121 42q-63 0 -112 -30.5
t-49 -92.5q0 -31 23.5 -55t58.5 -38t75.5 -32.5t75.5 -38t58.5 -54.5t23.5 -81z" />
    <glyph glyph-name="percent" unicode="%" horiz-adv-x="704" 
d="M180 622q56 0 91 -49t35 -114q0 -66 -34 -114.5t-92 -48.5t-92 48.5t-34 114.5q0 65 35 114t91 49zM180 332q41 0 66 39t25 88t-25 88t-66 39t-65.5 -39t-24.5 -88t24.5 -88t65.5 -39zM265 0h-39l211 612h39zM524 321q56 0 91 -49t35 -114q0 -66 -34 -114.5t-92 -48.5
t-92 48.5t-34 114.5q0 65 35 114t91 49zM524 31q41 0 66 39t25 88t-25 88t-66 39t-65.5 -39t-24.5 -88t24.5 -88t65.5 -39z" />
    <glyph glyph-name="ampersand" unicode="&#x26;" horiz-adv-x="614" 
d="M54 179q0 44 19.5 82.5t50 63.5t51.5 37.5t39 20.5q-41 72 -41 110q0 60 45.5 94.5t102.5 34.5q32 0 60.5 -9t41.5 -19l13 -9l-17 -26q-46 27 -98 27q-46 0 -78.5 -25.5t-32.5 -64.5q0 -85 223 -346q60 90 60 198h37q0 -126 -70 -229l107 -119h-48q-34 37 -82 90
q-78 -100 -189 -100q-90 0 -142 59t-52 130zM90 179q0 -65 46 -109t110 -44q94 0 165 94q-122 142 -180 234q-17 -7 -35.5 -18t-45 -32t-43.5 -54t-17 -71z" />
    <glyph glyph-name="quotesingle" unicode="'" horiz-adv-x="136" 
d="M45 622h46l-9 -211h-30z" />
    <glyph glyph-name="parenleft" unicode="(" horiz-adv-x="350" 
d="M305 -161q-14 -20 -21 -29q-117 84 -178.5 211t-61.5 257.5t61.5 257.5t178.5 211q4 -4 11 -13.5t10 -14.5q-109 -80 -167 -199t-58 -241.5t58 -241.5t167 -198z" />
    <glyph glyph-name="parenright" unicode=")" horiz-adv-x="350" 
d="M45 -152q109 79 167 198.5t58 241.5t-58 241.5t-167 198.5q7 9 21 29q117 -85 178.5 -212t61.5 -257.5t-61.5 -257t-178.5 -211.5q-3 5 -10 14.5t-11 14.5z" />
    <glyph glyph-name="asterisk" unicode="*" horiz-adv-x="423" 
d="M249 433l118 -78l-19 -30l-118 78v-150h-36v150l-118 -78l-20 30l119 78l-118 82l20 29l117 -81v149h36v-149l116 81l21 -29z" />
    <glyph glyph-name="plus" unicode="+" horiz-adv-x="449" 
d="M404 306v-32h-162v-163h-35v163h-162v32h162v164h35v-164h162z" />
    <glyph glyph-name="comma" unicode="," horiz-adv-x="182" 
d="M69 53q12 8 26.5 5t21.5 -15q11 -24 10 -53t-20 -55.5t-48 -31.5q0 4 -1.5 12.5t-2.5 12.5q45 8 47 65q-11 -5 -23.5 -1.5t-19.5 13.5q-8 12 -5 26.5t15 21.5z" />
    <glyph glyph-name="hyphen" unicode="-" horiz-adv-x="444" 
d="M401 316v-32h-359v32h359z" />
    <glyph glyph-name="period" unicode="." horiz-adv-x="158" 
d="M113 24q0 -14 -10 -24t-24 -10t-24 10t-10 24t10 24t24 10t24 -10t10 -24z" />
    <glyph glyph-name="slash" unicode="/" horiz-adv-x="260" 
d="M255 612l-211 -612h-39l211 612h39z" />
    <glyph glyph-name="zero" unicode="0" horiz-adv-x="551" 
d="M275 622q109 0 177 -94.5t68 -221.5q0 -83 -27.5 -153.5t-84.5 -116.5t-133 -46q-112 0 -178 93.5t-66 222.5q0 127 67.5 221.5t176.5 94.5zM275 589q-65 0 -113.5 -41.5t-71 -105t-22.5 -136.5t22.5 -136.5t71 -105t113.5 -41.5q97 0 152.5 84t55.5 199t-55.5 199
t-152.5 84z" />
    <glyph glyph-name="one" unicode="1" horiz-adv-x="270" 
d="M176 612h29v-612h-36v569l-112 -54l-12 33z" />
    <glyph glyph-name="two" unicode="2" horiz-adv-x="538" 
d="M438 471q0 -34 -17.5 -67.5t-45 -61t-61 -55.5t-67.5 -56.5t-61.5 -58t-45 -65.5t-17.5 -73h329v-34h-365v33q0 49 23.5 95.5t58.5 80.5t75.5 69t75.5 63.5t58.5 63t23.5 67.5q0 58 -44 86.5t-107 28.5q-77 0 -149 -57l-15 31q74 62 165 62q96 0 141 -43.5t45 -108.5z
" />
    <glyph glyph-name="three" unicode="3" horiz-adv-x="522" 
d="M418 182q0 74 -49.5 109t-151.5 35h-13v34l178 220h-278v32h323v-32l-175 -220q91 0 146.5 -46t55.5 -132q0 -85 -59.5 -138.5t-139.5 -53.5q-29 0 -57.5 7.5t-49.5 18t-38 21.5t-26 19l-8 7l23 28q8 -7 21.5 -18t55 -29t81.5 -18q70 0 115.5 42t45.5 114z" />
    <glyph glyph-name="four" unicode="4" horiz-adv-x="546" 
d="M410 612v-414h100v-32h-100v-166h-36v166h-301v32l301 414h36zM374 552l-257 -354h257v354z" />
    <glyph glyph-name="five" unicode="5" horiz-adv-x="546" 
d="M432 191q0 68 -45 113.5t-140 45.5h-113l7 262h281v-32h-247l-6 -194h78q111 0 166.5 -56t55.5 -139q0 -81 -54 -141t-146 -60q-40 0 -82 15.5t-63 30.5l-22 16l23 28q8 -6 21.5 -15t51.5 -24t71 -15q73 0 118 50t45 115z" />
    <glyph glyph-name="six" unicode="6" horiz-adv-x="546" 
d="M454 183q0 -78 -52.5 -135.5t-142.5 -57.5q-89 0 -142 57.5t-53 135.5q0 61 34 110l184 319h41l-149 -254q37 18 85 18q87 0 141 -58t54 -135zM418 183q0 62 -43.5 109.5t-115.5 47.5t-115.5 -47.5t-43.5 -109.5q0 -63 43.5 -110t115.5 -47t115.5 47t43.5 110z" />
    <glyph glyph-name="seven" unicode="7" horiz-adv-x="546" 
d="M453 612v-32l-249 -580h-40l249 580h-283v32h323z" />
    <glyph glyph-name="eight" unicode="8" horiz-adv-x="546" 
d="M274 624q67 0 109 -45t42 -105q0 -40 -19 -74.5t-53 -54.5q50 -23 79 -69.5t29 -100.5q0 -75 -50.5 -130t-136.5 -55t-136.5 55t-50.5 130q0 54 29 100.5t79 69.5q-34 20 -53 54.5t-19 74.5q0 60 42 105t109 45zM274 588q-52 0 -83 -34.5t-31 -79.5q0 -46 31.5 -80.5
t82.5 -34.5q52 0 83.5 35t31.5 80t-31.5 79.5t-83.5 34.5zM274 326q-59 0 -105 -47t-46 -103q0 -60 42 -105t109 -45t108.5 45t41.5 105q0 56 -46 103t-104 47z" />
    <glyph glyph-name="nine" unicode="9" horiz-adv-x="546" 
d="M77 429q0 78 53 135.5t142 57.5q90 0 142.5 -57.5t52.5 -135.5q0 -62 -33 -110l-184 -319h-42l149 254q-38 -19 -85 -19q-87 1 -141 58.5t-54 135.5zM113 429q0 -63 44 -110t115 -47q72 0 115.5 47t43.5 110t-43.5 110t-115.5 47q-71 0 -115 -47t-44 -110z" />
    <glyph glyph-name="colon" unicode=":" horiz-adv-x="198" 
d="M133 24q0 -14 -10 -24t-24 -10t-24 10t-10 24t10 24t24 10t24 -10t10 -24zM133 382q0 -14 -10 -24.5t-24 -10.5t-24 10.5t-10 24.5t10 24t24 10t24 -10t10 -24z" />
    <glyph glyph-name="semicolon" unicode=";" horiz-adv-x="204" 
d="M128 43q22 -33 4.5 -82.5t-61.5 -57.5q-1 4 -2.5 12.5t-2.5 12.5q44 8 48 65q-28 -12 -43 12q-8 12 -5 26t15 22t26 5t21 -15zM133 382q0 -14 -10 -24.5t-24 -10.5t-24 10.5t-10 24.5t10 24t24 10t24 -10t10 -24z" />
    <glyph glyph-name="less" unicode="&#x3c;" horiz-adv-x="421" 
d="M376 506v-36l-271 -110l271 -111v-36l-331 137v20z" />
    <glyph glyph-name="equal" unicode="=" horiz-adv-x="451" 
d="M404 439v-32h-359v32h359zM406 239v-32h-359v32h359z" />
    <glyph glyph-name="greater" unicode="&#x3e;" horiz-adv-x="421" 
d="M45 506l331 -136v-20l-331 -137v36l271 111l-271 110v36z" />
    <glyph glyph-name="question" unicode="?" horiz-adv-x="422" 
d="M170 24q0 -14 -10.5 -24t-24.5 -10t-24 10t-10 24t10 24t24 10t24.5 -10t10.5 -24zM188 701q80 0 128.5 -48t48.5 -119q0 -54 -19 -94t-51 -61t-67.5 -30.5t-74.5 -9.5v-188h-35v90v136h35q89 0 132.5 41.5t43.5 115.5q0 68 -43 100t-99 32q-59 0 -119 -43l-13 32
q22 19 60.5 32.5t72.5 13.5z" />
    <glyph glyph-name="at" unicode="@" horiz-adv-x="828" 
d="M406 448q36 0 69.5 -12t48.5 -24l16 -11v37h33v-155q0 -58 1 -84.5t6 -57.5t17.5 -42.5t33.5 -11.5q49 0 79 62t30 150q0 124 -96 206.5t-230 82.5q-139 0 -232.5 -95t-93.5 -230q0 -138 95 -232t230 -94q30 0 68 10t61 20l23 10l15 -34q-74 -40 -166 -40
q-152 0 -256 104.5t-104 255.5q0 156 106 257.5t254 101.5q159 0 259.5 -93.5t100.5 -229.5q0 -59 -14.5 -113t-49 -93.5t-82.5 -39.5q-59 0 -81 57q-17 -24 -53.5 -40.5t-87.5 -16.5q-73 0 -132 55.5t-59 149.5q0 93 57 141.5t134 48.5zM405 414q-60 0 -108 -39.5
t-48 -116.5q0 -79 50 -125t108 -46q55 0 94 29t39 57v162q0 28 -42.5 53.5t-92.5 25.5z" />
    <glyph glyph-name="A" unicode="A" horiz-adv-x="568" 
d="M266 612h37l215 -612h-39l-65 186h-259l-65 -186h-40zM284 556l-118 -338h237z" />
    <glyph glyph-name="B" unicode="B" horiz-adv-x="534" 
d="M415 471q0 -76 -62 -125q48 -17 81 -65t33 -104q0 -69 -47 -123t-109 -54h-235v612h197q59 0 100.5 -40.5t41.5 -100.5zM380 471q0 46 -31 77.5t-76 31.5h-161v-230h161q43 0 75 37t32 84zM432 175q0 56 -38 99.5t-83 43.5h-199v-286h199q45 0 83 43.5t38 99.5z" />
    <glyph glyph-name="C" unicode="C" horiz-adv-x="604" 
d="M369 620q103 0 168 -61l-18 -31q-63 59 -150 59q-117 0 -191 -86.5t-74 -195.5t74 -195.5t191 -86.5q88 0 150 59l18 -32q-65 -60 -168 -60q-133 0 -217.5 96t-84.5 219q0 122 84.5 218.5t217.5 96.5z" />
    <glyph glyph-name="D" unicode="D" horiz-adv-x="559" 
d="M492 306q0 -127 -72.5 -216.5t-171.5 -89.5h-138h-33h-1v612h1h171q98 0 171 -90t73 -216zM455 306q0 114 -60 194t-147 80h-136v-548h136q83 0 145 80.5t62 193.5z" />
    <glyph glyph-name="E" unicode="E" horiz-adv-x="502" 
d="M112 342h256v-33h-256v-277h314v-32h-350v612h350v-32h-314v-238z" />
    <glyph glyph-name="F" unicode="F" horiz-adv-x="502" 
d="M111 342h257v-33h-257v-309h-35v612h350v-32h-315v-238z" />
    <glyph glyph-name="G" unicode="G" horiz-adv-x="626" 
d="M370 23q40 0 80 16.5t64 47.5v200h35v-211q-20 -37 -72.5 -61.5t-107.5 -24.5q-88 0 -158.5 47t-107 119t-36.5 151q0 122 85 218.5t218 96.5q42 0 92.5 -16t87.5 -51l-19 -31q-37 35 -84 50t-77 15q-118 0 -192 -86.5t-74 -195.5q0 -108 75.5 -196t190.5 -88z" />
    <glyph glyph-name="H" unicode="H" horiz-adv-x="548" 
d="M111 342h326v270h35v-612h-35v309h-326v-309h-35v612h35v-270z" />
    <glyph glyph-name="I" unicode="I" horiz-adv-x="188" 
d="M112 612v-612h-36v612h36z" />
    <glyph glyph-name="J" unicode="J" horiz-adv-x="411" 
d="M176 24q64 0 97 47.5t33 119.5v419h35v-419q0 -87 -43.5 -145t-121.5 -58q-72 0 -126 46l17 34q46 -44 109 -44z" />
    <glyph glyph-name="K" unicode="K" horiz-adv-x="494" 
d="M403 612l-268 -278l304 -334h-45l-293 314v-314h-36v612h36v-261l257 261h45z" />
    <glyph glyph-name="L" unicode="L" horiz-adv-x="380" 
d="M111 32h213v-32h-248v612h35v-580z" />
    <glyph glyph-name="M" unicode="M" horiz-adv-x="677" 
d="M339 329l220 283h42v-612h-36v558l-226 -287l-227 287v-558h-36v612h42z" />
    <glyph glyph-name="N" unicode="N" horiz-adv-x="548" 
d="M115 612l321 -545v545h36v-612h-40l-321 542v-542h-35v612h39z" />
    <glyph glyph-name="O" unicode="O" horiz-adv-x="643" 
d="M321 622q115 0 185 -92t70 -224q0 -134 -68.5 -225t-186.5 -91t-186 91t-68 225q0 132 70 224t184 92zM321 589q-103 0 -160 -81.5t-57 -201.5t57 -201.5t160 -81.5t160.5 81.5t57.5 201.5t-57.5 201.5t-160.5 81.5z" />
    <glyph glyph-name="P" unicode="P" horiz-adv-x="535" 
d="M468 435q0 -68 -47.5 -122.5t-109.5 -54.5h-199v-258h-36v612h235q62 0 109.5 -54t47.5 -123zM433 435q0 57 -38.5 101t-83.5 44h-199v-290h199q45 0 83.5 44t38.5 101z" />
    <glyph glyph-name="Q" unicode="Q" horiz-adv-x="642" 
d="M321 622q115 0 184.5 -92t69.5 -224q0 -102 -41 -182.5t-116 -113.5l105 -128h-41l-96 116q-32 -8 -65 -8q-118 0 -186 91t-68 225q0 132 69.5 224t184.5 92zM321 589q-103 0 -160.5 -81.5t-57.5 -201.5t57.5 -201.5t160.5 -81.5t160.5 81.5t57.5 201.5t-57.5 201.5
t-160.5 81.5z" />
    <glyph glyph-name="R" unicode="R" horiz-adv-x="567" 
d="M467 451q0 -63 -42.5 -113.5t-102.5 -50.5l178 -287h-43l-178 287h-168v-287h-35v612h241q63 0 106.5 -48.5t43.5 -112.5zM431 450q0 53 -34.5 91.5t-80.5 38.5h-205v-261h206q44 0 79 40t35 91z" />
    <glyph glyph-name="S" unicode="S" horiz-adv-x="499" 
d="M432 165q0 -83 -53 -129t-133 -46q-47 0 -96.5 18.5t-82.5 43.5l21 31q30 -23 73 -40.5t83 -17.5q78 0 115.5 43t37.5 94q0 46 -32.5 78.5t-79 51.5t-93 38.5t-79 52.5t-32.5 80q0 66 49 112.5t146 46.5q87 0 137 -46l-14 -31q-51 42 -121 42q-63 0 -112 -30.5t-49 -92.5
q0 -31 23.5 -55t58.5 -38t75.5 -32.5t75.5 -38t58.5 -54.5t23.5 -81z" />
    <glyph glyph-name="T" unicode="T" horiz-adv-x="594" 
d="M279 580h-212v32h460v-32h-212v-580h-36v580z" />
    <glyph glyph-name="U" unicode="U" 
d="M258 -10q-81 0 -139.5 60.5t-58.5 142.5v419h36v-419q0 -67 48 -117t114 -50q67 0 115 50t48 117v419h36v-419q0 -82 -58.5 -142.5t-140.5 -60.5z" />
    <glyph glyph-name="V" unicode="V" horiz-adv-x="568" 
d="M478 612h40l-215 -612h-37l-216 612h39l195 -550z" />
    <glyph glyph-name="W" unicode="W" horiz-adv-x="997" 
d="M907 612h40l-216 -612h-37l-196 553l-195 -553h-37l-216 612h39l195 -550l194 546h40l195 -546z" />
    <glyph glyph-name="X" unicode="X" horiz-adv-x="597" 
d="M472 612h43l-195 -277l221 -335h-42l-200 305l-200 -305h-43l221 335l-190 277h44l168 -249z" />
    <glyph glyph-name="Y" unicode="Y" horiz-adv-x="546" 
d="M455 612h41l-205 -308v-304h-36v304l-205 308h41l182 -270z" />
    <glyph glyph-name="Z" unicode="Z" horiz-adv-x="548" 
d="M472 612v-32l-356 -548h356v-32h-397v32l355 548h-339v32h381z" />
    <glyph glyph-name="bracketleft" unicode="[" horiz-adv-x="228" 
d="M45 816h138v-34h-102v-929h102v-34h-138v997z" />
    <glyph glyph-name="backslash" unicode="\" horiz-adv-x="380" 
d="M12 746h38l318 -927h-38z" />
    <glyph glyph-name="bracketright" unicode="]" horiz-adv-x="228" 
d="M45 816h138v-997h-138v34h102v929h-102v34z" />
    <glyph glyph-name="asciicircum" unicode="^" horiz-adv-x="379" 
d="M43 369l136 331h20l137 -331h-36l-111 271l-110 -271h-36z" />
    <glyph glyph-name="underscore" unicode="_" horiz-adv-x="569" 
d="M534 -98v-31h-499v31h499z" />
    <glyph glyph-name="grave" unicode="`" horiz-adv-x="546" 
d="M246 738l51 -126h-36l-65 126h50z" />
    <glyph glyph-name="a" unicode="a" 
d="M210 328q46 0 92 -17t60 -34q0 102 -33 154.5t-108 52.5q-34 0 -67 -13.5t-48 -25t-22 -19.5l-14 30q21 21 61.5 41t89.5 20q43 0 74.5 -14t50.5 -37.5t30 -60.5t15 -76.5t4 -92.5q0 -109 14.5 -161t51.5 -52l-15 -33q-47 3 -70 67q-72 -67 -164 -67q-75 0 -123.5 46.5
t-48.5 126.5q0 71 51.5 118t118.5 47zM212 297q-50 0 -93 -38.5t-43 -94.5q0 -65 39.5 -104.5t96.5 -39.5q90 0 154 76l-4 139q-11 11 -27.5 23t-51.5 25.5t-71 13.5z" />
    <glyph glyph-name="b" unicode="b" horiz-adv-x="526" 
d="M472 266q0 -123 -64.5 -199.5t-156.5 -76.5q-86 0 -151 52v-42h-33v700h33v-238q70 55 151 55q95 0 158 -66t63 -185zM438 266q0 93 -52 156t-135 63q-39 0 -76.5 -15.5t-56.5 -31.5l-18 -16v-334q6 -7 18 -18t51.5 -29.5t81.5 -18.5q81 0 134 71.5t53 172.5z" />
    <glyph glyph-name="c" unicode="c" horiz-adv-x="481" 
d="M54 253q0 108 61 185.5t166 77.5q44 0 84 -15t58 -29l18 -15l-20 -27q-6 6 -17.5 15t-48.5 24t-75 15q-59 0 -104.5 -38t-66.5 -90t-21 -103t21 -103t66.5 -90t104.5 -38q38 0 73.5 13.5t51.5 26.5l16 14l20 -27q-7 -7 -20 -16.5t-54.5 -26t-85.5 -16.5q-105 0 -166 77.5
t-61 185.5z" />
    <glyph glyph-name="d" unicode="d" horiz-adv-x="527" 
d="M55 266q0 119 63 185t158 66q82 0 151 -56v239h33v-700h-33v42q-61 -53 -150 -53q-93 0 -157.5 77t-64.5 200zM89 266q0 -103 50.5 -173.5t137.5 -70.5q42 0 79.5 17.5t53.5 34.5l17 18v330q-7 7 -20 17.5t-52.5 28t-78.5 17.5q-83 0 -135 -63t-52 -156z" />
    <glyph glyph-name="e" unicode="e" horiz-adv-x="498" 
d="M259 485q-46 0 -80.5 -18t-53.5 -48t-28 -62t-9 -66h323q0 85 -36 139.5t-116 54.5zM259 517q85 0 135 -58t50 -168v-32h-357q0 -93 51.5 -165t135.5 -72q40 0 74 13.5t48 26.5l15 14l20 -27q-6 -7 -18 -16.5t-52.5 -26t-85.5 -16.5q-101 0 -161 78t-60 197q0 110 52 181
t153 71z" />
    <glyph glyph-name="f" unicode="f" horiz-adv-x="315" 
d="M223 703q41 0 72 -21l-13 -29q-17 17 -60 17q-31 0 -53 -15.5t-32.5 -42t-15 -52.5t-4.5 -54h158v-32h-160v-474h-33v474h-67v32h67q0 32 6 63t20.5 63t44 51.5t70.5 19.5z" />
    <glyph glyph-name="g" unicode="g" horiz-adv-x="529" 
d="M54 269q0 113 66 180.5t163 67.5q86 0 146 -50v39h33v-445q0 -104 -55 -177.5t-151 -73.5q-50 0 -97.5 21.5t-67.5 41.5l19 25q12 -13 56.5 -34.5t90.5 -21.5q73 0 122.5 63.5t49.5 152.5q-56 -46 -146 -46q-96 0 -162.5 71.5t-66.5 185.5zM86 270q0 -95 53 -160.5
t144 -65.5q32 0 58.5 7.5t42 18t26.5 20.5t15 18l4 7v307q-6 7 -17 17.5t-49 28t-80 17.5q-91 0 -144 -60.5t-53 -154.5z" />
    <glyph glyph-name="h" unicode="h" 
d="M258 517q90 0 134.5 -55.5t44.5 -157.5v-304h-31v261q0 49 -6 85.5t-21 69t-46 50t-76 17.5q-76 0 -112 -64.5t-36 -157.5v-261h-33v700h33v-291q12 38 50.5 73t98.5 35z" />
    <glyph glyph-name="i" unicode="i" horiz-adv-x="208" 
d="M120 506v-506h-33v506h33zM132 588q0 -11 -8.5 -19.5t-19.5 -8.5q-12 0 -20 8.5t-8 19.5t8 19.5t20 8.5q11 0 19.5 -8.5t8.5 -19.5z" />
    <glyph glyph-name="j" unicode="j" horiz-adv-x="256" 
d="M165 0q0 -32 -5.5 -61.5t-18.5 -60.5t-39.5 -49.5t-64.5 -18.5q-42 0 -74 21l13 29q26 -17 62 -17q28 0 47.5 14.5t28.5 39.5t13 50t4 53l1 506h33v-506zM176 588q0 -11 -8.5 -19.5t-19.5 -8.5q-12 0 -20 8.5t-8 19.5t8 19.5t20 8.5q11 0 19.5 -8.5t8.5 -19.5z" />
    <glyph glyph-name="k" unicode="k" horiz-adv-x="481" 
d="M324 506h52l-241 -204l299 -302h-51l-283 286v-194v-92h-33v700h33v-381z" />
    <glyph glyph-name="l" unicode="l" horiz-adv-x="276" 
d="M37 180v520h33l1 -520q0 -28 4 -53t13 -50t28.5 -40t47.5 -15q36 0 62 17l13 -29q-32 -21 -74 -21q-38 0 -64.5 18.5t-39.5 49.5t-18.5 61t-5.5 62z" />
    <glyph glyph-name="m" unicode="m" horiz-adv-x="846" 
d="M258 517q131 0 167 -117q6 16 16.5 32.5t29.5 37.5t49 34t67 13q89 0 134 -55.5t45 -157.5v-304h-32v261q0 49 -6 85.5t-21 69t-45.5 50t-75.5 17.5q-75 0 -110.5 -61t-37.5 -152v-270h-32v261q0 49 -6 85.5t-21 69t-46 50t-76 17.5q-76 0 -112 -64.5t-36 -157.5v-261
h-33v506h33v-88q10 22 25 41t48.5 38.5t75.5 19.5z" />
    <glyph glyph-name="n" unicode="n" 
d="M258 517q90 0 134.5 -55.5t44.5 -157.5v-304h-31v261q0 49 -6 85.5t-21 69t-46 50t-76 17.5q-76 0 -112 -64.5t-36 -157.5v-261h-33v506h33v-97q12 38 50.5 73t98.5 35z" />
    <glyph glyph-name="o" unicode="o" horiz-adv-x="550" 
d="M275 516q96 0 158.5 -74t62.5 -189t-63 -189t-158 -74t-158 74t-63 189t62.5 189t158.5 74zM275 484q-79 0 -133.5 -70.5t-54.5 -160.5q0 -89 55 -160t133 -71q47 0 84.5 23.5t59 59.5t33 74.5t11.5 73.5q0 92 -52 161.5t-136 69.5z" />
    <glyph glyph-name="p" unicode="p" horiz-adv-x="526" 
d="M250 517q93 0 157.5 -77t64.5 -200q0 -118 -63.5 -184.5t-157.5 -66.5q-82 0 -151 56v-226h-33v687h33v-49q70 60 150 60zM250 484q-42 0 -79.5 -17.5t-54.5 -34.5l-16 -18v-329q7 -7 20 -17.5t52 -28.5t78 -18q83 0 135.5 63t52.5 156q0 103 -50.5 173.5t-137.5 70.5z
" />
    <glyph glyph-name="q" unicode="q" horiz-adv-x="526" 
d="M275 517q81 0 151 -58v47h33v-687h-33v226q-72 -56 -151 -56q-95 0 -158 66t-63 185q0 123 64.5 200t156.5 77zM275 484q-86 0 -136.5 -70.5t-50.5 -173.5q0 -93 52 -156t135 -63q39 0 76.5 15.5t56.5 31.5l18 16v330q-6 8 -18 19.5t-51.5 31t-81.5 19.5z" />
    <glyph glyph-name="r" unicode="r" horiz-adv-x="326" 
d="M258 484q-53 0 -87.5 -34t-48 -82t-13.5 -107v-261h-33v506h33v-97q12 38 50.5 73t98.5 35q24 0 47 -5l-15 -32q-13 4 -32 4z" />
    <glyph glyph-name="s" unicode="s" horiz-adv-x="426" 
d="M370 135q0 -72 -47.5 -108.5t-112.5 -36.5q-37 0 -75.5 13.5t-58.5 26.5l-20 14l20 29q7 -6 19.5 -14.5t47.5 -22.5t66 -14q57 0 92 31t35 79q0 37 -27.5 63t-67 42l-79 32t-67 44t-27.5 68q0 56 45 96.5t114 39.5q40 0 72.5 -11t44.5 -22l13 -11l-17 -28q-46 39 -114 40
q-48 1 -85.5 -29.5t-37.5 -72.5q0 -31 27.5 -53t66.5 -37t78.5 -32.5t67 -49t27.5 -76.5z" />
    <glyph glyph-name="t" unicode="t" horiz-adv-x="321" 
d="M81 181v293h-66v32h66v148h33l1 -148h153v-32h-153l1 -293q0 -28 4 -53t13 -50t28.5 -40t47.5 -15q10 0 19.5 1.5t16.5 4t12.5 5t9.5 4.5l4 2l13 -29q-32 -21 -74 -21q-38 0 -64.5 19t-40 49.5t-19 60.5t-5.5 62z" />
    <glyph glyph-name="u" unicode="u" horiz-adv-x="519" 
d="M261 -11q-90 0 -134.5 55.5t-45.5 157.5l-1 304h33v-261q0 -49 6 -85.5t21 -69t45.5 -50t75.5 -17.5q53 0 87.5 33.5t48 81.5t13.5 107l1 261h32v-506h-32v97q-12 -38 -51 -73t-99 -35z" />
    <glyph glyph-name="v" unicode="v" horiz-adv-x="468" 
d="M390 506h35l-175 -506h-33l-174 506h35l155 -440z" />
    <glyph glyph-name="w" unicode="w" horiz-adv-x="815" 
d="M737 506h35l-174 -506h-34l-156 452l-157 -452h-34l-174 506h35l156 -440l156 436h35l156 -436z" />
    <glyph glyph-name="x" unicode="x" horiz-adv-x="511" 
d="M403 506h39l-164 -239l186 -267h-39l-169 236l-170 -236h-39l187 267l-164 239h39l147 -207z" />
    <glyph glyph-name="y" unicode="y" horiz-adv-x="457" 
d="M116 -181q-21 0 -44.5 9.5t-28.5 15.5l18 26l5 -2q4 -3 9 -6t11.5 -5.5t14 -4.5t14.5 -2q31 0 56 39t35 77l10 39l-173 501h35l156 -440l156 440h35l-173 -499q-3 -10 -11.5 -37.5t-13.5 -43t-16 -39t-23 -36t-30.5 -22.5t-41.5 -10z" />
    <glyph glyph-name="z" unicode="z" horiz-adv-x="444" 
d="M396 506v-33l-313 -440h320v-33h-362v33l313 440h-293v33h335z" />
    <glyph glyph-name="braceleft" unicode="{" horiz-adv-x="271" 
d="M212 816h14v-34h-20q-37 0 -59.5 -22.5t-22.5 -59.5v-336l-38 -47l38 -43v-339q0 -37 22.5 -59.5t59.5 -22.5h20v-34h-14q-56 0 -90 34.5t-34 89.5v320l-43 54l43 57v318q0 56 34 90t90 34z" />
    <glyph glyph-name="bar" unicode="|" horiz-adv-x="81" 
d="M58 815v-996h-35v996h35z" />
    <glyph glyph-name="braceright" unicode="}" horiz-adv-x="271" 
d="M59 816q55 0 89.5 -34t34.5 -90v-318l43 -57l-43 -54v-320q0 -55 -34.5 -89.5t-89.5 -34.5h-14v34h20q37 0 59.5 22.5t22.5 59.5v339l37 43l-37 47v336q0 37 -22.5 59.5t-59.5 22.5h-20v34h14z" />
    <glyph glyph-name="asciitilde" unicode="~" horiz-adv-x="487" 
d="M183 677q37 0 71 -16t64 -16q41 0 62 36l31 -15q-32 -54 -93 -54q-38 0 -72 16t-64 16q-51 0 -76 -45l-30 16q40 62 107 62z" />
    <glyph glyph-name="exclamdown" unicode="&#xa1;" horiz-adv-x="176" 
d="M108 0h-42l7 588h31zM54 703q0 14 10 24t24 10t24 -10t10 -24t-10 -24t-24 -10t-24 10t-10 24z" />
    <glyph glyph-name="cent" unicode="&#xa2;" horiz-adv-x="564" 
d="M54 304q0 113 74 206.5t193 106.5v84h36v-82q102 0 167 -61l-18 -31q-65 59 -149 59h-1q-13 0 -35 -2q-103 -14 -166.5 -97t-63.5 -183t63.5 -183t166.5 -97q22 -2 35 -2h1q86 0 149 59l18 -32q-65 -60 -167 -60v-76h-36v78q-119 13 -193 106t-74 207z" />
    <glyph glyph-name="sterling" unicode="&#xa3;" horiz-adv-x="534" 
d="M320 586q-44 0 -76 -29t-46.5 -74t-21 -83t-6.5 -73h155v-32h-156q0 -67 -23 -159t-45 -104h287v-32h-365v32h12q40 0 69 91.5t29 171.5h-112v32h112q0 28 3.5 60t15.5 75.5t31.5 77.5t55 58t81.5 24q32 0 60 -10.5t40 -21.5l11 -10l-19 -30q-36 36 -92 36z" />
    <glyph glyph-name="currency" unicode="&#xa4;" horiz-adv-x="527" 
d="M464 269q0 -77 -45 -133l71 -71l-25 -26l-70 71q-54 -48 -134 -48q-75 0 -131 46l-68 -69l-25 26l68 68q-46 57 -46 136q0 77 43 133l-65 66l25 25l65 -65q55 49 134 49q81 0 137 -51l67 67l25 -25l-68 -68q42 -54 42 -131zM261 93q77 0 123.5 53t46.5 123t-46.5 122.5
t-123.5 52.5q-71 0 -120.5 -53.5t-49.5 -121.5t49.5 -122t120.5 -54z" />
    <glyph glyph-name="yen" unicode="&#xa5;" horiz-adv-x="546" 
d="M496 612l-204 -306h121v-32h-122v-46h122v-32h-122v-196h-36v196h-122v32h122v46h-122v32h121l-204 306h41l182 -270l182 270h41z" />
    <glyph glyph-name="brokenbar" unicode="&#xa6;" horiz-adv-x="382" 
d="M145 207v-386h-35v386h35zM145 662v-386h-35v386h35z" />
    <glyph glyph-name="section" unicode="&#xa7;" horiz-adv-x="491" 
d="M401 218q0 30 -12.5 53t-38 40.5t-48 29t-60 27t-56.5 24.5q-79 -32 -79 -108q0 -41 38.5 -68t106 -53.5t99.5 -49.5q50 40 50 105zM435 221q0 -85 -55 -132q41 -43 41 -104q0 -83 -53 -129t-133 -46q-47 0 -97 18.5t-82 43.5l21 31q30 -23 73 -40.5t83 -17.5
q77 0 115 42.5t38 93.5q0 55 -51 94q-25 18 -83 44.5t-70 32.5q-58 30 -85 59t-27 75q0 86 75 128q-61 41 -61 104q0 66 49 113t146 47q85 0 137 -46l-14 -32q-51 42 -121 42q-63 0 -112 -30.5t-49 -92.5q0 -30 38.5 -61t89.5 -52q94 -40 126 -64q61 -48 61 -121z" />
    <glyph glyph-name="dieresis" unicode="&#xa8;" horiz-adv-x="546" 
d="M166 764q14 0 24 -10.5t10 -24.5t-10 -24t-24 -10t-24 10t-10 24t10 24.5t24 10.5zM379 764q14 0 24 -10.5t10 -24.5t-10 -24t-24 -10t-24.5 10t-10.5 24t10.5 24.5t24.5 10.5z" />
    <glyph glyph-name="copyright" unicode="&#xa9;" horiz-adv-x="768" 
d="M384 -27q-67 0 -128 26q-92 39 -147 122t-55 182q0 136 96.5 233t233.5 97q136 0 233 -96.5t97 -233.5t-97 -233.5t-233 -96.5zM384 603q-124 0 -212.5 -88.5t-88.5 -212.5t88.5 -212t212.5 -88t212.5 88t88.5 212t-88.5 212.5t-212.5 88.5zM381 132q14 0 27.5 2.5t24 6
t20.5 7.5t17.5 8.5t12.5 8t8 5.5l3 3l17 -22q-6 -5 -16.5 -12.5t-44 -20t-68.5 -12.5q-82 0 -132 57t-50 140t50 140t132 57q35 0 67.5 -11t46.5 -23l15 -11l-17 -23q-4 4 -14.5 11.5t-39.5 18.5t-59 11q-69 0 -111 -54.5t-42 -115.5t42 -116t111 -55z" />
    <glyph glyph-name="ordfeminine" unicode="&#xaa;" horiz-adv-x="324" 
d="M132 503q53 0 90 -26q-2 51 -19.5 81t-63.5 30q-47 0 -84 -37l-3 -3l-14 30l2 1q17 18 45 29.5t54 11.5q31 0 53 -11.5t33.5 -28t18 -43t8 -47t1.5 -50.5q0 -46 6 -75q9 -52 34 -52h5l-15 -32l-2 1q-32 3 -47 38q-46 -38 -100 -38q-51 0 -82.5 31t-31.5 82
q0 45 33.5 76.5t78.5 31.5zM134 473q-32 0 -56 -23.5t-24 -54.5q0 -36 22 -60t58 -24q53 0 90 44l-3 82q-38 36 -87 36z" />
    <glyph glyph-name="guillemotleft" unicode="&#xab;" horiz-adv-x="401" 
d="M200 507l-113 -209l113 -209h-39l-116 209l116 209h39zM356 507l-113 -209l113 -209h-39l-116 209l116 209h39z" />
    <glyph glyph-name="logicalnot" unicode="&#xac;" horiz-adv-x="559" 
d="M479 390v-174h-33v141h-370v33h403z" />
    <glyph glyph-name="uni00AD" unicode="&#xad;" horiz-adv-x="430" 
d="M395 310h-360v32h360v-32z" />
    <glyph glyph-name="registered" unicode="&#xae;" horiz-adv-x="768" 
d="M384 -27q-67 0 -128 26q-92 39 -147 122t-55 182q0 136 96.5 233t233.5 97q136 0 233 -96.5t97 -233.5t-97 -233.5t-233 -96.5zM384 603q-124 0 -212.5 -88.5t-88.5 -212.5t88.5 -212t212.5 -88t212.5 88t88.5 212t-88.5 212.5t-212.5 88.5zM503 382q0 -35 -23 -65
t-57 -33l103 -167h-35v1l-103 165h-91v-166h-28v362h143q39 0 65 -29t26 -68zM474 382q0 29 -18.5 50t-43.5 21h-115v-143h115q24 0 43 22t19 50z" />
    <glyph glyph-name="macron" unicode="&#xaf;" horiz-adv-x="515" 
d="M435 700v-32h-359v32h359z" />
    <glyph glyph-name="degree" unicode="&#xb0;" horiz-adv-x="369" 
d="M185 635q54 0 92 -37t38 -91q0 -56 -38 -93.5t-92 -37.5q-55 0 -93 37.5t-38 93.5q0 54 38 91t93 37zM184 412q40 0 67.5 27.5t27.5 67.5q0 39 -27.5 65.5t-67.5 26.5t-67 -26t-27 -66t27 -67.5t67 -27.5z" />
    <glyph glyph-name="plusminus" unicode="&#xb1;" horiz-adv-x="452" 
d="M404 342v-31h-162v-164h-35v164h-162v31h162v164h35v-164h162zM407 44h-359v32h359v-32z" />
    <glyph glyph-name="twosuperior" unicode="&#xb2;" horiz-adv-x="249" 
d="M116 622q45 0 75.5 -22t30.5 -65q0 -31 -24.5 -60.5t-54 -49.5t-56 -49t-29.5 -58h171v-32h-206v23q0 32 17 60.5t41 49t48 39t41 38.5t17 39q0 27 -21 39.5t-50 12.5q-43 0 -82 -34l-13 31q37 38 95 38z" />
    <glyph glyph-name="threesuperior" unicode="&#xb3;" horiz-adv-x="255" 
d="M201 385q0 22 -9 36.5t-27 20.5t-33.5 8t-38.5 2h-3v27l86 105h-139v29h182v-26l-84 -104q44 -3 71.5 -29t27.5 -69q0 -46 -32.5 -76t-78.5 -30q-26 0 -55.5 12.5t-46.5 30.5l20 25q32 -37 84 -37q34 0 55 20.5t21 54.5z" />
    <glyph glyph-name="acute" unicode="&#xb4;" horiz-adv-x="545" 
d="M275 612h-36l51 126h50z" />
    <glyph glyph-name="paragraph" unicode="&#xb6;" horiz-adv-x="412" 
d="M397 612v-32h-69v-676h-36v676h-124v-676h-36v492q-45 0 -76.5 32t-31.5 76q0 45 31.5 76.5t76.5 31.5h265z" />
    <glyph glyph-name="cedilla" unicode="&#xb8;" horiz-adv-x="546" 
d="M342 0l-55 -136h-50l69 136h36z" />
    <glyph glyph-name="onesuperior" unicode="&#xb9;" horiz-adv-x="144" 
d="M89 613h26v-326h-33v288l-53 -27l-11 30z" />
    <glyph glyph-name="ordmasculine" unicode="&#xba;" horiz-adv-x="349" 
d="M302 449q0 -68 -38.5 -118t-105.5 -50q-66 0 -104.5 50.5t-38.5 117.5q0 68 38 118.5t105 50.5t105.5 -50.5t38.5 -118.5zM46 449q0 -51 32 -95t80 -44q50 0 81.5 43t31.5 96q0 54 -30.5 96.5t-82.5 42.5q-49 0 -80.5 -44t-31.5 -95z" />
    <glyph glyph-name="guillemotright" unicode="&#xbb;" horiz-adv-x="401" 
d="M314 304l-113 209h39l116 -209l-116 -209h-39zM158 304l-113 209h39l116 -209l-116 -209h-39z" />
    <glyph glyph-name="questiondown" unicode="&#xbf;" horiz-adv-x="420" 
d="M285 701q14 0 24 -10t10 -24t-10 -24t-24 -10t-24.5 10t-10.5 24t10.5 24t24.5 10zM232 -10q-80 0 -128.5 48t-48.5 119q0 54 19 94t51 61t67.5 30.5t74.5 9.5v188h35v-90v-135h-35q-89 0 -132.5 -41.5t-43.5 -116.5q0 -68 43 -100t100 -32q58 0 118 43l13 -32
q-22 -18 -60.5 -32t-72.5 -14z" />
    <glyph glyph-name="Agrave" unicode="&#xc0;" horiz-adv-x="568" 
d="M266 612h37l215 -612h-39l-65 186h-259l-65 -186h-40zM284 556l-118 -338h237zM247 826l51 -126h-36l-65 126h50z" />
    <glyph glyph-name="Aacute" unicode="&#xc1;" horiz-adv-x="568" 
d="M266 612h37l215 -612h-39l-65 186h-259l-65 -186h-40zM284 556l-118 -338h237zM307 699h-36l51 126h50z" />
    <glyph glyph-name="Acircumflex" unicode="&#xc2;" horiz-adv-x="568" 
d="M266 612h37l215 -612h-39l-65 186h-259l-65 -186h-40zM284 556l-118 -338h237zM284 803l-47 -104h-33l59 134h42l59 -134h-33z" />
    <glyph glyph-name="Atilde" unicode="&#xc3;" horiz-adv-x="568" 
d="M266 612h37l215 -612h-39l-65 186h-259l-65 -186h-40zM284 556l-118 -338h237zM146 687l-30 16q40 62 107 62q37 0 71 -16t64 -16q41 0 62 35l31 -14q-32 -54 -93 -54q-39 0 -73 15.5t-63 15.5q-52 0 -76 -44z" />
    <glyph glyph-name="Adieresis" unicode="&#xc4;" horiz-adv-x="568" 
d="M266 612h37l215 -612h-39l-65 186h-259l-65 -186h-40zM284 556l-118 -338h237zM177 767q14 0 24 -10.5t10 -24.5t-10 -24t-24 -10t-24 10t-10 24t10 24.5t24 10.5zM390 767q14 0 24 -10.5t10 -24.5t-10 -24t-24 -10t-24.5 10t-10.5 24t10.5 24.5t24.5 10.5z" />
    <glyph glyph-name="Aring" unicode="&#xc5;" horiz-adv-x="568" 
d="M266 612h37l215 -612h-39l-65 186h-259l-65 -186h-40zM284 556l-118 -338h237zM284 838q36 0 61.5 -25t25.5 -61q0 -37 -25.5 -62.5t-61.5 -25.5q-37 0 -62.5 25.5t-25.5 62.5q0 36 25.5 61t62.5 25zM283 802q-21 0 -36 -15.5t-15 -34.5q0 -20 15 -36t36 -16t36.5 16.5
t15.5 35.5t-15.5 34.5t-36.5 15.5z" />
    <glyph glyph-name="AE" unicode="&#xc6;" horiz-adv-x="710" 
d="M634 580h-315v-238h257v-33h-257v-277h315v-32h-350v186h-130l-65 -186h-39l215 612h369v-32zM284 218v338l-118 -338h118z" />
    <glyph glyph-name="Ccedilla" unicode="&#xc7;" horiz-adv-x="604" 
d="M67 305q0 122 84.5 218.5t217.5 96.5q103 0 168 -61l-18 -31q-63 59 -150 59q-117 0 -191 -86.5t-74 -195.5t74 -195.5t191 -86.5q88 0 150 59l18 -32q-65 -60 -168 -60q-18 0 -26 1l-49 -122l-48 4l63 123q-109 22 -175.5 112t-66.5 197z" />
    <glyph glyph-name="Egrave" unicode="&#xc8;" horiz-adv-x="502" 
d="M112 342h256v-33h-256v-277h314v-32h-350v612h350v-32h-314v-238zM224 825l51 -126h-36l-65 126h50z" />
    <glyph glyph-name="Eacute" unicode="&#xc9;" horiz-adv-x="502" 
d="M112 342h256v-33h-256v-277h314v-32h-350v612h350v-32h-314v-238zM273 699h-36l51 126h50z" />
    <glyph glyph-name="Ecircumflex" unicode="&#xca;" horiz-adv-x="502" 
d="M112 342h256v-33h-256v-277h314v-32h-350v612h350v-32h-314v-238zM259 804l-47 -104h-33l59 134h42l59 -134h-33z" />
    <glyph glyph-name="Edieresis" unicode="&#xcb;" horiz-adv-x="502" 
d="M112 342h256v-33h-256v-277h314v-32h-350v612h350v-32h-314v-238zM147 764q14 0 24 -10.5t10 -24.5t-10 -24t-24 -10t-24 10t-10 24t10 24.5t24 10.5zM360 764q14 0 24 -10.5t10 -24.5t-10 -24t-24 -10t-24.5 10t-10.5 24t10.5 24.5t24.5 10.5z" />
    <glyph glyph-name="Igrave" unicode="&#xcc;" horiz-adv-x="213" 
d="M136 612v-612h-36v612h36zM86 826l51 -126h-36l-65 126h50z" />
    <glyph glyph-name="Iacute" unicode="&#xcd;" horiz-adv-x="193" 
d="M112 612v-612h-36v612h36zM112 700h-36l51 126h50z" />
    <glyph glyph-name="Icircumflex" unicode="&#xce;" horiz-adv-x="192" 
d="M114 612v-612h-36v612h36zM96 804l-47 -104h-33l59 134h42l59 -134h-33z" />
    <glyph glyph-name="Idieresis" unicode="&#xcf;" horiz-adv-x="181" 
d="M108 612v-612h-36v612h36zM-16 764q14 0 24 -10.5t10 -24.5t-10 -24t-24 -10t-24 10t-10 24t10 24.5t24 10.5zM197 764q14 0 24 -10.5t10 -24.5t-10 -24t-24 -10t-24.5 10t-10.5 24t10.5 24.5t24.5 10.5z" />
    <glyph glyph-name="Eth" unicode="&#xd0;" horiz-adv-x="580" 
d="M269 612q98 0 171 -90t73 -216q0 -127 -72.5 -216.5t-171.5 -89.5h-138h-32h-1v290h-83v32h83v290h1h32h138zM269 32q84 0 146 80.5t62 193.5q0 114 -60.5 194t-147.5 80h-136v-258h187v-32h-187v-258h136z" />
    <glyph glyph-name="Ntilde" unicode="&#xd1;" horiz-adv-x="548" 
d="M472 612v-612h-40l-321 542v-542h-35v612h39l321 -545v545h36zM136 687l-29 16q35 62 107 62q36 0 70 -16t64 -16q42 0 63 36l30 -15q-32 -54 -93 -54q-38 0 -72 16t-64 16q-51 0 -76 -45z" />
    <glyph glyph-name="Ograve" unicode="&#xd2;" horiz-adv-x="643" 
d="M321 622q115 0 185 -92t70 -224q0 -134 -68.5 -225t-186.5 -91t-186 91t-68 225q0 132 70 224t184 92zM321 589q-103 0 -160 -81.5t-57 -201.5t57 -201.5t160 -81.5t160.5 81.5t57.5 201.5t-57.5 201.5t-160.5 81.5zM298 827l51 -126h-36l-65 126h50z" />
    <glyph glyph-name="Oacute" unicode="&#xd3;" horiz-adv-x="643" 
d="M321 622q115 0 185 -92t70 -224q0 -134 -68.5 -225t-186.5 -91t-186 91t-68 225q0 132 70 224t184 92zM321 589q-103 0 -160 -81.5t-57 -201.5t57 -201.5t160 -81.5t160.5 81.5t57.5 201.5t-57.5 201.5t-160.5 81.5zM332 700h-36l51 126h50z" />
    <glyph glyph-name="Ocircumflex" unicode="&#xd4;" horiz-adv-x="643" 
d="M321 622q115 0 185 -92t70 -224q0 -134 -68.5 -225t-186.5 -91t-186 91t-68 225q0 132 70 224t184 92zM321 589q-103 0 -160 -81.5t-57 -201.5t57 -201.5t160 -81.5t160.5 81.5t57.5 201.5t-57.5 201.5t-160.5 81.5zM321 804l-47 -104h-33l59 134h42l59 -134h-33z" />
    <glyph glyph-name="Otilde" unicode="&#xd5;" horiz-adv-x="643" 
d="M321 622q115 0 185 -92t70 -224q0 -134 -68.5 -225t-186.5 -91t-186 91t-68 225q0 132 70 224t184 92zM321 589q-103 0 -160 -81.5t-57 -201.5t57 -201.5t160 -81.5t160.5 81.5t57.5 201.5t-57.5 201.5t-160.5 81.5zM183 687l-30 16q40 62 107 62q37 0 71 -16t64 -16
q41 0 62 35l31 -14q-32 -54 -93 -54q-39 0 -73 15.5t-63 15.5q-52 0 -76 -44z" />
    <glyph glyph-name="Odieresis" unicode="&#xd6;" horiz-adv-x="643" 
d="M321 622q115 0 185 -92t70 -224q0 -134 -68.5 -225t-186.5 -91t-186 91t-68 225q0 132 70 224t184 92zM321 589q-103 0 -160 -81.5t-57 -201.5t57 -201.5t160 -81.5t160.5 81.5t57.5 201.5t-57.5 201.5t-160.5 81.5zM215 776q14 0 24 -10.5t10 -24.5t-10 -24t-24 -10
t-24 10t-10 24t10 24.5t24 10.5zM428 776q14 0 24 -10.5t10 -24.5t-10 -24t-24 -10t-24.5 10t-10.5 24t10.5 24.5t24.5 10.5z" />
    <glyph glyph-name="multiply" unicode="&#xd7;" horiz-adv-x="373" 
d="M325 201l-23 -22l-114 114l-116 -116l-25 25l116 116l-114 114l22 23l114 -115l116 116l25 -25l-116 -116z" />
    <glyph glyph-name="Oslash" unicode="&#xd8;" horiz-adv-x="643" 
d="M321 622q63 0 116 -31l52 109h38l-62 -128q53 -42 82 -112.5t29 -153.5q0 -134 -68.5 -225t-186.5 -91q-66 0 -120 32l-47 -96h-38l56 116q-50 43 -77.5 112.5t-27.5 151.5q0 132 70 224t184 92zM321 589q-103 0 -160 -81.5t-57 -201.5q0 -152 84 -232l235 488
q-46 27 -102 27zM539 306q0 73 -22.5 135t-65.5 100l-236 -488q47 -30 106 -30q103 0 160.5 81.5t57.5 201.5z" />
    <glyph glyph-name="Ugrave" unicode="&#xd9;" 
d="M258 -10q-81 0 -139.5 60.5t-58.5 142.5v419h36v-419q0 -67 48 -117t114 -50q67 0 115 50t48 117v419h36v-419q0 -82 -58.5 -142.5t-140.5 -60.5zM237 825l51 -126h-36l-65 126h50z" />
    <glyph glyph-name="Uacute" unicode="&#xda;" 
d="M258 -10q-81 0 -139.5 60.5t-58.5 142.5v419h36v-419q0 -67 48 -117t114 -50q67 0 115 50t48 117v419h36v-419q0 -82 -58.5 -142.5t-140.5 -60.5zM274 699h-36l51 126h50z" />
    <glyph glyph-name="Ucircumflex" unicode="&#xdb;" 
d="M258 -10q-81 0 -139.5 60.5t-58.5 142.5v419h36v-419q0 -67 48 -117t114 -50q67 0 115 50t48 117v419h36v-419q0 -82 -58.5 -142.5t-140.5 -60.5zM258 804l-47 -104h-33l59 134h42l59 -134h-33z" />
    <glyph glyph-name="Udieresis" unicode="&#xdc;" 
d="M258 -10q-81 0 -139.5 60.5t-58.5 142.5v419h36v-419q0 -67 48 -117t114 -50q67 0 115 50t48 117v419h36v-419q0 -82 -58.5 -142.5t-140.5 -60.5zM151 763q14 0 24 -10.5t10 -24.5t-10 -24t-24 -10t-24 10t-10 24t10 24.5t24 10.5zM364 763q14 0 24 -10.5t10 -24.5
t-10 -24t-24 -10t-24.5 10t-10.5 24t10.5 24.5t24.5 10.5z" />
    <glyph glyph-name="Yacute" unicode="&#xdd;" horiz-adv-x="546" 
d="M455 612h41l-205 -308v-304h-36v304l-205 308h41l182 -270zM290 700h-36l51 126h50z" />
    <glyph glyph-name="Thorn" unicode="&#xde;" horiz-adv-x="477" 
d="M-9253 43q201 0 201 -160t-201 -160h-114v-181h-33v663h33v-162h114zM-9253 -245q168 0 168 128q0 39 -16.5 66t-44.5 39.5t-53.5 17.5t-53.5 5h-114v-256h114zM410 345q0 -91 -59.5 -125.5t-167.5 -34.5h-88v-185h-33v663h33v-157h88q108 0 167.5 -35t59.5 -126z
M377 345q0 31 -9 54.5t-28 37t-35 21.5t-44.5 11t-40.5 3.5t-37 0.5h-88v-256h88q27 0 39.5 0.5t41 3.5t44 11t34 21.5t27 37t8.5 54.5z" />
    <glyph glyph-name="germandbls" unicode="&#xdf;" horiz-adv-x="503" 
d="M305 352q0 -15 15 -30.5t36 -31t42 -34.5t36 -48.5t15 -64.5q0 -64 -44 -108.5t-103 -44.5q-22 0 -45 7t-35 13l-13 7l15 33q0 -1 12 -6.5t31.5 -11.5t34.5 -6q40 0 75.5 34t35.5 85q0 32 -15 57.5t-36.5 41.5t-42.5 31t-36 34.5t-15 43.5q0 22 13.5 42t29.5 33
t29.5 32.5t13.5 41.5q0 40 -31.5 61.5t-75.5 21.5q-67 0 -105.5 -52t-38.5 -132l1 -401h-37v397q0 91 43.5 157.5t136.5 66.5q66 0 104.5 -33.5t38.5 -86.5q0 -27 -13.5 -51t-29 -38t-29 -30t-13.5 -30z" />
    <glyph glyph-name="agrave" unicode="&#xe0;" 
d="M210 328q46 0 92 -17t60 -34q0 102 -33 154.5t-108 52.5q-34 0 -67 -13.5t-48 -25t-22 -19.5l-14 30q21 21 61.5 41t89.5 20q43 0 74.5 -14t50.5 -37.5t30 -60.5t15 -76.5t4 -92.5q0 -109 14.5 -161t51.5 -52l-15 -33q-47 3 -70 67q-72 -67 -164 -67q-75 0 -123.5 46.5
t-48.5 126.5q0 71 51.5 118t118.5 47zM212 297q-50 0 -93 -38.5t-43 -94.5q0 -65 39.5 -104.5t96.5 -39.5q90 0 154 76l-4 139q-11 11 -27.5 23t-51.5 25.5t-71 13.5zM214 740l51 -126h-36l-65 126h50z" />
    <glyph glyph-name="aacute" unicode="&#xe1;" 
d="M210 328q46 0 92 -17t60 -34q0 102 -33 154.5t-108 52.5q-34 0 -67 -13.5t-48 -25t-22 -19.5l-14 30q21 21 61.5 41t89.5 20q43 0 74.5 -14t50.5 -37.5t30 -60.5t15 -76.5t4 -92.5q0 -109 14.5 -161t51.5 -52l-15 -33q-47 3 -70 67q-72 -67 -164 -67q-75 0 -123.5 46.5
t-48.5 126.5q0 71 51.5 118t118.5 47zM212 297q-50 0 -93 -38.5t-43 -94.5q0 -65 39.5 -104.5t96.5 -39.5q90 0 154 76l-4 139q-11 11 -27.5 23t-51.5 25.5t-71 13.5zM257 612h-36l51 126h50z" />
    <glyph glyph-name="acircumflex" unicode="&#xe2;" 
d="M210 328q46 0 92 -17t60 -34q0 102 -33 154.5t-108 52.5q-34 0 -67 -13.5t-48 -25t-22 -19.5l-14 30q21 21 61.5 41t89.5 20q43 0 74.5 -14t50.5 -37.5t30 -60.5t15 -76.5t4 -92.5q0 -109 14.5 -161t51.5 -52l-15 -33q-47 3 -70 67q-72 -67 -164 -67q-75 0 -123.5 46.5
t-48.5 126.5q0 71 51.5 118t118.5 47zM212 297q-50 0 -93 -38.5t-43 -94.5q0 -65 39.5 -104.5t96.5 -39.5q90 0 154 76l-4 139q-11 11 -27.5 23t-51.5 25.5t-71 13.5zM238 716l-47 -104h-33l59 134h42l59 -134h-33z" />
    <glyph glyph-name="atilde" unicode="&#xe3;" 
d="M210 328q46 0 92 -17t60 -34q0 102 -33 154.5t-108 52.5q-34 0 -67 -13.5t-48 -25t-22 -19.5l-14 30q21 21 61.5 41t89.5 20q43 0 74.5 -14t50.5 -37.5t30 -60.5t15 -76.5t4 -92.5q0 -109 14.5 -161t51.5 -52l-15 -33q-47 3 -70 67q-72 -67 -164 -67q-75 0 -123.5 46.5
t-48.5 126.5q0 71 51.5 118t118.5 47zM212 297q-50 0 -93 -38.5t-43 -94.5q0 -65 39.5 -104.5t96.5 -39.5q90 0 154 76l-4 139q-11 11 -27.5 23t-51.5 25.5t-71 13.5zM91 626l-30 16q40 62 107 62q37 0 71 -16t64 -16q41 0 62 35l31 -14q-32 -54 -93 -54q-39 0 -73 15.5
t-63 15.5q-52 0 -76 -44z" />
    <glyph glyph-name="adieresis" unicode="&#xe4;" 
d="M210 328q46 0 92 -17t60 -34q0 102 -33 154.5t-108 52.5q-34 0 -67 -13.5t-48 -25t-22 -19.5l-14 30q21 21 61.5 41t89.5 20q43 0 74.5 -14t50.5 -37.5t30 -60.5t15 -76.5t4 -92.5q0 -109 14.5 -161t51.5 -52l-15 -33q-47 3 -70 67q-72 -67 -164 -67q-75 0 -123.5 46.5
t-48.5 126.5q0 71 51.5 118t118.5 47zM212 297q-50 0 -93 -38.5t-43 -94.5q0 -65 39.5 -104.5t96.5 -39.5q90 0 154 76l-4 139q-11 11 -27.5 23t-51.5 25.5t-71 13.5zM145 715q14 0 24 -10.5t10 -24.5t-10 -24t-24 -10t-24 10t-10 24t10 24.5t24 10.5zM358 715
q14 0 24 -10.5t10 -24.5t-10 -24t-24 -10t-24.5 10t-10.5 24t10.5 24.5t24.5 10.5z" />
    <glyph glyph-name="aring" unicode="&#xe5;" 
d="M210 328q46 0 92 -17t60 -34q0 102 -33 154.5t-108 52.5q-34 0 -67 -13.5t-48 -25t-22 -19.5l-14 30q21 21 61.5 41t89.5 20q43 0 74.5 -14t50.5 -37.5t30 -60.5t15 -76.5t4 -92.5q0 -109 14.5 -161t51.5 -52l-15 -33q-47 3 -70 67q-72 -67 -164 -67q-75 0 -123.5 46.5
t-48.5 126.5q0 71 51.5 118t118.5 47zM212 297q-50 0 -93 -38.5t-43 -94.5q0 -65 39.5 -104.5t96.5 -39.5q90 0 154 76l-4 139q-11 11 -27.5 23t-51.5 25.5t-71 13.5zM221 773q36 0 61.5 -25t25.5 -61q0 -37 -25.5 -62.5t-61.5 -25.5q-37 0 -62.5 25.5t-25.5 62.5
q0 36 25.5 61t62.5 25zM220 737q-21 0 -36 -15.5t-15 -34.5q0 -20 15 -36t36 -16t36.5 16.5t15.5 35.5t-15.5 34.5t-36.5 15.5z" />
    <glyph glyph-name="ae" unicode="&#xe6;" horiz-adv-x="807" 
d="M210 328q46 0 92 -17t60 -34v1q0 102 -33 154t-108 52q-34 0 -67 -13.5t-48 -25t-22 -19.5l-14 30q21 21 61.5 41t89.5 20q70 0 107.5 -33.5t53.5 -97.5q22 61 68.5 96t116.5 35q86 0 136 -58t50 -168v-32h-358q0 -93 52 -165t136 -72q40 0 74 13.5t49 26.5l14 14l20 -27
q-6 -7 -18 -16.5t-53 -26t-86 -16.5q-113 0 -175 98q-32 -42 -87 -70t-109 -28q-75 0 -123.5 46.5t-48.5 126.5q0 71 51.5 118t118.5 47zM212 297q-50 0 -93 -38.5t-43 -94.5q0 -65 39.5 -104.5t96.5 -39.5q51 0 101 29t80 67q-25 52 -30 119q-70 62 -151 62zM396 291h323
q0 85 -36 139.5t-116 54.5q-46 0 -80.5 -18t-53.5 -48t-28 -62t-9 -66z" />
    <glyph glyph-name="ccedilla" unicode="&#xe7;" horiz-adv-x="481" 
d="M54 253q0 108 61 185.5t166 77.5q44 0 84 -15t58 -29l18 -15l-20 -27q-6 6 -17.5 15t-48.5 24t-75 15q-59 0 -104.5 -38t-66.5 -90t-21 -103t21 -103t66.5 -90t104.5 -38q38 0 73.5 13.5t51.5 26.5l16 14l20 -27q-7 -7 -20 -16.5t-54.5 -26t-85.5 -16.5h-10l-52 -135
l-49 4l66 136q-85 17 -133.5 90.5t-48.5 167.5z" />
    <glyph glyph-name="egrave" unicode="&#xe8;" horiz-adv-x="498" 
d="M259 485q-46 0 -80.5 -18t-53.5 -48t-28 -62t-9 -66h323q0 85 -36 139.5t-116 54.5zM259 517q85 0 135 -58t50 -168v-32h-357q0 -93 51.5 -165t135.5 -72q40 0 74 13.5t48 26.5l15 14l20 -27q-6 -7 -18 -16.5t-52.5 -26t-85.5 -16.5q-101 0 -161 78t-60 197q0 110 52 181
t153 71zM227 740l51 -126h-36l-65 126h50z" />
    <glyph glyph-name="eacute" unicode="&#xe9;" horiz-adv-x="498" 
d="M339 738l-65 -126h-36l44 126h57zM259 485q-46 0 -80.5 -18t-53.5 -48t-28 -62t-9 -66h323q0 85 -36 139.5t-116 54.5zM259 517q85 0 135 -58t50 -168v-32h-357q0 -93 51.5 -165t135.5 -72q40 0 74 13.5t48 26.5l15 14l20 -27q-6 -7 -18 -16.5t-52.5 -26t-85.5 -16.5
q-101 0 -161 78t-60 197q0 110 52 181t153 71z" />
    <glyph glyph-name="ecircumflex" unicode="&#xea;" horiz-adv-x="498" 
d="M328 612h-33l-47 104l-47 -104h-33l59 134h42zM259 485q-46 0 -80.5 -18t-53.5 -48t-28 -62t-9 -66h323q0 85 -36 139.5t-116 54.5zM259 517q85 0 135 -58t50 -168v-32h-357q0 -93 51.5 -165t135.5 -72q40 0 74 13.5t48 26.5l15 14l20 -27q-6 -7 -18 -16.5t-52.5 -26
t-85.5 -16.5q-101 0 -161 78t-60 197q0 110 52 181t153 71z" />
    <glyph glyph-name="edieresis" unicode="&#xeb;" horiz-adv-x="498" 
d="M259 485q-46 0 -80.5 -18t-53.5 -48t-28 -62t-9 -66h323q0 85 -36 139.5t-116 54.5zM259 517q85 0 135 -58t50 -168v-32h-357q0 -93 51.5 -165t135.5 -72q40 0 74 13.5t48 26.5l15 14l20 -27q-6 -7 -18 -16.5t-52.5 -26t-85.5 -16.5q-101 0 -161 78t-60 197q0 110 52 181
t153 71zM143 714q14 0 24 -10.5t10 -24.5t-10 -24t-24 -10t-24 10t-10 24t10 24.5t24 10.5zM356 714q14 0 24 -10.5t10 -24.5t-10 -24t-24 -10t-24.5 10t-10.5 24t10.5 24.5t24.5 10.5z" />
    <glyph glyph-name="igrave" unicode="&#xec;" horiz-adv-x="193" 
d="M117 506v-506h-33v506h33zM16 738h50l51 -126h-36z" />
    <glyph glyph-name="iacute" unicode="&#xed;" horiz-adv-x="193" 
d="M109 506v-506h-33v506h33zM112 612h-36l51 126h50z" />
    <glyph glyph-name="icircumflex" unicode="&#xee;" horiz-adv-x="191" 
d="M112 506v-506h-33v506h33zM96 716l-47 -104h-33l59 134h41l59 -134h-32z" />
    <glyph glyph-name="idieresis" unicode="&#xef;" horiz-adv-x="221" 
d="M127 506v-506h-33v506h33zM4 714q14 0 24 -10.5t10 -24.5t-10 -24t-24 -10t-24 10t-10 24t10 24.5t24 10.5zM217 714q14 0 24 -10.5t10 -24.5t-10 -24t-24 -10t-24.5 10t-10.5 24t10.5 24.5t24.5 10.5z" />
    <glyph glyph-name="eth" unicode="&#xf0;" horiz-adv-x="459" 
d="M234 418q52 0 83 -23l-109 166l-90 -60l-13 21l90 60l-74 118h42l60 -99l81 54l13 -20l-82 -55l18 -25q18 -25 44.5 -67t53 -90t45 -101.5t18.5 -92.5q0 -94 -51.5 -154t-128.5 -60q-78 0 -129 60t-51 154t51 154t129 60zM233 384q-63 0 -104.5 -53.5t-41.5 -126.5
t41.5 -127.5t104.5 -54.5q73 0 110.5 58.5t37.5 123.5q0 75 -39.5 127.5t-108.5 52.5z" />
    <glyph glyph-name="ntilde" unicode="&#xf1;" 
d="M258 517q90 0 134.5 -55.5t44.5 -157.5v-304h-31v261q0 49 -6 85.5t-21 69t-46 50t-76 17.5q-76 0 -112 -64.5t-36 -157.5v-261h-33v506h33v-97q12 38 50.5 73t98.5 35zM119 626l-30 16q40 62 107 62q37 0 71 -16t64 -16q41 0 62 35l31 -14q-32 -54 -93 -54
q-39 0 -73 15.5t-63 15.5q-52 0 -76 -44z" />
    <glyph glyph-name="ograve" unicode="&#xf2;" horiz-adv-x="550" 
d="M275 516q96 0 158.5 -74t62.5 -189t-63 -189t-158 -74t-158 74t-63 189t62.5 189t158.5 74zM275 484q-79 0 -133.5 -70.5t-54.5 -160.5q0 -89 55 -160t133 -71q47 0 84.5 23.5t59 59.5t33 74.5t11.5 73.5q0 92 -52 161.5t-136 69.5zM257 738l51 -126h-36l-65 126h50z" />
    <glyph glyph-name="oacute" unicode="&#xf3;" horiz-adv-x="550" 
d="M275 516q96 0 158.5 -74t62.5 -189t-63 -189t-158 -74t-158 74t-63 189t62.5 189t158.5 74zM275 484q-79 0 -133.5 -70.5t-54.5 -160.5q0 -89 55 -160t133 -71q47 0 84.5 23.5t59 59.5t33 74.5t11.5 73.5q0 92 -52 161.5t-136 69.5zM289 612h-36l51 126h50z" />
    <glyph glyph-name="ocircumflex" unicode="&#xf4;" horiz-adv-x="550" 
d="M275 516q96 0 158.5 -74t62.5 -189t-63 -189t-158 -74t-158 74t-63 189t62.5 189t158.5 74zM275 484q-79 0 -133.5 -70.5t-54.5 -160.5q0 -89 55 -160t133 -71q47 0 84.5 23.5t59 59.5t33 74.5t11.5 73.5q0 92 -52 161.5t-136 69.5zM276 716l-47 -104h-33l59 134h42
l59 -134h-33z" />
    <glyph glyph-name="otilde" unicode="&#xf5;" horiz-adv-x="550" 
d="M275 516q96 0 158.5 -74t62.5 -189t-63 -189t-158 -74t-158 74t-63 189t62.5 189t158.5 74zM275 484q-79 0 -133.5 -70.5t-54.5 -160.5q0 -89 55 -160t133 -71q47 0 84.5 23.5t59 59.5t33 74.5t11.5 73.5q0 92 -52 161.5t-136 69.5zM137 600l-30 16q40 62 107 62
q37 0 71 -16t64 -16q41 0 62 35l31 -14q-32 -54 -93 -54q-39 0 -73 15.5t-63 15.5q-52 0 -76 -44z" />
    <glyph glyph-name="odieresis" unicode="&#xf6;" horiz-adv-x="550" 
d="M275 516q96 0 158.5 -74t62.5 -189t-63 -189t-158 -74t-158 74t-63 189t62.5 189t158.5 74zM275 484q-79 0 -133.5 -70.5t-54.5 -160.5q0 -89 55 -160t133 -71q47 0 84.5 23.5t59 59.5t33 74.5t11.5 73.5q0 92 -52 161.5t-136 69.5zM169 714q14 0 24 -10.5t10 -24.5
t-10 -24t-24 -10t-24 10t-10 24t10 24.5t24 10.5zM382 714q14 0 24 -10.5t10 -24.5t-10 -24t-24 -10t-24.5 10t-10.5 24t10.5 24.5t24.5 10.5z" />
    <glyph glyph-name="divide" unicode="&#xf7;" horiz-adv-x="512" 
d="M289 461q0 -14 -10 -24.5t-24 -10.5t-24 10.5t-10 24.5t10 24t24 10t24 -10t10 -24zM289 103q0 -14 -10 -24t-24 -10t-24 10t-10 24t10 24t24 10t24 -10t10 -24zM436 266h-360v32h360v-32z" />
    <glyph glyph-name="oslash" unicode="&#xf8;" horiz-adv-x="550" 
d="M275 514q52 0 99 -25l58 121h38l-68 -140q94 -75 94 -219q0 -115 -63 -189t-158 -74q-52 0 -96 23l-62 -127h-38l71 146q-45 34 -70.5 91.5t-25.5 129.5q0 115 62.5 189t158.5 74zM275 482q-79 0 -133.5 -70.5t-54.5 -160.5q0 -54 21.5 -104t58.5 -83l192 395
q-39 23 -84 23zM463 251q0 55 -20 104.5t-56 82.5l-192 -395q37 -23 80 -23q47 0 84.5 23.5t59 59.5t33 74.5t11.5 73.5z" />
    <glyph glyph-name="ugrave" unicode="&#xf9;" horiz-adv-x="519" 
d="M261 -11q-90 0 -134.5 55.5t-45.5 157.5l-1 304h33v-261q0 -49 6 -85.5t21 -69t45.5 -50t75.5 -17.5q53 0 87.5 33.5t48 81.5t13.5 107l1 261h32v-506h-32v97q-12 -38 -51 -73t-99 -35zM240 738l51 -126h-36l-65 126h50z" />
    <glyph glyph-name="uacute" unicode="&#xfa;" horiz-adv-x="519" 
d="M261 -11q-90 0 -134.5 55.5t-45.5 157.5l-1 304h33v-261q0 -49 6 -85.5t21 -69t45.5 -50t75.5 -17.5q53 0 87.5 33.5t48 81.5t13.5 107l1 261h32v-506h-32v97q-12 -38 -51 -73t-99 -35zM270 612h-36l51 126h50z" />
    <glyph glyph-name="ucircumflex" unicode="&#xfb;" horiz-adv-x="519" 
d="M261 -11q-90 0 -134.5 55.5t-45.5 157.5l-1 304h33v-261q0 -49 6 -85.5t21 -69t45.5 -50t75.5 -17.5q53 0 87.5 33.5t48 81.5t13.5 107l1 261h32v-506h-32v97q-12 -38 -51 -73t-99 -35zM261 716l-47 -104h-33l59 134h42l59 -134h-33z" />
    <glyph glyph-name="udieresis" unicode="&#xfc;" horiz-adv-x="519" 
d="M261 -11q-90 0 -134.5 55.5t-45.5 157.5l-1 304h33v-261q0 -49 6 -85.5t21 -69t45.5 -50t75.5 -17.5q53 0 87.5 33.5t48 81.5t13.5 107l1 261h32v-506h-32v97q-12 -38 -51 -73t-99 -35zM154 714q14 0 24 -10.5t10 -24.5t-10 -24t-24 -10t-24 10t-10 24t10 24.5t24 10.5z
M367 714q14 0 24 -10.5t10 -24.5t-10 -24t-24 -10t-24.5 10t-10.5 24t10.5 24.5t24.5 10.5z" />
    <glyph glyph-name="yacute" unicode="&#xfd;" horiz-adv-x="457" 
d="M116 -181q-21 0 -44.5 9.5t-28.5 15.5l18 26l5 -2q4 -3 9 -6t11.5 -5.5t14 -4.5t14.5 -2q31 0 56 39t35 77l10 39l-173 501h35l156 -440l156 440h35l-173 -499q-3 -10 -11.5 -37.5t-13.5 -43t-16 -39t-23 -36t-30.5 -22.5t-41.5 -10zM251 612h-36l51 126h50z" />
    <glyph glyph-name="thorn" unicode="&#xfe;" horiz-adv-x="527" 
d="M251 517q95 0 158.5 -66t63.5 -185q0 -123 -64.5 -199.5t-157.5 -76.5q-81 0 -151 56v-179h-33v833h33v-238q70 55 151 55zM251 485q-39 0 -76.5 -15.5t-56.5 -31.5l-18 -16v-329q2 -3 6.5 -7.5t19.5 -17t31 -22t41.5 -17t52.5 -7.5q87 0 137.5 70.5t50.5 173.5
q0 93 -52.5 156t-135.5 63z" />
    <glyph glyph-name="ydieresis" unicode="&#xff;" horiz-adv-x="457" 
d="M116 -181q-21 0 -44.5 9.5t-28.5 15.5l18 26l5 -2q4 -3 9 -6t11.5 -5.5t14 -4.5t14.5 -2q31 0 56 39t35 77l10 39l-173 501h35l156 -440l156 440h35l-173 -499q-3 -10 -11.5 -37.5t-13.5 -43t-16 -39t-23 -36t-30.5 -22.5t-41.5 -10zM127 714q14 0 24 -10.5t10 -24.5
t-10 -24t-24 -10t-24 10t-10 24t10 24.5t24 10.5zM340 714q14 0 24 -10.5t10 -24.5t-10 -24t-24 -10t-24.5 10t-10.5 24t10.5 24.5t24.5 10.5z" />
    <glyph glyph-name="Amacron" unicode="&#x100;" horiz-adv-x="568" 
d="M266 612h37l215 -612h-39l-65 186h-259l-65 -186h-40zM284 556l-118 -338h237zM463 731v-32h-359v32h359z" />
    <glyph glyph-name="amacron" unicode="&#x101;" 
d="M210 328q46 0 92 -17t60 -34q0 102 -33 154.5t-108 52.5q-34 0 -67 -13.5t-48 -25t-22 -19.5l-14 30q21 21 61.5 41t89.5 20q43 0 74.5 -14t50.5 -37.5t30 -60.5t15 -76.5t4 -92.5q0 -109 14.5 -161t51.5 -52l-15 -33q-47 3 -70 67q-72 -67 -164 -67q-75 0 -123.5 46.5
t-48.5 126.5q0 71 51.5 118t118.5 47zM212 297q-50 0 -93 -38.5t-43 -94.5q0 -65 39.5 -104.5t96.5 -39.5q90 0 154 76l-4 139q-11 11 -27.5 23t-51.5 25.5t-71 13.5zM409 644v-32h-359v32h359z" />
    <glyph glyph-name="Abreve" unicode="&#x102;" horiz-adv-x="568" 
d="M266 612h37l215 -612h-39l-65 186h-259l-65 -186h-40zM284 556l-118 -338h237zM284 720q21 0 36.5 16.5t15.5 35.5h36q0 -37 -25.5 -62.5t-61.5 -25.5q-37 0 -62.5 25.5t-25.5 62.5h36q0 -20 15 -36t36 -16z" />
    <glyph glyph-name="abreve" unicode="&#x103;" 
d="M210 328q46 0 92 -17t60 -34q0 102 -33 154.5t-108 52.5q-34 0 -67 -13.5t-48 -25t-22 -19.5l-14 30q21 21 61.5 41t89.5 20q43 0 74.5 -14t50.5 -37.5t30 -60.5t15 -76.5t4 -92.5q0 -109 14.5 -161t51.5 -52l-15 -33q-47 3 -70 67q-72 -67 -164 -67q-75 0 -123.5 46.5
t-48.5 126.5q0 71 51.5 118t118.5 47zM212 297q-50 0 -93 -38.5t-43 -94.5q0 -65 39.5 -104.5t96.5 -39.5q90 0 154 76l-4 139q-11 11 -27.5 23t-51.5 25.5t-71 13.5zM235 633q21 0 36.5 16.5t15.5 35.5h36q0 -37 -25.5 -62.5t-61.5 -25.5q-37 0 -62.5 25.5t-25.5 62.5h36
q0 -20 15 -36t36 -16z" />
    <glyph glyph-name="Aogonek" unicode="&#x104;" horiz-adv-x="550" 
d="M494 -23q-18 -26 -18 -55q0 -23 14 -39t42 -16q7 0 14.5 3t12 6.5t5.5 4.5l16 -25q-20 -20 -58 -20t-59 25.5t-21 56.5q0 51 35 86l-63 182h-259l-65 -186h-40l216 612h37l215 -612l-4 -4q-4 -3 -9.5 -8t-10.5 -11zM284 556l-118 -338h237z" />
    <glyph glyph-name="aogonek" unicode="&#x105;" horiz-adv-x="486" 
d="M378 -86q0 50 33 86q-22 18 -35 53q-72 -67 -164 -67q-75 0 -123.5 46.5t-48.5 126.5q0 71 51.5 118t118.5 47q46 0 92 -17t60 -34q0 102 -33 154.5t-108 52.5q-34 0 -67 -13.5t-48 -25t-22 -19.5l-14 30q21 21 61.5 41t89.5 20q43 0 74.5 -14t50.5 -37.5t30 -60.5
t15 -76.5t4 -92.5q0 -109 14.5 -161t51.5 -52l-15 -33q-34 -26 -34 -68q0 -24 14 -39.5t42 -15.5q7 0 14.5 3t12 6.5t5.5 4.5l16 -25q-20 -20 -58 -20t-59 25.5t-21 56.5zM212 293q-50 0 -93 -38.5t-43 -94.5q0 -65 39.5 -104.5t96.5 -39.5q90 0 154 76l-4 139
q-11 11 -27.5 23t-51.5 25.5t-71 13.5z" />
    <glyph glyph-name="Cacute" unicode="&#x106;" horiz-adv-x="604" 
d="M369 620q103 0 168 -61l-18 -31q-63 59 -150 59q-117 0 -191 -86.5t-74 -195.5t74 -195.5t191 -86.5q88 0 150 59l18 -32q-65 -60 -168 -60q-133 0 -217.5 96t-84.5 219q0 122 84.5 218.5t217.5 96.5zM368 700h-36l51 126h50z" />
    <glyph glyph-name="cacute" unicode="&#x107;" horiz-adv-x="481" 
d="M54 253q0 108 61 185.5t166 77.5q44 0 84 -15t58 -29l18 -15l-20 -27q-6 6 -17.5 15t-48.5 24t-75 15q-59 0 -104.5 -38t-66.5 -90t-21 -103t21 -103t66.5 -90t104.5 -38q38 0 73.5 13.5t51.5 26.5l16 14l20 -27q-7 -7 -20 -16.5t-54.5 -26t-85.5 -16.5q-105 0 -166 77.5
t-61 185.5zM297 612h-36l51 126h50z" />
    <glyph glyph-name="Ccircumflex" unicode="&#x108;" horiz-adv-x="604" 
d="M369 620q103 0 168 -61l-18 -31q-63 59 -150 59q-117 0 -191 -86.5t-74 -195.5t74 -195.5t191 -86.5q88 0 150 59l18 -32q-65 -60 -168 -60q-133 0 -217.5 96t-84.5 219q0 122 84.5 218.5t217.5 96.5zM342 803l-47 -104h-33l59 134h42l59 -134h-33z" />
    <glyph glyph-name="ccircumflex" unicode="&#x109;" horiz-adv-x="481" 
d="M54 253q0 108 61 185.5t166 77.5q44 0 84 -15t58 -29l18 -15l-20 -27q-6 6 -17.5 15t-48.5 24t-75 15q-59 0 -104.5 -38t-66.5 -90t-21 -103t21 -103t66.5 -90t104.5 -38q38 0 73.5 13.5t51.5 26.5l16 14l20 -27q-7 -7 -20 -16.5t-54.5 -26t-85.5 -16.5q-105 0 -166 77.5
t-61 185.5zM280 716l-47 -104h-33l59 134h42l59 -134h-33z" />
    <glyph glyph-name="Cdotaccent" unicode="&#x10a;" horiz-adv-x="604" 
d="M369 620q103 0 168 -61l-18 -31q-63 59 -150 59q-117 0 -191 -86.5t-74 -195.5t74 -195.5t191 -86.5q88 0 150 59l18 -32q-65 -60 -168 -60q-133 0 -217.5 96t-84.5 219q0 122 84.5 218.5t217.5 96.5zM331 778q17 0 30.5 -13t13.5 -32q0 -18 -13.5 -31.5t-30.5 -13.5
q-18 0 -31.5 13.5t-13.5 31.5q0 19 13.5 32t31.5 13z" />
    <glyph glyph-name="cdotaccent" unicode="&#x10b;" horiz-adv-x="481" 
d="M54 253q0 108 61 185.5t166 77.5q44 0 84 -15t58 -29l18 -15l-20 -27q-6 6 -17.5 15t-48.5 24t-75 15q-59 0 -104.5 -38t-66.5 -90t-21 -103t21 -103t66.5 -90t104.5 -38q38 0 73.5 13.5t51.5 26.5l16 14l20 -27q-7 -7 -20 -16.5t-54.5 -26t-85.5 -16.5q-105 0 -166 77.5
t-61 185.5zM255 697q17 0 30.5 -13.5t13.5 -31.5t-13.5 -31.5t-30.5 -13.5q-18 0 -31.5 13.5t-13.5 31.5q0 19 13.5 32t31.5 13z" />
    <glyph glyph-name="Ccaron" unicode="&#x10c;" horiz-adv-x="604" 
d="M369 620q103 0 168 -61l-18 -31q-63 59 -150 59q-117 0 -191 -86.5t-74 -195.5t74 -195.5t191 -86.5q88 0 150 59l18 -32q-65 -60 -168 -60q-133 0 -217.5 96t-84.5 219q0 122 84.5 218.5t217.5 96.5zM330 730l46 104h33l-59 -134h-41l-59 134h34z" />
    <glyph glyph-name="ccaron" unicode="&#x10d;" horiz-adv-x="481" 
d="M54 253q0 108 61 185.5t166 77.5q44 0 84 -15t58 -29l18 -15l-20 -27q-6 6 -17.5 15t-48.5 24t-75 15q-59 0 -104.5 -38t-66.5 -90t-21 -103t21 -103t66.5 -90t104.5 -38q38 0 73.5 13.5t51.5 26.5l16 14l20 -27q-7 -7 -20 -16.5t-54.5 -26t-85.5 -16.5q-105 0 -166 77.5
t-61 185.5zM247 641l46 104h33l-59 -134h-41l-59 134h34z" />
    <glyph glyph-name="Dcaron" unicode="&#x10e;" horiz-adv-x="559" 
d="M492 306q0 -127 -72.5 -216.5t-171.5 -89.5h-138h-33h-1v612h1h171q98 0 171 -90t73 -216zM455 306q0 114 -60 194t-147 80h-136v-548h136q83 0 145 80.5t62 193.5zM234 730l46 104h33l-59 -134h-41l-59 134h34z" />
    <glyph glyph-name="dcaron" unicode="&#x10f;" horiz-adv-x="644" 
d="M559 612h-36l51 126h50zM55 266q0 119 63 185t158 66q82 0 151 -56v239h33v-700h-33v42q-61 -53 -150 -53q-93 0 -157.5 77t-64.5 200zM89 266q0 -103 50.5 -173.5t137.5 -70.5q42 0 79.5 17.5t53.5 34.5l17 18v330q-7 7 -20 17.5t-52.5 28t-78.5 17.5q-83 0 -135 -63
t-52 -156z" />
    <glyph glyph-name="Dcroat" unicode="&#x110;" horiz-adv-x="580" 
d="M513 306q0 -127 -72.5 -216.5t-171.5 -89.5h-138h-32h-2v290h-82v32h82v290h2h32h138q98 0 171 -90t73 -216zM476 306q0 114 -60 194t-147 80h-136v-258l152 -1v-31h-152v-258h136q84 0 145.5 80.5t61.5 193.5z" />
    <glyph glyph-name="dcroat" unicode="&#x111;" horiz-adv-x="559" 
d="M564 614v-32h-104v-581h-33v42q-61 -53 -150 -53q-93 0 -157.5 77t-64.5 200q0 118 63.5 184t157.5 66q83 0 151 -55v120h-104v32h104v87h33v-87h104zM427 93v329q-7 7 -20 17.5t-52.5 28t-78.5 17.5q-83 0 -135 -63t-52 -155q0 -103 50.5 -174t137.5 -71q26 0 51.5 7.5
t42.5 18t30 20.5t19 18z" />
    <glyph glyph-name="Emacron" unicode="&#x112;" horiz-adv-x="512" 
d="M112 342h256v-33h-256v-277h314v-32h-350v612h350v-32h-314v-238zM436 731v-32h-359v32h359z" />
    <glyph glyph-name="emacron" unicode="&#x113;" horiz-adv-x="498" 
d="M259 485q-46 0 -80.5 -18t-53.5 -48t-28 -62t-9 -66h323q0 85 -36 139.5t-116 54.5zM259 517q85 0 135 -58t50 -168v-32h-357q0 -93 51.5 -165t135.5 -72q40 0 74 13.5t48 26.5l15 14l20 -27q-6 -7 -18 -16.5t-52.5 -26t-85.5 -16.5q-101 0 -161 78t-60 197q0 110 52 181
t153 71zM429 644v-32h-359v32h359z" />
    <glyph glyph-name="Ebreve" unicode="&#x114;" horiz-adv-x="502" 
d="M112 342h256v-33h-256v-277h314v-32h-350v612h350v-32h-314v-238zM251 718q21 0 36.5 16.5t15.5 35.5h36q0 -37 -25.5 -62.5t-61.5 -25.5q-37 0 -62.5 25.5t-25.5 62.5h36q0 -20 15 -36t36 -16z" />
    <glyph glyph-name="ebreve" unicode="&#x115;" horiz-adv-x="498" 
d="M259 485q-46 0 -80.5 -18t-53.5 -48t-28 -62t-9 -66h323q0 85 -36 139.5t-116 54.5zM259 517q85 0 135 -58t50 -168v-32h-357q0 -93 51.5 -165t135.5 -72q40 0 74 13.5t48 26.5l15 14l20 -27q-6 -7 -18 -16.5t-52.5 -26t-85.5 -16.5q-101 0 -161 78t-60 197q0 110 52 181
t153 71zM249 638q21 0 36.5 16.5t15.5 35.5h36q0 -37 -25.5 -62.5t-61.5 -25.5q-37 0 -62.5 25.5t-25.5 62.5h36q0 -20 15 -36t36 -16z" />
    <glyph glyph-name="Edotaccent" unicode="&#x116;" horiz-adv-x="502" 
d="M112 342h256v-33h-256v-277h314v-32h-350v612h350v-32h-314v-238zM241 780q17 0 30.5 -13t13.5 -32q0 -18 -13.5 -31.5t-30.5 -13.5q-18 0 -31.5 13.5t-13.5 31.5q0 19 13.5 32t31.5 13z" />
    <glyph glyph-name="edotaccent" unicode="&#x117;" horiz-adv-x="498" 
d="M259 485q-46 0 -80.5 -18t-53.5 -48t-28 -62t-9 -66h323q0 85 -36 139.5t-116 54.5zM259 517q85 0 135 -58t50 -168v-32h-357q0 -93 51.5 -165t135.5 -72q40 0 74 13.5t48 26.5l15 14l20 -27q-6 -7 -18 -16.5t-52.5 -26t-85.5 -16.5q-101 0 -161 78t-60 197q0 110 52 181
t153 71zM240 700q18 0 31 -13t13 -32q0 -18 -13.5 -31.5t-30.5 -13.5q-18 0 -31.5 13.5t-13.5 31.5q0 19 13.5 32t31.5 13z" />
    <glyph glyph-name="Eogonek" unicode="&#x118;" horiz-adv-x="459" 
d="M385 -79q0 -24 14 -40t42 -16q7 0 14.5 3t12 6.5t5.5 4.5l16 -25q-20 -20 -58 -20t-59 25.5t-21 56.5q0 50 34 84h-309v612h350v-32h-314v-238h256v-33h-256v-277h314v-32q-41 -31 -41 -79z" />
    <glyph glyph-name="eogonek" unicode="&#x119;" horiz-adv-x="510" 
d="M390 -31q0 -24 14 -40t42 -16q7 0 14.5 3t12 6.5t5.5 4.5l16 -25q-20 -20 -58 -20t-59 25.5t-21 56.5q0 23 8 41q-43 -16 -89 -16q-101 0 -161 78t-60 197q0 110 52 181t153 71q85 0 135 -58t50 -168v-32h-357q0 -93 51.5 -165t135.5 -72q40 0 74 13.5t48 27.5l15 13
l20 -27q-4 -5 -14 -12q-27 -29 -27 -67zM259 484q-46 0 -80.5 -18t-53.5 -48t-28 -62t-9 -66h323q0 85 -36 139.5t-116 54.5z" />
    <glyph glyph-name="Ecaron" unicode="&#x11a;" horiz-adv-x="502" 
d="M112 342h256v-33h-256v-277h314v-32h-350v612h350v-32h-314v-238zM251 729l46 104h33l-59 -134h-41l-59 134h34z" />
    <glyph glyph-name="ecaron" unicode="&#x11b;" horiz-adv-x="498" 
d="M259 485q-46 0 -80.5 -18t-53.5 -48t-28 -62t-9 -66h323q0 85 -36 139.5t-116 54.5zM259 517q85 0 135 -58t50 -168v-32h-357q0 -93 51.5 -165t135.5 -72q40 0 74 13.5t48 26.5l15 14l20 -27q-6 -7 -18 -16.5t-52.5 -26t-85.5 -16.5q-101 0 -161 78t-60 197q0 110 52 181
t153 71zM258 642l46 104h33l-59 -134h-41l-59 134h34z" />
    <glyph glyph-name="Gcircumflex" unicode="&#x11c;" horiz-adv-x="626" 
d="M514 287h35v-211q-20 -37 -72.5 -61.5t-107.5 -24.5q-88 0 -158.5 47t-107 119t-36.5 151q0 122 85 218.5t218 96.5q42 0 92.5 -16t87.5 -51l-19 -31q-37 35 -84 50t-77 15q-118 0 -192 -86.5t-74 -195.5q0 -108 75.5 -196t190.5 -88q40 0 80 16.5t64 47.5v200zM335 804
l-47 -104h-33l59 134h41l59 -134h-32z" />
    <glyph glyph-name="gcircumflex" unicode="&#x11d;" horiz-adv-x="529" 
d="M54 269q0 113 66 180.5t163 67.5q86 0 146 -50v39h33v-445q0 -104 -55 -177.5t-151 -73.5q-50 0 -97.5 21.5t-67.5 41.5l19 25q12 -13 56.5 -34.5t90.5 -21.5q73 0 122.5 63.5t49.5 152.5q-56 -46 -146 -46q-96 0 -162.5 71.5t-66.5 185.5zM86 270q0 -95 53 -160.5
t144 -65.5q32 0 58.5 7.5t42 18t26.5 20.5t15 18l4 7v307q-6 7 -17 17.5t-49 28t-80 17.5q-91 0 -144 -60.5t-53 -154.5zM275 716l-47 -104h-33l59 134h42l59 -134h-33z" />
    <glyph glyph-name="Gbreve" unicode="&#x11e;" horiz-adv-x="626" 
d="M514 287h35v-211q-20 -37 -72.5 -61.5t-107.5 -24.5q-88 0 -158.5 47t-107 119t-36.5 151q0 122 85 218.5t218 96.5q42 0 92.5 -16t87.5 -51l-19 -31q-37 35 -84 50t-77 15q-118 0 -192 -86.5t-74 -195.5q0 -108 75.5 -196t190.5 -88q40 0 80 16.5t64 47.5v200zM312 727
q21 0 36.5 16.5t15.5 35.5h36q0 -37 -25.5 -62.5t-61.5 -25.5q-37 0 -62.5 25.5t-25.5 62.5h36q0 -19 15 -35.5t36 -16.5z" />
    <glyph glyph-name="gbreve" unicode="&#x11f;" horiz-adv-x="529" 
d="M54 269q0 113 66 180.5t163 67.5q86 0 146 -50v39h33v-445q0 -104 -55 -177.5t-151 -73.5q-50 0 -97.5 21.5t-67.5 41.5l19 25q12 -13 56.5 -34.5t90.5 -21.5q73 0 122.5 63.5t49.5 152.5q-56 -46 -146 -46q-96 0 -162.5 71.5t-66.5 185.5zM86 270q0 -95 53 -160.5
t144 -65.5q32 0 58.5 7.5t42 18t26.5 20.5t15 18l4 7v307q-6 7 -17 17.5t-49 28t-80 17.5q-91 0 -144 -60.5t-53 -154.5zM258 634q21 0 36.5 16.5t15.5 35.5h36q0 -37 -25.5 -62.5t-61.5 -25.5q-37 0 -62.5 25.5t-25.5 62.5h36q0 -20 15 -36t36 -16z" />
    <glyph glyph-name="Gdotaccent" unicode="&#x120;" horiz-adv-x="626" 
d="M549 287v-211q-20 -37 -72.5 -61.5t-107.5 -24.5q-88 0 -158.5 47t-107 119t-36.5 151q0 122 85 218.5t218 96.5q42 0 92.5 -16t87.5 -51l-19 -31q-37 35 -84 50t-77 15q-118 0 -192 -86.5t-74 -195.5q0 -108 75.5 -196t190.5 -88q40 0 80 16.5t64 47.5v200h35zM329 780
q17 0 30.5 -13t13.5 -32q0 -18 -13.5 -31.5t-30.5 -13.5q-18 0 -31.5 13.5t-13.5 31.5q0 19 13.5 32t31.5 13z" />
    <glyph glyph-name="gdotaccent" unicode="&#x121;" horiz-adv-x="529" 
d="M54 269q0 113 66 180.5t163 67.5q86 0 146 -50v39h33v-445q0 -104 -55 -177.5t-151 -73.5q-50 0 -97.5 21.5t-67.5 41.5l19 25q12 -13 56.5 -34.5t90.5 -21.5q73 0 122.5 63.5t49.5 152.5q-56 -46 -146 -46q-96 0 -162.5 71.5t-66.5 185.5zM86 270q0 -95 53 -160.5
t144 -65.5q32 0 58.5 7.5t42 18t26.5 20.5t15 18l4 7v307q-6 7 -17 17.5t-49 28t-80 17.5q-91 0 -144 -60.5t-53 -154.5zM264 700q18 0 31 -13t13 -32q0 -18 -13.5 -31.5t-30.5 -13.5q-18 0 -31.5 13.5t-13.5 31.5q0 19 13.5 32t31.5 13z" />
    <glyph glyph-name="Gcommaaccent" unicode="&#x122;" horiz-adv-x="626" 
d="M549 287v-211q-20 -37 -72.5 -61.5t-107.5 -24.5q-88 0 -158.5 47t-107 119t-36.5 151q0 122 85 218.5t218 96.5q42 0 92.5 -16t87.5 -51l-19 -31q-37 35 -84 50t-77 15q-118 0 -192 -86.5t-74 -195.5q0 -108 75.5 -196t190.5 -88q40 0 80 16.5t64 47.5v200h35zM372 -84
q11 -24 10 -53t-20 -55t-48 -31q-2 7 -4 25q45 8 47 65q-11 -5 -23.5 -1.5t-19.5 13.5q-8 12 -5 26t15 22t26.5 5t21.5 -16z" />
    <glyph glyph-name="gcommaaccent" unicode="&#x123;" horiz-adv-x="529" 
d="M283 517q86 0 146 -50v39h33v-445q0 -104 -55 -177.5t-151 -73.5q-50 0 -97.5 21.5t-67.5 41.5l19 25q12 -13 56.5 -34.5t90.5 -21.5q73 0 122.5 63.5t49.5 152.5q-56 -46 -146 -46q-96 0 -162.5 71.5t-66.5 185.5q0 113 66 180.5t163 67.5zM283 485q-91 0 -144 -60.5
t-53 -154.5q0 -95 53 -160.5t144 -65.5q32 0 58.5 7.5t42 18t26.5 20.5t15 18l4 7v307q-6 7 -17 17.5t-49 28t-80 17.5zM248 681q0 34 18.5 62t49.5 34l5 -25q-48 -8 -48 -65q10 4 15 3q14 0 24 -9.5t10 -23.5t-10 -24.5t-25 -10.5q-39 0 -39 59z" />
    <glyph glyph-name="Hcircumflex" unicode="&#x124;" horiz-adv-x="548" 
d="M111 342h326v270h35v-612h-35v309h-326v-309h-35v612h35v-270zM273 804l-47 -104h-33l59 134h42l59 -134h-33z" />
    <glyph glyph-name="hcircumflex" unicode="&#x125;" 
d="M258 517q90 0 134.5 -55.5t44.5 -157.5v-304h-31v261q0 49 -6 85.5t-21 69t-46 50t-76 17.5q-76 0 -112 -64.5t-36 -157.5v-261h-33v700h33v-291q12 38 50.5 73t98.5 35zM274 849l-47 -104h-33l59 134h42l59 -134h-33z" />
    <glyph glyph-name="Hbar" unicode="&#x126;" horiz-adv-x="651" 
d="M492 479h-326v-137h326v137zM527 612v-101h48v-32h-48v-479h-35v309h-326v-309h-35v479h-55v32h55v101h35v-101h326v101h35z" />
    <glyph glyph-name="hbar" unicode="&#x127;" horiz-adv-x="552" 
d="M292 517q90 0 135 -55.5t45 -157.5v-304h-32v261q0 49 -6 85.5t-21 69t-45.5 50t-75.5 17.5q-53 0 -87.5 -33.5t-48 -81.5t-13.5 -107v-261h-33v594h-95v32h95v74h33v-74h119v-32h-119v-185q12 38 50.5 73t98.5 35z" />
    <glyph glyph-name="Itilde" unicode="&#x128;" horiz-adv-x="195" 
d="M115 612v-612h-36v612h36zM-40 678l-30 16q40 62 107 62q37 0 71 -16t64 -16q41 0 62 35l31 -14q-32 -54 -93 -54q-39 0 -73 15.5t-63 15.5q-52 0 -76 -44z" />
    <glyph glyph-name="itilde" unicode="&#x129;" horiz-adv-x="234" 
d="M133 506v-506h-33v506h33zM-21 599l-29 16q35 62 107 62q37 0 70 -16t64 -16q42 0 63 36l30 -15q-32 -54 -93 -54q-39 0 -73 16t-63 16q-51 0 -76 -45z" />
    <glyph glyph-name="Imacron" unicode="&#x12a;" horiz-adv-x="219" 
d="M128 612v-612h-36v612h36zM289 731v-32h-359v32h359z" />
    <glyph glyph-name="imacron" unicode="&#x12b;" horiz-adv-x="219" 
d="M126 506v-506h-33v506h33zM289 644v-32h-359v32h359z" />
    <glyph glyph-name="Ibreve" unicode="&#x12c;" horiz-adv-x="207" 
d="M121 612v-612h-36v612h36zM103 731q21 0 36.5 16.5t15.5 35.5h36q0 -37 -25.5 -62.5t-61.5 -25.5q-37 0 -62.5 25.5t-25.5 62.5h36q0 -20 15 -36t36 -16z" />
    <glyph glyph-name="ibreve" unicode="&#x12d;" horiz-adv-x="207" 
d="M120 506v-506h-33v506h33zM103 651q21 0 36.5 16.5t15.5 35.5h36q0 -37 -25.5 -62.5t-61.5 -25.5q-37 0 -62.5 25.5t-25.5 62.5h36q0 -20 15 -36t36 -16z" />
    <glyph glyph-name="Iogonek" unicode="&#x12e;" horiz-adv-x="210" 
d="M56 -78q0 29 10 51t20 29l11 7v603h36v-612q-43 -32 -43 -78q0 -23 14 -39t41 -16q7 0 15 3t12.5 6.5t5.5 4.5l16 -25q-20 -20 -58 -20t-59 27.5t-21 58.5z" />
    <glyph glyph-name="iogonek" unicode="&#x12f;" horiz-adv-x="240" 
d="M135 552q-12 0 -20 8.5t-8 19.5t8 19.5t20 8.5q11 0 19 -8.5t8 -19.5t-8 -19.5t-19 -8.5zM198 -127l16 -25q-20 -20 -58 -20t-59 25t-21 56q0 57 42 91v498h33v-506q-41 -31 -41 -78q0 -23 14 -39t42 -16q7 0 14.5 3t12 6.5t5.5 4.5z" />
    <glyph glyph-name="Idotaccent" unicode="&#x130;" horiz-adv-x="181" 
d="M108 612v-612h-36v612h36zM91 778q17 0 30.5 -13t13.5 -32q0 -18 -13.5 -31.5t-30.5 -13.5q-18 0 -31.5 13.5t-13.5 31.5q0 19 13.5 32t31.5 13z" />
    <glyph glyph-name="dotlessi" unicode="&#x131;" horiz-adv-x="246" 
d="M15 483h155v-480h-36v447h-119v33z" />
    <glyph glyph-name="Jcircumflex" unicode="&#x134;" horiz-adv-x="392" 
d="M176 24q64 0 97 47.5t33 119.5v419h35v-419q0 -87 -43.5 -145t-121.5 -58q-72 0 -126 46l17 34q46 -44 109 -44zM322 803l-47 -104h-33l59 134h42l59 -134h-33z" />
    <glyph glyph-name="jcircumflex" unicode="&#x135;" horiz-adv-x="311" 
d="M131 0l1 506h33v-506q0 -32 -5.5 -61.5t-18.5 -60.5t-39.5 -49.5t-64.5 -18.5q-42 0 -74 21l13 29q26 -17 62 -17q28 0 47.5 14.5t28.5 39.5t13 50t4 53zM151 716l-47 -104h-33l59 134h42l59 -134h-33z" />
    <glyph glyph-name="Kcommaaccent" unicode="&#x136;" horiz-adv-x="494" 
d="M241 -84q22 -32 4.5 -82t-61.5 -57q-1 4 -2.5 12.5t-2.5 12.5q44 8 48 65q-28 -12 -43 12q-8 12 -5 26t15 22t26 5t21 -16zM135 334l304 -334h-45l-293 314v-314h-36v612h36v-261l257 261h45z" />
    <glyph glyph-name="kcommaaccent" unicode="&#x137;" horiz-adv-x="481" 
d="M265 -84q22 -32 4.5 -82t-61.5 -57q-1 4 -2.5 12.5t-2.5 12.5q44 8 48 65q-28 -12 -43 12q-8 12 -5 26t15 22t26 5t21 -16zM135 302l299 -302h-51l-283 286v-194v-92h-33v700h33v-381l224 187h52z" />
    <glyph glyph-name="Lacute" unicode="&#x139;" horiz-adv-x="400" 
d="M176 826l-64 -126h-36l50 126h50zM324 32v-32h-248v612h35v-580h213z" />
    <glyph glyph-name="lacute" unicode="&#x13a;" horiz-adv-x="276" 
d="M239 10q-32 -21 -74 -21q-38 0 -64.5 18.5t-39.5 49.5t-18.5 61t-5.5 62v520h33l1 -520q0 -28 4 -53t13 -50t28.5 -40t47.5 -15q36 0 62 17zM73 738h-36l50 126h50z" />
    <glyph glyph-name="Lcommaaccent" unicode="&#x13b;" horiz-adv-x="400" 
d="M324 32v-32h-248v612h35v-580h213zM226 -84q11 -24 10 -53t-20 -55t-48 -31q0 4 -2 12.5t-2 12.5q45 8 47 65q-11 -5 -23.5 -1.5t-19.5 13.5q-8 12 -5 26t15 22t26.5 5t21.5 -16z" />
    <glyph glyph-name="lcommaaccent" unicode="&#x13c;" horiz-adv-x="276" 
d="M239 10q-32 -21 -74 -21q-38 0 -64.5 18.5t-39.5 49.5t-18.5 61t-5.5 62v520h33l1 -520q0 -28 4 -53t13 -50t28.5 -40t47.5 -15q36 0 62 17zM164 -84q11 -24 10 -53t-20 -55t-48 -31q0 4 -2 12.5t-2 12.5q45 8 47 65q-26 -12 -43 12q-7 12 -4 26t15 22q11 8 25.5 5
t21.5 -16z" />
    <glyph glyph-name="Lcaron" unicode="&#x13d;" horiz-adv-x="400" 
d="M295 683l-55 -107h-34l43 107h46zM324 32v-32h-248v612h35v-580h213z" />
    <glyph glyph-name="lcaron" unicode="&#x13e;" horiz-adv-x="377" 
d="M275 612h-36l51 126h50zM239 10q-32 -21 -74 -21q-38 0 -64.5 18.5t-39.5 49.5t-18.5 61t-5.5 62v520h33l1 -520q0 -28 4 -53t13 -50t28.5 -40t47.5 -15q36 0 62 17z" />
    <glyph glyph-name="Ldot" unicode="&#x13f;" horiz-adv-x="400" 
d="M324 32v-32h-248v612h35v-580h213zM259 351q17 0 30.5 -13.5t13.5 -31.5t-13.5 -31.5t-30.5 -13.5q-18 0 -31.5 13.5t-13.5 31.5q0 19 13.5 32t31.5 13z" />
    <glyph glyph-name="ldot" unicode="&#x140;" horiz-adv-x="320" 
d="M239 10q-32 -21 -74 -21q-38 0 -64.5 18.5t-39.5 49.5t-18.5 61t-5.5 62v520h33v-520q0 -63 21 -110.5t73 -47.5q36 0 62 17zM283 344q0 -18 -13.5 -31.5t-30.5 -13.5q-18 0 -31.5 13.5t-13.5 31.5q0 19 13.5 32t31.5 13q17 0 30.5 -13.5t13.5 -31.5z" />
    <glyph glyph-name="Lslash" unicode="&#x141;" horiz-adv-x="457" 
d="M169 32h212v-32h-248v305l-118 -87v43l118 86v265h36v-238l162 118v-42l-162 -119v-299z" />
    <glyph glyph-name="lslash" unicode="&#x142;" horiz-adv-x="381" 
d="M331 25l13 -29q-32 -21 -74 -21q-38 0 -64.5 18.5t-39.5 49.5t-18.5 61t-5.5 62v143l-127 -93v43l127 93v334h33v-310l156 114v-42l-155 -114v-168q0 -28 4 -53t13 -50t28.5 -40t47.5 -15q37 0 62 17z" />
    <glyph glyph-name="Nacute" unicode="&#x143;" horiz-adv-x="548" 
d="M472 612v-612h-40l-321 542v-542h-35v612h39l321 -545v545h36zM293 700h-36l51 126h50z" />
    <glyph glyph-name="nacute" unicode="&#x144;" 
d="M258 517q90 0 134.5 -55.5t44.5 -157.5v-304h-31v261q0 49 -6 85.5t-21 69t-46 50t-76 17.5q-76 0 -112 -64.5t-36 -157.5v-261h-33v506h33v-97q12 38 50.5 73t98.5 35zM267 612h-36l51 126h50z" />
    <glyph glyph-name="Ncommaaccent" unicode="&#x145;" horiz-adv-x="548" 
d="M472 612v-612h-40l-321 542v-542h-35v612h39l321 -545v545h36zM300 -84q11 -24 10 -53t-20 -55t-48 -31q0 4 -1.5 12.5t-2.5 12.5q45 8 47 65q-26 -12 -43 12q-7 12 -4 26t15 22q11 8 25.5 5t21.5 -16z" />
    <glyph glyph-name="ncommaaccent" unicode="&#x146;" 
d="M283 -84q11 -24 10 -53t-20 -55t-48 -31q-1 4 -2 12.5t-2 12.5q45 8 47 65q-26 -12 -43 12q-7 12 -4 26t14 22q12 8 26.5 5t21.5 -16zM258 517q90 0 134.5 -55.5t44.5 -157.5v-304h-31v261q0 49 -6 85.5t-21 69t-46 50t-76 17.5q-76 0 -112 -64.5t-36 -157.5v-261h-33
v506h33v-97q12 38 50.5 73t98.5 35z" />
    <glyph glyph-name="Ncaron" unicode="&#x147;" horiz-adv-x="548" 
d="M472 612v-612h-40l-321 542v-542h-35v612h39l321 -545v545h36zM274 730l46 104h34l-59 -134h-42l-59 134h34z" />
    <glyph glyph-name="ncaron" unicode="&#x148;" 
d="M258 517q90 0 134.5 -55.5t44.5 -157.5v-304h-31v261q0 49 -6 85.5t-21 69t-46 50t-76 17.5q-76 0 -112 -64.5t-36 -157.5v-261h-33v506h33v-97q12 38 50.5 73t98.5 35zM257 642l46 104h33l-59 -134h-41l-59 134h34z" />
    <glyph glyph-name="napostrophe" unicode="&#x149;" horiz-adv-x="613" 
d="M99 656q12 -24 11 -52.5t-20 -55t-48 -31.5q-1 3 -1.5 6.5t-1 6t-1 6t-1.5 6.5q46 8 48 65q-11 -5 -23.5 -1.5t-19.5 13.5q-8 12 -5 26t15 22t26 5t21 -16zM354 517q90 0 134.5 -55.5t44.5 -157.5v-304h-31v261q0 39 -3.5 69t-13 60t-25.5 49.5t-43 31.5t-64 12
q-40 0 -69.5 -19t-46 -51.5t-24.5 -70.5t-8 -81v-261h-33v506h33v-97q4 12 11 25.5t20 28.5t29.5 26.5t39.5 19.5t49 8z" />
    <glyph glyph-name="Omacron" unicode="&#x14c;" horiz-adv-x="643" 
d="M321 622q115 0 185 -92t70 -224q0 -134 -68.5 -225t-186.5 -91t-186 91t-68 225q0 132 70 224t184 92zM321 589q-103 0 -160 -81.5t-57 -201.5t57 -201.5t160 -81.5t160.5 81.5t57.5 201.5t-57.5 201.5t-160.5 81.5zM500 731v-32h-359v32h359z" />
    <glyph glyph-name="omacron" unicode="&#x14d;" horiz-adv-x="550" 
d="M275 516q96 0 158.5 -74t62.5 -189t-63 -189t-158 -74t-158 74t-63 189t62.5 189t158.5 74zM275 484q-79 0 -133.5 -70.5t-54.5 -160.5q0 -89 55 -160t133 -71q47 0 84.5 23.5t59 59.5t33 74.5t11.5 73.5q0 92 -52 161.5t-136 69.5zM455 644v-32h-359v32h359z" />
    <glyph glyph-name="Obreve" unicode="&#x14e;" horiz-adv-x="643" 
d="M321 622q115 0 185 -92t70 -224q0 -134 -68.5 -225t-186.5 -91t-186 91t-68 225q0 132 70 224t184 92zM321 589q-103 0 -160 -81.5t-57 -201.5t57 -201.5t160 -81.5t160.5 81.5t57.5 201.5t-57.5 201.5t-160.5 81.5zM320 728q21 0 36.5 16.5t15.5 35.5h36
q0 -37 -25.5 -62.5t-61.5 -25.5q-37 0 -62.5 25.5t-25.5 62.5h36q0 -20 15 -36t36 -16z" />
    <glyph glyph-name="obreve" unicode="&#x14f;" horiz-adv-x="550" 
d="M275 516q96 0 158.5 -74t62.5 -189t-63 -189t-158 -74t-158 74t-63 189t62.5 189t158.5 74zM275 484q-79 0 -133.5 -70.5t-54.5 -160.5q0 -89 55 -160t133 -71q47 0 84.5 23.5t59 59.5t33 74.5t11.5 73.5q0 92 -52 161.5t-136 69.5zM275 648q21 0 36.5 16.5t15.5 35.5h36
q0 -37 -25.5 -62.5t-61.5 -25.5q-37 0 -62.5 25.5t-25.5 62.5h36q0 -20 15 -36t36 -16z" />
    <glyph glyph-name="Ohungarumlaut" unicode="&#x150;" horiz-adv-x="643" 
d="M321 622q115 0 185 -92t70 -224q0 -134 -68.5 -225t-186.5 -91t-186 91t-68 225q0 132 70 224t184 92zM321 589q-103 0 -160 -81.5t-57 -201.5t57 -201.5t160 -81.5t160.5 81.5t57.5 201.5t-57.5 201.5t-160.5 81.5zM241 700h-36l44 126h57zM420 700h-36l44 126h57z" />
    <glyph glyph-name="ohungarumlaut" unicode="&#x151;" horiz-adv-x="550" 
d="M275 516q96 0 158.5 -74t62.5 -189t-63 -189t-158 -74t-158 74t-63 189t62.5 189t158.5 74zM275 484q-79 0 -133.5 -70.5t-54.5 -160.5q0 -89 55 -160t133 -71q47 0 84.5 23.5t59 59.5t33 74.5t11.5 73.5q0 92 -52 161.5t-136 69.5zM196 612h-36l44 126h57zM375 612h-36
l44 126h57z" />
    <glyph glyph-name="OE" unicode="&#x152;" horiz-adv-x="966" 
d="M890 580h-315v-238h257v-32h-257v-278h315v-32h-350v146q-32 -68 -88 -107t-131 -39q-118 0 -186 91t-68 225q0 132 69.5 224t184.5 92q73 0 129.5 -40t89.5 -108v128h350v-32zM321 33q103 0 160.5 81.5t57.5 201.5t-57.5 201.5t-160.5 81.5t-160.5 -81.5t-57.5 -201.5
t57.5 -201.5t160.5 -81.5z" />
    <glyph glyph-name="oe" unicode="&#x153;" horiz-adv-x="907" 
d="M275 484q-79 0 -133.5 -70.5t-54.5 -160.5q0 -89 55 -160t133 -71q47 0 84.5 23.5t59 59.5t33 74.5t11.5 73.5q0 92 -52 161.5t-136 69.5zM668 485q-46 0 -80.5 -18t-53.5 -48t-28 -62t-9 -66h323q0 85 -36 139.5t-116 54.5zM668 517q85 0 135 -58t50 -168v-32h-357
q0 -59 21.5 -112.5t65.5 -89t100 -35.5q40 0 74 13.5t49 26.5l14 14l20 -27q-2 -2 -6.5 -6t-19 -14.5t-31.5 -18t-43.5 -14t-55.5 -6.5q-49 0 -90.5 20.5t-69.5 56t-44 83.5q-24 -73 -79 -116.5t-126 -43.5q-62 0 -112.5 33.5t-79.5 93.5t-29 136q0 115 62.5 189t158.5 74
q46 0 86 -18t69.5 -51.5t46.5 -79.5q20 69 68 109.5t123 40.5z" />
    <glyph glyph-name="Racute" unicode="&#x154;" horiz-adv-x="567" 
d="M274 700h-36l50 126h50zM500 0h-43l-178 287h-168v-287h-35v612h241q63 0 106.5 -48.5t43.5 -112.5q0 -63 -42.5 -113.5t-102.5 -50.5zM111 580v-261h206q44 0 79 40t35 91q0 53 -34.5 91.5t-80.5 38.5h-205z" />
    <glyph glyph-name="racute" unicode="&#x155;" horiz-adv-x="326" 
d="M258 484q-53 0 -87.5 -34t-48 -82t-13.5 -107v-261h-33v506h33v-97q12 38 50.5 73t98.5 35q24 0 47 -5l-15 -32q-13 4 -32 4zM191 612h-36l51 126h50z" />
    <glyph glyph-name="Rcommaaccent" unicode="&#x156;" horiz-adv-x="567" 
d="M273 -84q22 -32 4.5 -82t-61.5 -57q-1 4 -2.5 12.5t-2.5 12.5q44 8 48 65q-28 -12 -43 12q-8 12 -5 26t15 22t26 5t21 -16zM457 0l-178 287h-168v-287h-35v612h241q63 0 106.5 -48.5t43.5 -112.5q0 -63 -42.5 -113.5t-102.5 -50.5l178 -287h-43zM111 580v-261h206
q44 0 79 40t35 91q0 53 -34.5 91.5t-80.5 38.5h-205z" />
    <glyph glyph-name="rcommaaccent" unicode="&#x157;" horiz-adv-x="326" 
d="M180 -84q11 -24 10 -53t-20 -55t-48 -31q0 4 -1.5 12.5t-2.5 12.5q45 8 47 65q-26 -12 -43 12q-7 12 -4 26t15 22t26 5t21 -16zM290 480q-13 4 -32 4q-53 0 -87.5 -34t-48 -82t-13.5 -107v-261h-33v506h33v-97q12 38 50.5 73t98.5 35q24 0 47 -5z" />
    <glyph glyph-name="Rcaron" unicode="&#x158;" horiz-adv-x="567" 
d="M240 730l46 104h33l-59 -134h-41l-59 134h34zM457 0l-178 287h-168v-287h-35v612h241q63 0 106.5 -48.5t43.5 -112.5q0 -63 -42.5 -113.5t-102.5 -50.5l178 -287h-43zM111 580v-261h206q44 0 79 40t35 91q0 53 -34.5 91.5t-80.5 38.5h-205z" />
    <glyph glyph-name="rcaron" unicode="&#x159;" horiz-adv-x="326" 
d="M258 484q-53 0 -87.5 -34t-48 -82t-13.5 -107v-261h-33v506h33v-97q12 38 50.5 73t98.5 35q24 0 47 -5l-15 -32q-13 4 -32 4zM171 642l46 104h33l-59 -134h-41l-59 134h34z" />
    <glyph glyph-name="Sacute" unicode="&#x15a;" horiz-adv-x="499" 
d="M260 700h-36l51 126h50zM432 165q0 -83 -53 -129t-133 -46q-47 0 -96.5 18.5t-82.5 43.5l21 31q30 -23 73 -40.5t83 -17.5q78 0 115.5 43t37.5 94q0 46 -32.5 78.5t-79 51.5t-93 38.5t-79 52.5t-32.5 80q0 66 49 112.5t146 46.5q87 0 137 -46l-14 -31q-51 42 -121 42
q-63 0 -112 -30.5t-49 -92.5q0 -31 23.5 -55t58.5 -38t75.5 -32.5t75.5 -38t58.5 -54.5t23.5 -81z" />
    <glyph glyph-name="sacute" unicode="&#x15b;" horiz-adv-x="426" 
d="M370 135q0 -72 -47.5 -108.5t-112.5 -36.5q-37 0 -75.5 13.5t-58.5 26.5l-20 14l20 29q7 -6 19.5 -14.5t47.5 -22.5t66 -14q57 0 92 31t35 79q0 37 -27.5 63t-67 42l-79 32t-67 44t-27.5 68q0 56 45 96.5t114 39.5q40 0 72.5 -11t44.5 -22l13 -11l-17 -28q-46 39 -114 40
q-48 1 -85.5 -29.5t-37.5 -72.5q0 -31 27.5 -53t66.5 -37t78.5 -32.5t67 -49t27.5 -76.5zM227 612h-36l51 126h50z" />
    <glyph glyph-name="Scircumflex" unicode="&#x15c;" horiz-adv-x="499" 
d="M249 804l-47 -104h-33l59 134h42l59 -134h-33zM432 165q0 -83 -53 -129t-133 -46q-47 0 -96.5 18.5t-82.5 43.5l21 31q30 -23 73 -40.5t83 -17.5q78 0 115.5 43t37.5 94q0 46 -32.5 78.5t-79 51.5t-93 38.5t-79 52.5t-32.5 80q0 66 49 112.5t146 46.5q87 0 137 -46
l-14 -31q-51 42 -121 42q-63 0 -112 -30.5t-49 -92.5q0 -31 23.5 -55t58.5 -38t75.5 -32.5t75.5 -38t58.5 -54.5t23.5 -81z" />
    <glyph glyph-name="scircumflex" unicode="&#x15d;" horiz-adv-x="426" 
d="M370 135q0 -72 -47.5 -108.5t-112.5 -36.5q-37 0 -75.5 13.5t-58.5 26.5l-20 14l20 29q7 -6 19.5 -14.5t47.5 -22.5t66 -14q57 0 92 31t35 79q0 37 -27.5 63t-67 42l-79 32t-67 44t-27.5 68q0 56 45 96.5t114 39.5q40 0 72.5 -11t44.5 -22l13 -11l-17 -28q-46 39 -114 40
q-48 1 -85.5 -29.5t-37.5 -72.5q0 -31 27.5 -53t66.5 -37t78.5 -32.5t67 -49t27.5 -76.5zM227 716l-47 -104h-33l59 134h42l59 -134h-33z" />
    <glyph glyph-name="Scedilla" unicode="&#x15e;" horiz-adv-x="499" 
d="M117 464q0 -31 23.5 -55t58.5 -38t75.5 -32.5t75.5 -38t58.5 -54.5t23.5 -81q0 -79 -47.5 -124t-121.5 -51l-51 -126h-50l64 127q-90 8 -159 61l21 31q30 -23 73 -40.5t83 -17.5q78 0 115.5 43t37.5 94q0 46 -32.5 78.5t-79 51.5t-93 38.5t-79 52.5t-32.5 80
q0 66 49 112.5t146 46.5q87 0 137 -46l-14 -31q-51 42 -121 42q-63 0 -112 -30.5t-49 -92.5z" />
    <glyph glyph-name="scedilla" unicode="&#x15f;" horiz-adv-x="426" 
d="M370 134q0 -66 -40 -102t-100 -42l-51 -127h-50l64 127q-34 3 -68 16t-51 25l-18 12l20 29q7 -6 19.5 -14.5t47.5 -22.5t66 -14q57 0 92 31t35 79q0 37 -27.5 63t-67 42l-79 32t-67 44t-27.5 68q0 56 45 96.5t114 39.5q40 0 72.5 -11t44.5 -22l13 -11l-17 -28
q-46 39 -114 40q-48 1 -85.5 -29.5t-37.5 -72.5q0 -31 27.5 -53t66.5 -37t78.5 -32.5t67 -49t27.5 -76.5z" />
    <glyph glyph-name="Scaron" unicode="&#x160;" horiz-adv-x="499" 
d="M250 730l46 104h33l-59 -134h-41l-59 134h34zM432 165q0 -83 -53 -129t-133 -46q-47 0 -96.5 18.5t-82.5 43.5l21 31q30 -23 73 -40.5t83 -17.5q78 0 115.5 43t37.5 94q0 46 -32.5 78.5t-79 51.5t-93 38.5t-79 52.5t-32.5 80q0 66 49 112.5t146 46.5q87 0 137 -46
l-14 -31q-51 42 -121 42q-63 0 -112 -30.5t-49 -92.5q0 -31 23.5 -55t58.5 -38t75.5 -32.5t75.5 -38t58.5 -54.5t23.5 -81z" />
    <glyph glyph-name="scaron" unicode="&#x161;" horiz-adv-x="426" 
d="M370 135q0 -72 -47.5 -108.5t-112.5 -36.5q-37 0 -75.5 13.5t-58.5 26.5l-20 14l20 29q7 -6 19.5 -14.5t47.5 -22.5t66 -14q57 0 92 31t35 79q0 37 -27.5 63t-67 42l-79 32t-67 44t-27.5 68q0 56 45 96.5t114 39.5q40 0 72.5 -11t44.5 -22l13 -11l-17 -28q-46 39 -114 40
q-48 1 -85.5 -29.5t-37.5 -72.5q0 -31 27.5 -53t66.5 -37t78.5 -32.5t67 -49t27.5 -76.5zM227 641l46 104h33l-59 -134h-41l-59 134h34z" />
    <glyph glyph-name="Tcommaaccent" unicode="&#x162;" horiz-adv-x="594" 
d="M338 -85q22 -32 4.5 -82t-61.5 -57q-1 4 -2.5 12.5t-2.5 12.5q46 8 48 64q-11 -5 -23.5 -1.5t-19.5 14.5q-8 12 -5 25.5t15 21.5t26 5t21 -15zM315 580v-580h-36v580h-212v32h460v-32h-212z" />
    <glyph glyph-name="tcommaaccent" unicode="&#x163;" horiz-adv-x="321" 
d="M208 -84q11 -24 10 -53t-20 -55t-48 -31q-1 4 -2.5 12.5t-2.5 12.5q46 8 48 65q-11 -5 -23.5 -1.5t-19.5 13.5q-8 12 -5 26t15 22t26.5 5t21.5 -16zM271 40l13 -29q-32 -21 -74 -21q-38 0 -64.5 19t-40 49.5t-19 60.5t-5.5 62v293h-66v32h66v148h33l1 -148h153v-32h-153
l1 -293q0 -28 4 -53t13 -50t28.5 -40t47.5 -15q10 0 19.5 1.5t16.5 4t12.5 5t9.5 4.5z" />
    <glyph glyph-name="Tcaron" unicode="&#x164;" horiz-adv-x="594" 
d="M279 580h-212v32h460v-32h-212v-580h-36v580zM297 730l46 104h33l-59 -134h-41l-59 134h34z" />
    <glyph glyph-name="tcaron" unicode="&#x165;" horiz-adv-x="414" 
d="M271 40l13 -29q-32 -21 -74 -21q-38 0 -64.5 19t-40 49.5t-19 60.5t-5.5 62v293h-66v32h66v148h33l1 -148h153v-32h-153l1 -293q0 -28 4 -53t13 -50t28.5 -40t47.5 -15q10 0 19.5 1.5t16.5 4t12.5 5t9.5 4.5zM334 612h-36l51 126h50z" />
    <glyph glyph-name="Tbar" unicode="&#x166;" horiz-adv-x="594" 
d="M527 580h-212v-163h161v-32h-161v-385h-36v385h-162v32h162v163h-212v32h460v-32z" />
    <glyph glyph-name="tbar" unicode="&#x167;" horiz-adv-x="321" 
d="M271 40l13 -29q-32 -21 -74 -21q-38 0 -64.5 19t-40 49.5t-19 60.5t-5.5 62v99h-66v32h66v162h-66v32h66v148h33l1 -148h153v-32h-153v-162h147v-32h-147l1 -99q0 -28 4 -53t13 -50t28.5 -40t47.5 -15q10 0 19.5 1.5t16.5 4t12.5 5t9.5 4.5z" />
    <glyph glyph-name="Utilde" unicode="&#x168;" 
d="M258 -10q-81 0 -139.5 60.5t-58.5 142.5v419h36v-419q0 -67 48 -117t114 -50q67 0 115 50t48 117v419h36v-419q0 -82 -58.5 -142.5t-140.5 -60.5zM120 687l-30 16q40 62 107 62q37 0 71 -16t64 -16q41 0 62 35l31 -14q-32 -54 -93 -54q-39 0 -73 15.5t-63 15.5
q-52 0 -76 -44z" />
    <glyph glyph-name="utilde" unicode="&#x169;" horiz-adv-x="519" 
d="M261 -11q-90 0 -134.5 55.5t-45.5 157.5l-1 304h33v-261q0 -49 6 -85.5t21 -69t45.5 -50t75.5 -17.5q53 0 87.5 33.5t48 81.5t13.5 107l1 261h32v-506h-32v97q-12 -38 -51 -73t-99 -35zM123 600l-30 16q40 62 107 62q37 0 71 -16t64 -16q41 0 62 35l31 -14
q-32 -54 -93 -54q-39 0 -73 15.5t-63 15.5q-52 0 -76 -44z" />
    <glyph glyph-name="Umacron" unicode="&#x16a;" 
d="M258 -10q-81 0 -139.5 60.5t-58.5 142.5v419h36v-419q0 -67 48 -117t114 -50q67 0 115 50t48 117v419h36v-419q0 -82 -58.5 -142.5t-140.5 -60.5zM437 731v-32h-359v32h359z" />
    <glyph glyph-name="umacron" unicode="&#x16b;" horiz-adv-x="519" 
d="M261 -11q-90 0 -134.5 55.5t-45.5 157.5l-1 304h33v-261q0 -49 6 -85.5t21 -69t45.5 -50t75.5 -17.5q53 0 87.5 33.5t48 81.5t13.5 107l1 261h32v-506h-32v97q-12 -38 -51 -73t-99 -35zM443 644v-32h-359v32h359z" />
    <glyph glyph-name="Ubreve" unicode="&#x16c;" 
d="M258 -10q-81 0 -139.5 60.5t-58.5 142.5v419h36v-419q0 -67 48 -117t114 -50q67 0 115 50t48 117v419h36v-419q0 -82 -58.5 -142.5t-140.5 -60.5zM257 722q21 0 36.5 16.5t15.5 35.5h36q0 -37 -25.5 -62.5t-61.5 -25.5q-37 0 -62.5 25.5t-25.5 62.5h36q0 -20 15 -36
t36 -16z" />
    <glyph glyph-name="ubreve" unicode="&#x16d;" horiz-adv-x="519" 
d="M261 -11q-90 0 -134.5 55.5t-45.5 157.5l-1 304h33v-261q0 -49 6 -85.5t21 -69t45.5 -50t75.5 -17.5q53 0 87.5 33.5t48 81.5t13.5 107l1 261h32v-506h-32v97q-12 -38 -51 -73t-99 -35zM260 634q21 0 36.5 16.5t15.5 35.5h36q0 -37 -25.5 -62.5t-61.5 -25.5
q-37 0 -62.5 25.5t-25.5 62.5h36q0 -20 15 -36t36 -16z" />
    <glyph glyph-name="Uring" unicode="&#x16e;" 
d="M258 -10q-81 0 -139.5 60.5t-58.5 142.5v419h36v-419q0 -67 48 -117t114 -50q67 0 115 50t48 117v419h36v-419q0 -82 -58.5 -142.5t-140.5 -60.5zM258 861q36 0 61.5 -25t25.5 -61q0 -37 -25.5 -62.5t-61.5 -25.5q-37 0 -62.5 25.5t-25.5 62.5q0 36 25.5 61t62.5 25z
M257 825q-21 0 -36 -15.5t-15 -34.5q0 -20 15 -36t36 -16t36.5 16.5t15.5 35.5t-15.5 34.5t-36.5 15.5z" />
    <glyph glyph-name="uring" unicode="&#x16f;" horiz-adv-x="519" 
d="M261 -11q-90 0 -134.5 55.5t-45.5 157.5l-1 304h33v-261q0 -49 6 -85.5t21 -69t45.5 -50t75.5 -17.5q53 0 87.5 33.5t48 81.5t13.5 107l1 261h32v-506h-32v97q-12 -38 -51 -73t-99 -35zM261 770q36 0 61.5 -25t25.5 -61q0 -37 -25.5 -62.5t-61.5 -25.5q-37 0 -62.5 25.5
t-25.5 62.5q0 36 25.5 61t62.5 25zM260 734q-21 0 -36 -15.5t-15 -34.5q0 -20 15 -36t36 -16t36.5 16.5t15.5 35.5t-15.5 34.5t-36.5 15.5z" />
    <glyph glyph-name="Uhungarumlaut" unicode="&#x170;" 
d="M258 -10q-81 0 -139.5 60.5t-58.5 142.5v419h36v-419q0 -67 48 -117t114 -50q67 0 115 50t48 117v419h36v-419q0 -82 -58.5 -142.5t-140.5 -60.5zM182 700h-36l44 126h57zM361 700h-36l44 126h57z" />
    <glyph glyph-name="uhungarumlaut" unicode="&#x171;" horiz-adv-x="519" 
d="M261 -11q-90 0 -134.5 55.5t-45.5 157.5l-1 304h33v-261q0 -49 6 -85.5t21 -69t45.5 -50t75.5 -17.5q53 0 87.5 33.5t48 81.5t13.5 107l1 261h32v-506h-32v97q-12 -38 -51 -73t-99 -35zM181 612h-36l44 126h57zM360 612h-36l44 126h57z" />
    <glyph glyph-name="Uogonek" unicode="&#x172;" 
d="M421 612h36v-419q0 -65 -38.5 -119t-99.5 -74q-41 -31 -41 -79q0 -24 14 -40t41 -16q7 0 15 3t12.5 6.5t5.5 4.5l16 -25q-20 -20 -58 -20t-59 25.5t-21 56.5q0 40 25 74h-11q-81 0 -139.5 60.5t-58.5 142.5v419h36v-419q0 -67 48 -117t114 -50q67 0 115 50t48 117v419z
" />
    <glyph glyph-name="uogonek" unicode="&#x173;" horiz-adv-x="522" 
d="M490 -114l16 -26q-22 -20 -58 -20q-37 0 -58.5 25.5t-21.5 55.5q0 19 4.5 34.5t11 25t12.5 16t11 8.5l4 3v89q-12 -38 -51 -73t-99 -35q-90 0 -134.5 55.5t-45.5 157.5l-1 304h33v-261q0 -49 6 -85.5t21 -69t45.5 -50t75.5 -17.5q53 0 87.5 33.5t48 81.5t13.5 107l1 261
h32v-506q-2 -1 -4.5 -2.5t-9.5 -8t-12.5 -14t-10 -20.5t-4.5 -28q0 -24 14 -40t41 -16q7 0 15.5 4t12.5 7z" />
    <glyph glyph-name="Wcircumflex" unicode="&#x174;" horiz-adv-x="997" 
d="M907 612h40l-216 -612h-37l-196 553l-195 -553h-37l-216 612h39l195 -550l194 546h40l195 -546zM498 801l-47 -104h-33l59 134h42l59 -134h-33z" />
    <glyph glyph-name="wcircumflex" unicode="&#x175;" horiz-adv-x="815" 
d="M737 506h35l-174 -506h-34l-156 452l-157 -452h-34l-174 506h35l156 -440l156 436h35l156 -436zM407 716l-47 -104h-33l59 134h42l59 -134h-33z" />
    <glyph glyph-name="Ycircumflex" unicode="&#x176;" horiz-adv-x="546" 
d="M455 612h41l-205 -308v-304h-36v304l-205 308h41l182 -270zM273 803l-47 -104h-33l59 134h42l59 -134h-33z" />
    <glyph glyph-name="ycircumflex" unicode="&#x177;" horiz-adv-x="457" 
d="M116 -181q-21 0 -44.5 9.5t-28.5 15.5l18 26l5 -2q4 -3 9 -6t11.5 -5.5t14 -4.5t14.5 -2q31 0 56 39t35 77l10 39l-173 501h35l156 -440l156 440h35l-173 -499q-3 -10 -11.5 -37.5t-13.5 -43t-16 -39t-23 -36t-30.5 -22.5t-41.5 -10zM234 716l-47 -104h-33l59 134h42
l59 -134h-33z" />
    <glyph glyph-name="Ydieresis" unicode="&#x178;" horiz-adv-x="546" 
d="M455 612h41l-205 -308v-304h-36v304l-205 308h41l182 -270zM166 764q14 0 24 -10.5t10 -24.5t-10 -24t-24 -10t-24 10t-10 24t10 24.5t24 10.5zM379 764q14 0 24 -10.5t10 -24.5t-10 -24t-24 -10t-24.5 10t-10.5 24t10.5 24.5t24.5 10.5z" />
    <glyph glyph-name="Zacute" unicode="&#x179;" horiz-adv-x="548" 
d="M472 612v-32l-356 -548h356v-32h-397v32l355 548h-339v32h381zM290 700h-36l51 126h50z" />
    <glyph glyph-name="zacute" unicode="&#x17a;" horiz-adv-x="444" 
d="M396 506v-33l-313 -440h320v-33h-362v33l313 440h-293v33h335zM237 612h-36l51 126h50z" />
    <glyph glyph-name="Zdotaccent" unicode="&#x17b;" horiz-adv-x="548" 
d="M472 612v-32l-356 -548h356v-32h-397v32l355 548h-339v32h381zM273 778q17 0 30.5 -13t13.5 -32q0 -18 -13.5 -31.5t-30.5 -13.5q-18 0 -31.5 13.5t-13.5 31.5q0 19 13.5 32t31.5 13z" />
    <glyph glyph-name="zdotaccent" unicode="&#x17c;" horiz-adv-x="444" 
d="M396 506v-33l-313 -440h320v-33h-362v33l313 440h-293v33h335zM223 700q17 0 30.5 -13t13.5 -32q0 -18 -13.5 -31.5t-30.5 -13.5q-18 0 -31.5 13.5t-13.5 31.5q0 19 13.5 32t31.5 13z" />
    <glyph glyph-name="Zcaron" unicode="&#x17d;" horiz-adv-x="548" 
d="M472 612v-32l-356 -548h356v-32h-397v32l355 548h-339v32h381zM283 730l46 104h33l-59 -134h-41l-59 134h34z" />
    <glyph glyph-name="zcaron" unicode="&#x17e;" horiz-adv-x="444" 
d="M396 506v-33l-313 -440h320v-33h-362v33l313 440h-293v33h335zM223 642l46 104h33l-59 -134h-41l-59 134h34z" />
    <glyph glyph-name="AEacute" unicode="&#x1fc;" horiz-adv-x="710" 
d="M388 701h-36l51 126h50zM634 580h-315v-238h257v-33h-257v-277h315v-32h-350v186h-130l-65 -186h-39l215 612h369v-32zM284 218v338l-118 -338h118z" />
    <glyph glyph-name="aeacute" unicode="&#x1fd;" horiz-adv-x="807" 
d="M210 328q46 0 92 -17t60 -34v1q0 102 -33 154t-108 52q-34 0 -67 -13.5t-48 -25t-22 -19.5l-14 30q21 21 61.5 41t89.5 20q70 0 107.5 -33.5t53.5 -97.5q22 61 68.5 96t116.5 35q86 0 136 -58t50 -168v-32h-358q0 -93 52 -165t136 -72q40 0 74 13.5t49 26.5l14 14l20 -27
q-6 -7 -18 -16.5t-53 -26t-86 -16.5q-113 0 -175 98q-32 -42 -87 -70t-109 -28q-75 0 -123.5 46.5t-48.5 126.5q0 71 51.5 118t118.5 47zM212 297q-50 0 -93 -38.5t-43 -94.5q0 -65 39.5 -104.5t96.5 -39.5q51 0 101 29t80 67q-25 52 -30 119q-70 62 -151 62zM396 291h323
q0 85 -36 139.5t-116 54.5q-46 0 -80.5 -18t-53.5 -48t-28 -62t-9 -66zM327 612h-36l51 126h50z" />
    <glyph glyph-name="Scommaaccent" unicode="&#x218;" horiz-adv-x="499" 
d="M276 -84q11 -24 10 -53t-20 -55t-48 -31q0 4 -1.5 12.5t-2.5 12.5q45 8 47 65q-26 -12 -43 12q-7 12 -4 26t15 22t26 5t21 -16zM67 52l21 31q30 -23 73 -40.5t83 -17.5q78 0 115.5 43t37.5 94q0 46 -32.5 78.5t-79 51.5t-93 38.5t-79 52.5t-32.5 80q0 66 49 112.5
t146 46.5q87 0 137 -46l-14 -31q-51 42 -121 42q-63 0 -112 -30.5t-49 -92.5q0 -31 23.5 -55t58.5 -38t75.5 -32.5t75.5 -38t58.5 -54.5t23.5 -81q0 -83 -53 -129t-133 -46q-47 0 -96.5 18.5t-82.5 43.5z" />
    <glyph glyph-name="scommaaccent" unicode="&#x219;" horiz-adv-x="426" 
d="M239 -84q22 -32 4.5 -82t-61.5 -57q-1 4 -2.5 12.5t-2.5 12.5q46 8 48 65q-11 -5 -23.5 -1.5t-19.5 13.5q-8 12 -5 26t15 22t26 5t21 -16zM210 -10q-37 0 -75.5 13.5t-58.5 26.5l-20 14l20 29q7 -6 19.5 -14.5t47.5 -22.5t66 -14q57 0 92 31t35 79q0 37 -27.5 63t-67 42
l-79 32t-67 44t-27.5 68q0 56 45 96.5t114 39.5q40 0 72.5 -11t44.5 -22l13 -11l-17 -28q-46 39 -114 40q-48 1 -85.5 -29.5t-37.5 -72.5q0 -31 27.5 -53t66.5 -37t78.5 -32.5t67 -49t27.5 -76.5q0 -72 -47.5 -108.5t-112.5 -36.5z" />
    <glyph glyph-name="circumflex" unicode="&#x2c6;" horiz-adv-x="546" 
d="M273 716l-47 -104h-33l59 134h42l59 -134h-33z" />
    <glyph glyph-name="caron" unicode="&#x2c7;" horiz-adv-x="546" 
d="M231 641l46 104h33l-59 -134h-41l-59 134h34z" />
    <glyph glyph-name="breve" unicode="&#x2d8;" horiz-adv-x="546" 
d="M273 612q21 0 36.5 16.5t15.5 35.5h36q0 -37 -25.5 -62.5t-61.5 -25.5q-37 0 -62.5 25.5t-25.5 62.5h36q0 -20 15 -36t36 -16z" />
    <glyph glyph-name="dotaccent" unicode="&#x2d9;" horiz-adv-x="546" 
d="M258 700q18 0 31 -13t13 -32q0 -18 -13.5 -31.5t-30.5 -13.5q-18 0 -31.5 13.5t-13.5 31.5q0 19 13.5 32t31.5 13z" />
    <glyph glyph-name="ring" unicode="&#x2da;" horiz-adv-x="546" 
d="M278 671q36 0 61.5 -25t25.5 -61q0 -37 -25.5 -62.5t-61.5 -25.5q-37 0 -62.5 25.5t-25.5 62.5q0 36 25.5 61t62.5 25zM277 635q-21 0 -36 -15.5t-15 -34.5q0 -20 15 -36t36 -16t36.5 16.5t15.5 35.5t-15.5 34.5t-36.5 15.5z" />
    <glyph glyph-name="ogonek" unicode="&#x2db;" horiz-adv-x="546" 
d="M315 -119l16 -25q-20 -20 -58 -20t-59 25.5t-21 56.5q0 25 10 47.5t18 31.5t13 13l34 -8q-41 -31 -41 -79q0 -24 14 -40t42 -16q7 0 14.5 3t12 6.5t5.5 4.5z" />
    <glyph glyph-name="tilde" unicode="&#x2dc;" horiz-adv-x="546" 
d="M126 654l-30 16q40 62 107 62q37 0 71 -16t64 -16q41 0 62 35l31 -14q-32 -54 -93 -54q-39 0 -73 15.5t-63 15.5q-52 0 -76 -44z" />
    <glyph glyph-name="hungarumlaut" unicode="&#x2dd;" horiz-adv-x="546" 
d="M170 574h-36l44 126h57zM349 574h-36l44 126h57z" />
    <glyph glyph-name="Wgrave" unicode="&#x1e80;" horiz-adv-x="997" 
d="M907 612h40l-216 -612h-37l-196 553l-195 -553h-37l-216 612h39l195 -550l194 546h40l195 -546zM460 826l51 -126h-36l-65 126h50z" />
    <glyph glyph-name="wgrave" unicode="&#x1e81;" horiz-adv-x="815" 
d="M737 506h35l-174 -506h-34l-156 452l-157 -452h-34l-174 506h35l156 -440l156 436h35l156 -436zM374 738l51 -126h-36l-65 126h50z" />
    <glyph glyph-name="Wacute" unicode="&#x1e82;" horiz-adv-x="997" 
d="M907 612h40l-216 -612h-37l-196 553l-195 -553h-37l-216 612h39l195 -550l194 546h40l195 -546zM515 701h-36l51 126h50z" />
    <glyph glyph-name="wacute" unicode="&#x1e83;" horiz-adv-x="815" 
d="M737 506h35l-174 -506h-34l-156 452l-157 -452h-34l-174 506h35l156 -440l156 436h35l156 -436zM424 612h-36l51 126h50z" />
    <glyph glyph-name="Wdieresis" unicode="&#x1e84;" horiz-adv-x="997" 
d="M392 763q14 0 24 -10.5t10 -24.5t-10 -24t-24 -10t-24 10t-10 24t10 24.5t24 10.5zM605 763q14 0 24 -10.5t10 -24.5t-10 -24t-24 -10t-24.5 10t-10.5 24t10.5 24.5t24.5 10.5zM907 612h40l-216 -612h-37l-196 553l-195 -553h-37l-216 612h39l195 -550l194 546h40
l195 -546z" />
    <glyph glyph-name="wdieresis" unicode="&#x1e85;" horiz-adv-x="815" 
d="M737 506h35l-174 -506h-34l-156 452l-157 -452h-34l-174 506h35l156 -440l156 436h35l156 -436zM301 713q14 0 24 -10.5t10 -24.5t-10 -24t-24 -10t-24 10t-10 24t10 24.5t24 10.5zM514 713q14 0 24 -10.5t10 -24.5t-10 -24t-24 -10t-24.5 10t-10.5 24t10.5 24.5
t24.5 10.5z" />
    <glyph glyph-name="Ygrave" unicode="&#x1ef2;" horiz-adv-x="546" 
d="M455 612h41l-205 -308v-304h-36v304l-205 308h41l182 -270zM258 828l51 -126h-36l-65 126h50z" />
    <glyph glyph-name="ygrave" unicode="&#x1ef3;" horiz-adv-x="457" 
d="M116 -181q-21 0 -44.5 9.5t-28.5 15.5l18 26l5 -2q4 -3 9 -6t11.5 -5.5t14 -4.5t14.5 -2q31 0 56 39t35 77l10 39l-173 501h35l156 -440l156 440h35l-173 -499q-3 -10 -11.5 -37.5t-13.5 -43t-16 -39t-23 -36t-30.5 -22.5t-41.5 -10zM189 738l51 -126h-36l-65 126h50z
" />
    <glyph glyph-name="endash" unicode="&#x2013;" horiz-adv-x="548" 
d="M503 331v-32h-458v32h458z" />
    <glyph glyph-name="emdash" unicode="&#x2014;" horiz-adv-x="909" 
d="M857 331v-32h-804v32h804z" />
    <glyph glyph-name="quoteleft" unicode="&#x2018;" horiz-adv-x="211" 
d="M63 536q0 34 18.5 62t49.5 34l5 -25q-48 -8 -48 -65q10 4 15 3q14 0 24 -9.5t10 -23.5t-10 -24.5t-25 -10.5q-39 0 -39 59z" />
    <glyph glyph-name="quoteright" unicode="&#x2019;" horiz-adv-x="211" 
d="M132 606q22 -32 4.5 -81.5t-61.5 -57.5q-1 4 -2.5 12.5t-2.5 12.5q44 8 48 65q-28 -12 -43 12q-8 12 -5 26t15 22t26 5t21 -16z" />
    <glyph glyph-name="quotesinglbase" unicode="&#x201a;" horiz-adv-x="211" 
d="M132 43q22 -33 4.5 -82.5t-61.5 -57.5q-1 4 -2.5 12.5t-2.5 12.5q44 8 48 65q-28 -12 -43 12q-8 12 -5 26t15 22t26 5t21 -15z" />
    <glyph glyph-name="quotedblleft" unicode="&#x201c;" horiz-adv-x="401" 
d="M136 467q-44 8 -62 57.5t4 82.5q7 12 21.5 15t25.5 -5q12 -8 15 -22t-4 -26q-17 -24 -43 -12q2 -57 47 -65q0 -4 -1.5 -12.5t-2.5 -12.5zM297 467q-44 8 -62 57.5t4 82.5q7 12 21.5 15t25.5 -5q12 -8 15 -22t-4 -26q-17 -24 -43 -12q2 -57 47 -65q-1 -4 -2 -12.5
t-2 -12.5z" />
    <glyph glyph-name="quotedblright" unicode="&#x201d;" horiz-adv-x="265" 
d="M37 617q12 7 26 4t21 -14q22 -33 4.5 -82.5t-61.5 -57.5q-1 4 -2.5 12.5t-2.5 13.5q44 7 48 64q-26 -11 -43 13q-8 12 -5 25.5t15 21.5zM186 617q12 7 26 4t21 -14q22 -33 4.5 -82.5t-61.5 -57.5q-1 4 -2.5 12.5t-2.5 13.5q44 7 48 64q-26 -11 -43 13q-8 12 -5 25.5
t15 21.5z" />
    <glyph glyph-name="quotedblbase" unicode="&#x201e;" horiz-adv-x="265" 
d="M84 43q22 -33 4.5 -82.5t-61.5 -57.5q-1 4 -2.5 12.5t-2.5 12.5q44 8 48 65q-28 -12 -43 12q-8 12 -5 26t15 22t26 5t21 -15zM233 43q22 -33 4.5 -82.5t-61.5 -57.5q-1 4 -2.5 12.5t-2.5 12.5q44 8 48 65q-28 -12 -43 12q-8 12 -5 26t15 22t26 5t21 -15z" />
    <glyph glyph-name="dagger" unicode="&#x2020;" horiz-adv-x="457" 
d="M417 460h-172v-629h-34v629h-171v32h171v347h34v-347h172v-32z" />
    <glyph glyph-name="daggerdbl" unicode="&#x2021;" horiz-adv-x="458" 
d="M418 484h-185v-221h185v-32h-185v-400h-32v400h-160v32h160v221h-161v32h161v323h32v-323h185v-32z" />
    <glyph glyph-name="bullet" unicode="&#x2022;" horiz-adv-x="166" 
d="M132 324q0 -21 -14 -35t-35 -14t-35 14t-14 35t14 35t35 14t35 -14t14 -35z" />
    <glyph glyph-name="ellipsis" unicode="&#x2026;" horiz-adv-x="742" 
d="M102 24q0 -14 -10 -24t-24 -10t-24 10t-10 24t10 24t24 10t24 -10t10 -24zM405 24q0 -14 -10 -24t-24 -10t-24 10t-10 24t10 24t24 10t24 -10t10 -24zM708 24q0 -14 -10 -24t-24 -10t-24 10t-10 24t10 24t24 10t24 -10t10 -24z" />
    <glyph glyph-name="perthousand" unicode="&#x2030;" horiz-adv-x="1000" 
d="M180 622q56 0 91 -49t35 -114q0 -66 -34 -114.5t-92 -48.5t-92 48.5t-34 114.5q0 65 35 114t91 49zM180 332q41 0 66 39t25 88t-25 88t-66 39t-65.5 -39t-24.5 -88t24.5 -88t65.5 -39zM264 0h-39l211 612h39zM523 321q56 0 91 -49t35 -114q0 -66 -34 -114.5t-92 -48.5
t-92 48.5t-34 114.5q0 65 35 114t91 49zM523 31q41 0 66 39t25 88t-25 88t-66 39t-65.5 -39t-24.5 -88t24.5 -88t65.5 -39zM820 322q56 0 91 -49t35 -114q0 -66 -34 -114.5t-92 -48.5t-92 48.5t-34 114.5q0 65 35 114t91 49zM820 32q41 0 66 39t25 88t-25 88t-66 39
t-65.5 -39t-24.5 -88t24.5 -88t65.5 -39z" />
    <glyph glyph-name="guilsinglleft" unicode="&#x2039;" horiz-adv-x="223" 
d="M189 507l-113 -209l113 -209h-39l-116 209l116 209h39z" />
    <glyph glyph-name="guilsinglright" unicode="&#x203a;" horiz-adv-x="223" 
d="M147 297l-113 209h39l116 -209l-116 -209h-39z" />
    <glyph glyph-name="fraction" unicode="&#x2044;" horiz-adv-x="292" 
d="M271 612l-211 -612h-39l212 612h38z" />
    <glyph glyph-name="zerosuperior" unicode="&#x2070;" horiz-adv-x="309" 
d="M258 448q0 53 -26 96t-76 43t-76 -42.5t-26 -96.5q0 -53 26 -95.5t76 -42.5t76 43t26 95zM21 448q0 65 36.5 117.5t98.5 52.5q63 0 98 -52.5t35 -117.5q0 -66 -35 -117.5t-98 -51.5q-64 0 -99.5 51.5t-35.5 117.5z" />
    <glyph glyph-name="foursuperior" unicode="&#x2074;" horiz-adv-x="274" 
d="M178 557l-115 -157h115v157zM209 371v-85h-31v85h-157v25l160 217h28v-213h54v-29h-54z" />
    <glyph glyph-name="fivesuperior" unicode="&#x2075;" horiz-adv-x="250" 
d="M21 316l21 24q38 -30 76 -30q33 0 56 23.5t23 56.5q0 18 -4.5 31t-16.5 21t-21 13t-28.5 7t-27.5 2.5t-31 0t-27 -0.5l4 149h159v-29h-129l-3 -87q34 0 58 -3.5t48.5 -14t37.5 -33t13 -57.5q0 -48 -32 -79t-80 -31q-50 0 -96 37z" />
    <glyph glyph-name="sixsuperior" unicode="&#x2076;" horiz-adv-x="259" 
d="M53 385q0 -31 22.5 -53t54.5 -22t54.5 21.5t22.5 53.5t-22.5 53t-54.5 21t-54.5 -21.5t-22.5 -52.5zM21 386q0 27 18 59l99 168h37l-75 -126q17 5 30 5q45 0 76.5 -30.5t31.5 -75.5q0 -46 -30.5 -76.5t-77.5 -30.5t-78 30.5t-31 76.5z" />
    <glyph glyph-name="sevensuperior" unicode="&#x2077;" horiz-adv-x="214" 
d="M193 613v-12v-6q0 -4 -30 -73.5t-65 -149.5t-37 -85h-38l133 297h-144v29h181z" />
    <glyph glyph-name="eightsuperior" unicode="&#x2078;" horiz-adv-x="252" 
d="M53 382q0 -30 22 -51t52 -21q29 0 50.5 21t21.5 51q0 27 -22.5 49.5t-49.5 22.5q-29 0 -51.5 -22t-22.5 -50zM127 591q-23 0 -39 -16t-16 -39q0 -22 16 -37t39 -15q22 0 37 15t15 37q0 23 -15 39t-37 16zM21 382q0 27 13 51.5t36 37.5q-30 23 -30 66q0 36 25.5 60
t61.5 24q35 0 60.5 -24.5t25.5 -59.5q0 -43 -34 -66q24 -13 38 -37.5t14 -51.5q0 -44 -30 -73.5t-74 -29.5q-45 0 -75.5 29t-30.5 74z" />
    <glyph glyph-name="ninesuperior" unicode="&#x2079;" horiz-adv-x="259" 
d="M206 515q0 31 -22 53t-54 22t-54.5 -21.5t-22.5 -53.5t22.5 -53.5t54.5 -21.5t54 21.5t22 53.5zM238 515q0 -25 -19 -60l-98 -168h-37l75 125q-13 -4 -29 -4q-46 0 -77.5 30.5t-31.5 76.5t31 76t78 30q46 0 77 -30t31 -76z" />
    <glyph glyph-name="parenleftsuperior" unicode="&#x207d;" horiz-adv-x="163" 
d="M140 301l3 -2l-22 -27l-3 2q-44 32 -70.5 80.5t-26.5 101.5t27 101.5t71 82.5l2 2l22 -29l-3 -2q-84 -62 -84 -155q0 -90 84 -155z" />
    <glyph glyph-name="parenrightsuperior" unicode="&#x207e;" horiz-adv-x="163" 
d="M21 301l3 2q84 65 84 155q0 92 -84 155l-3 2l21 29l3 -2q44 -34 71 -82.5t27 -101.5t-27 -102t-71 -80l-2 -2z" />
    <glyph glyph-name="zeroinferior" unicode="&#x2080;" horiz-adv-x="309" 
d="M257 163q0 52 -25.5 94.5t-75.5 42.5t-76.5 -42t-26.5 -95t26.5 -95.5t76.5 -42.5t75.5 42.5t25.5 95.5zM21 163q0 65 36 117t99 52q62 0 97.5 -52t35.5 -117q0 -66 -35 -118t-98 -52q-64 0 -99.5 51.5t-35.5 118.5z" />
    <glyph glyph-name="oneinferior" unicode="&#x2081;" horiz-adv-x="144" 
d="M115 327v-327h-33v289l-53 -27l-11 29l68 36h29z" />
    <glyph glyph-name="twoinferior" unicode="&#x2082;" horiz-adv-x="249" 
d="M116 336q45 0 75.5 -22t30.5 -65q0 -31 -24.5 -60.5t-54 -49.5t-56 -49t-29.5 -58h171v-32h-206v23q0 38 25.5 73t56.5 56.5t56.5 47.5t25.5 49q0 27 -21 39.5t-50 12.5q-43 0 -82 -34l-13 31q37 38 95 38z" />
    <glyph glyph-name="threeinferior" unicode="&#x2083;" horiz-adv-x="255" 
d="M21 37l20 24q33 -36 84 -36q34 0 55 20t21 54q0 23 -9.5 38t-28.5 21t-34.5 7.5t-38.5 1.5v26l85 104h-138v30h182v-26l-84 -104q44 -3 71.5 -29t27.5 -69q0 -46 -32.5 -76t-78.5 -30q-26 0 -55.5 12.5t-46.5 31.5z" />
    <glyph glyph-name="fourinferior" unicode="&#x2084;" horiz-adv-x="283" 
d="M178 277l-112 -154h112v154zM209 93v-93h-31v93h-157v25l160 209h28v-206h54v-28h-54z" />
    <glyph glyph-name="fiveinferior" unicode="&#x2085;" horiz-adv-x="250" 
d="M21 30l21 25q34 -30 76 -30q33 0 56 23t23 56q0 14 -3 25t-10 19t-13.5 13.5t-19.5 9t-20.5 5.5t-23.5 2.5t-22.5 0.5t-23.5 -0.5t-21 -0.5l4 149h160v-30h-129l-4 -86q34 0 58 -3.5t49 -13.5t38 -33t13 -58q0 -48 -32 -79t-80 -31q-50 0 -96 37z" />
    <glyph glyph-name="sixinferior" unicode="&#x2086;" horiz-adv-x="259" 
d="M53 99q0 -31 23 -52.5t55 -21.5t54 21t22 53t-22 53.5t-54 21.5t-55 -21.5t-23 -53.5zM21 100q0 27 18 59l100 168h36l-75 -126q17 5 31 5q45 0 76 -30.5t31 -75.5q0 -46 -30 -76.5t-77 -30.5q-48 0 -79 30t-31 77z" />
    <glyph glyph-name="seveninferior" unicode="&#x2087;" horiz-adv-x="214" 
d="M193 327v-25l-132 -302h-36l131 295h-144v32h181z" />
    <glyph glyph-name="eightinferior" unicode="&#x2088;" horiz-adv-x="252" 
d="M53 93q0 -30 22 -50.5t52 -20.5q29 0 50.5 21t21.5 50q0 27 -22.5 50t-49.5 23q-29 0 -51.5 -22.5t-22.5 -50.5zM127 301q-23 0 -39 -15.5t-16 -37.5t16 -37.5t39 -15.5q22 0 37 15.5t15 37.5q0 23 -15 38t-37 15zM21 93q0 62 50 90q-31 22 -31 66q0 36 25.5 59.5
t61.5 23.5q35 0 60.5 -24t25.5 -59q0 -43 -34 -66q24 -13 38 -37.5t14 -52.5q0 -44 -30 -73.5t-74 -29.5q-45 0 -75.5 29t-30.5 74z" />
    <glyph glyph-name="nineinferior" unicode="&#x2089;" horiz-adv-x="259" 
d="M206 229q0 31 -22 52.5t-54 21.5t-54.5 -21.5t-22.5 -52.5q0 -32 22.5 -53.5t54.5 -21.5t54 22t22 53zM238 229q0 -30 -18 -61l-99 -168h-37l75 126q-17 -5 -29 -5q-46 0 -77.5 31t-31.5 77t31 76t78 30q45 0 76.5 -30.5t31.5 -75.5z" />
    <glyph glyph-name="parenleftinferior" unicode="&#x208d;" horiz-adv-x="163" 
d="M140 2l3 -3l-22 -27l-3 2q-44 32 -70.5 80.5t-26.5 101.5q0 54 27 102t71 82l2 2l22 -29l-3 -2q-84 -62 -84 -155q0 -91 84 -154z" />
    <glyph glyph-name="parenrightinferior" unicode="&#x208e;" horiz-adv-x="163" 
d="M21 -10l3 2q84 65 84 155q0 93 -84 155l-3 2l21 29l3 -2q44 -34 71 -82.5t27 -101.5t-27 -102t-71 -80l-2 -2z" />
    <glyph glyph-name="franc" unicode="&#x20a3;" horiz-adv-x="502" 
d="M426 580h-314v-238h256v-33h-256v-138h183v-32h-183v-139h-36v139h-61v32h61v441h350v-32z" />
    <glyph glyph-name="lira" unicode="&#x20a4;" horiz-adv-x="486" 
d="M320 586q-44 0 -76 -29t-46.5 -74t-21 -83t-6.5 -73h155v-32h-156q0 -67 -23 -159t-45 -104h287v-32h-365v32h12q40 0 69 91.5t29 171.5h-112v32h112q0 28 3.5 60t15.5 75.5t31.5 77.5t55 58t81.5 24q32 0 60 -10.5t40 -21.5l11 -10l-19 -30q-36 36 -92 36z" />
    <glyph glyph-name="Euro" unicode="&#x20ac;" horiz-adv-x="623" 
d="M388 23q88 0 150 59l18 -32q-65 -60 -168 -60q-110 0 -188 68t-104 168h-81v31h75q-4 21 -4 48q0 19 3 40h-74v31h79q24 102 103 173t191 71q103 0 168 -61l-18 -31q-63 59 -150 59q-96 0 -165 -61t-91 -150h248v-31h-255q-2 -14 -2 -40q0 -27 4 -48h253v-31h-246
q24 -86 92 -144.5t162 -58.5z" />
    <glyph glyph-name="afii61352" unicode="&#x2116;" horiz-adv-x="876" 
d="M436 611h36v-612h-40l-321 542v-542h-35v612h39l321 -545v545zM821 266v-32h-246v32h246zM692 570q54 0 92 -37t38 -91q0 -56 -38 -93.5t-92 -37.5q-55 0 -93 37.5t-38 93.5q0 54 38 91t93 37zM691 534q-39 0 -66.5 -26.5t-27.5 -65.5t27.5 -67t66.5 -28q40 0 67.5 28
t27.5 67t-27.5 65.5t-67.5 26.5z" />
    <glyph glyph-name="minus" unicode="&#x2212;" horiz-adv-x="516" 
d="M436 310h-360v32h360v-32z" />
    <glyph glyph-name="uni2215" unicode="&#x2215;" horiz-adv-x="279" 
d="M264 612l-211 -612h-38l211 612h38z" />
    <glyph glyph-name="uni2219" unicode="&#x2219;" horiz-adv-x="158" 
d="M113 319q0 -14 -10 -24t-24 -10t-24 10t-10 24t10 24.5t24 10.5t24 -10.5t10 -24.5z" />
    <glyph glyph-name="radical" unicode="&#x221a;" horiz-adv-x="710" 
d="M727 808l-380 -818l-177 285h-127v32h150l149 -247l347 748h38z" />
    <glyph glyph-name="approxequal" unicode="&#x2248;" horiz-adv-x="487" 
d="M106 318l-30 15q38 63 107 63q37 0 71 -16t64 -16q41 0 62 35l31 -14q-33 -55 -93 -55q-38 0 -72 16t-64 16q-51 0 -76 -44zM106 177l-30 15q38 63 107 63q37 0 71 -16t64 -16q41 0 62 35l31 -14q-33 -55 -93 -55q-38 0 -72 16t-64 16q-51 0 -76 -44z" />
    <glyph glyph-name="notequal" unicode="&#x2260;" horiz-adv-x="513" 
d="M389 612l-63 -173h109v-32h-121l-62 -168h185v-32h-196l-76 -207h-39l76 207h-124v32h136l62 168h-200v32h211l64 173h38z" />
    <glyph glyph-name="lessequal" unicode="&#x2264;" horiz-adv-x="421" 
d="M376 65h-331v32h331v-32zM376 202l-331 137v20l331 136v-35l-270 -111l270 -110v-37z" />
    <glyph glyph-name="greaterequal" unicode="&#x2265;" horiz-adv-x="421" 
d="M45 97h331v-32h-331v32zM376 339l-331 -137v37l270 110l-270 111v35l331 -136v-20z" />
    <glyph glyph-name="triangle" unicode="&#x25b3;" horiz-adv-x="233" 
d="M220 292l-200 -128v255z" />
    <glyph glyph-name="circle" unicode="&#x25cb;" horiz-adv-x="294" 
d="M54 290q0 39 27.5 66.5t65.5 27.5q39 0 66 -27.5t27 -66.5q0 -38 -27 -65.5t-66 -27.5q-38 0 -65.5 27.5t-27.5 65.5z" />
    <glyph glyph-name="f_f_i" unicode="&#xfb03;" horiz-adv-x="640" 
d="M564 506v-506h-33v474h-157v-474h-33v474h-66h-1h-159v-474h-33v474h-67v32h67q0 32 6 63t20.5 63t44 51.5t70.5 19.5t72 -21l-13 -29q-17 17 -60 17q-31 0 -53 -15.5t-32.5 -42t-15 -52.5t-4.5 -54h157h1h66q0 32 6 62.5t20 63t43.5 52t70.5 19.5t72 -21l-13 -29
q-17 17 -60 17q-31 0 -53 -15.5t-32.5 -42t-15 -52.5t-4.5 -54h156h2h31z" />
    <glyph glyph-name="commaaccent" horiz-adv-x="250" 
d="M101 -73q12 8 26.5 5t21.5 -16q11 -24 10 -53t-20 -55t-48 -31q-1 4 -2 12.5t-2 12.5q45 8 47 65q-11 -5 -23.5 -1.5t-19.5 13.5q-8 12 -5 26t15 22z" />
    <glyph glyph-name="A.sc" horiz-adv-x="493" 
d="M352 152h-211l-53 -153h-38l179 509h35l179 -509h-38zM340 183l-94 269l-93 -269h187z" />
    <glyph glyph-name="B.sc" horiz-adv-x="470" 
d="M272 -1h-196v509h164q50 0 85 -34.5t35 -84.5q0 -61 -49 -102q41 -15 66.5 -55.5t25.5 -84.5q0 -55 -38.5 -101.5t-92.5 -46.5zM240 477h-130v-185h130q36 0 61 30.5t25 67.5q0 36 -25 61.5t-61 25.5zM272 261h-162v-231h162q40 0 68.5 37.5t28.5 78.5t-28.5 78t-68.5 37
z" />
    <glyph glyph-name="C.sc" horiz-adv-x="528" 
d="M443 72l18 -29l-1 -1q-51 -51 -141 -51q-106 0 -179 77t-73 184t72.5 184.5t179.5 77.5q90 0 141 -51l1 -1l-18 -29l-1 1q-48 48 -123 48q-92 0 -154.5 -68.5t-62.5 -161.5q0 -92 62.5 -160.5t154.5 -68.5q77 0 123 48z" />
    <glyph glyph-name="D.sc" horiz-adv-x="490" 
d="M220 -1h-144v509h144q61 0 109 -40.5t71 -98t23 -116.5q0 -94 -56 -174t-147 -80zM220 477h-110v-447h110q76 0 122 71.5t46 151.5q0 83 -45 153.5t-123 70.5z" />
    <glyph glyph-name="E.sc" horiz-adv-x="423" 
d="M110 476v-190h211v-32h-211v-223h259v-32h-293v509h293v-32h-259z" />
    <glyph glyph-name="F.sc" horiz-adv-x="449" 
d="M110 288h215v-32h-215v-257h-34v510h297v-32h-263v-189z" />
    <glyph glyph-name="G.sc" horiz-adv-x="547" 
d="M435 240h34v-176q0 -5 -3 -8q-4 -4 -5 -6q-52 -59 -143 -59q-106 0 -178.5 78.5t-72.5 184.5q0 107 72.5 184.5t179.5 77.5q39 0 81.5 -15t69.5 -41l1 -1l-19 -30l-1 1q-23 23 -61 38.5t-71 15.5q-92 0 -154.5 -68.5t-62.5 -161.5q0 -91 63.5 -161t153.5 -70q75 0 116 51
v166z" />
    <glyph glyph-name="H.sc" horiz-adv-x="484" 
d="M408 508v-509h-35v255h-263v-255h-34v509h34v-222h263v222h35z" />
    <glyph glyph-name="I.sc" horiz-adv-x="186" 
d="M110 -1h-34v509h34v-509z" />
    <glyph glyph-name="J.sc" horiz-adv-x="366" 
d="M51 28l-1 1l16 32l2 -1q35 -37 89 -37q53 0 78.5 39.5t25.5 96.5v347h35v-347q0 -70 -35.5 -120t-103.5 -50q-62 0 -106 39z" />
    <glyph glyph-name="K.sc" horiz-adv-x="435" 
d="M380 -1h-43l-238 255v-255h-34v509h34v-211l209 211h44l-223 -232z" />
    <glyph glyph-name="L.sc" horiz-adv-x="362" 
d="M286 -1h-210v509h34v-477h176v-32z" />
    <glyph glyph-name="M.sc" horiz-adv-x="590" 
d="M514 -1h-34v454l-185 -232l-184 232v-454h-35v509h39l180 -232l181 232h38v-509z" />
    <glyph glyph-name="N.sc" horiz-adv-x="484" 
d="M408 -1h-37l-260 439v-439h-35v509h36l262 -443v443h34v-509z" />
    <glyph glyph-name="O.sc" horiz-adv-x="559" 
d="M280 -9q-103 0 -158 78t-55 184q0 66 22.5 124.5t72.5 98.5t118 40q100 0 156 -79.5t56 -183.5q0 -106 -55 -184t-157 -78zM280 23q87 0 132 69t45 161q0 93 -45 162t-132 69q-60 0 -101.5 -36t-58.5 -86t-17 -109q0 -58 17 -108.5t58.5 -86t101.5 -35.5z" />
    <glyph glyph-name="P.sc" horiz-adv-x="470" 
d="M110 212v-213h-34v509h196q54 0 92.5 -46.5t38.5 -101.5t-38.5 -101.5t-92.5 -46.5h-162zM272 477h-162v-234h162q40 0 68.5 37.5t28.5 78.5t-28.5 79.5t-68.5 38.5z" />
    <glyph glyph-name="Q.sc" horiz-adv-x="558" 
d="M364 9l87 -107h-40l-79 96q-24 -7 -53 -7q-102 0 -157 78t-55 184q0 104 56 183.5t156 79.5t156 -79.5t56 -183.5q0 -78 -31.5 -146t-95.5 -98zM456 253q0 93 -45 162t-132 69t-132 -69t-45 -162q0 -92 45 -161t132 -69t132 69t45 161z" />
    <glyph glyph-name="R.sc" horiz-adv-x="500" 
d="M286 235l147 -236h-42l-146 236h-135v-236h-34v509h201q53 0 89.5 -41t36.5 -94q0 -51 -33.5 -93.5t-83.5 -44.5zM276 477h-166v-210h167q37 0 64 33t27 72q0 40 -26 72.5t-66 32.5z" />
    <glyph glyph-name="S.sc" horiz-adv-x="441" 
d="M68 43l-1 1l20 30l1 -1q64 -49 128 -49q52 0 88 30t36 81q0 44 -40 76q-17 13 -41 24l-48 21q-31 13 -49 21.5t-40 23.5t-32 35t-10 46q0 66 47.5 100.5t115.5 34.5q71 0 115 -39l1 -1l-13 -32l-2 2q-40 35 -100 35q-52 0 -90.5 -25t-38.5 -73q0 -35 40 -61q16 -9 41 -21
q4 -2 48 -20q29 -13 48 -23.5t40 -27.5t31.5 -40.5t10.5 -52.5q0 -68 -43.5 -107.5t-112.5 -39.5q-37 0 -79 14.5t-71 37.5z" />
    <glyph glyph-name="T.sc" horiz-adv-x="519" 
d="M452 508v-32h-175v-477h-34v477h-176v32h385z" />
    <glyph glyph-name="U.sc" horiz-adv-x="452" 
d="M392 508v-347q0 -69 -48.5 -119.5t-117.5 -50.5q-68 0 -117 50.5t-49 119.5v347h35v-347q0 -55 38.5 -95.5t92.5 -40.5t93 40.5t39 95.5v347h34z" />
    <glyph glyph-name="V.sc" horiz-adv-x="493" 
d="M443 508l-180 -509h-34l-179 509h37l159 -448l159 448h38z" />
    <glyph glyph-name="W.sc" horiz-adv-x="846" 
d="M796 508l-179 -509h-33l-160 450l-160 -450h-35l-179 509h37l159 -448l159 445h36l159 -445l159 448h37z" />
    <glyph glyph-name="X.sc" horiz-adv-x="522" 
d="M466 -1h-42l-163 249l-163 -249h-42l184 278l-158 231h42l137 -202l142 202h42l-163 -231z" />
    <glyph glyph-name="Y.sc" horiz-adv-x="476" 
d="M426 508l-170 -257v-252h-35v252l-171 257h40l148 -220l150 220h38z" />
    <glyph glyph-name="Z.sc" horiz-adv-x="483" 
d="M407 479l-291 -448h291v-32h-332v30l291 448h-277v31h318v-29z" />
    <glyph glyph-name="AE.001" horiz-adv-x="612" 
d="M244 183v265l-93 -265h93zM536 477h-259v-192h211v-30h-211v-225h259v-30h-292v153h-104l-53 -153h-37l179 507h307v-30z" />
    <glyph glyph-name="Aring.001" horiz-adv-x="487" 
d="M205 621q0 -16 12 -28.5t28 -12.5t28.5 12.5t12.5 28.5t-12.5 27.5t-28.5 11.5t-28 -11.5t-12 -27.5zM320 621q0 -31 -21.5 -52.5t-52.5 -21.5t-53 21.5t-22 52.5q0 30 22 51.5t53 21.5t52.5 -21.5t21.5 -51.5zM404 0l-53 154h-215l-53 -154h-33l178 506h31l178 -506h-33
zM146 180h195l-98 280z" />
    <glyph glyph-name="Adieresis.001" horiz-adv-x="487" 
d="M364 605q0 -13 -8.5 -21.5t-21.5 -8.5t-22 8.5t-9 21.5q0 12 9 21t22 9t21.5 -9t8.5 -21zM188 605q0 -13 -8.5 -21.5t-21.5 -8.5t-21.5 8.5t-8.5 21.5q0 12 8.5 21t21.5 9t21.5 -9t8.5 -21zM404 0l-53 154h-215l-53 -154h-33l178 506h31l178 -506h-33zM146 180h195
l-98 280z" />
    <glyph glyph-name="Atilde.001" horiz-adv-x="487" 
d="M105 579l1 2q29 52 90 52q22 0 56.5 -13t54.5 -13q33 0 50 28l1 2l28 -14l-1 -2q-26 -45 -78 -45q-23 0 -58 13t-54 13q-42 0 -61 -36l-1 -1zM404 0l-53 154h-215l-53 -154h-33l178 506h31l178 -506h-33zM146 180h195l-98 280z" />
    <glyph glyph-name="Acircumflex.001" horiz-adv-x="487" 
d="M208 575h-31l51 114h36l51 -114h-32l-37 83zM404 0l-53 154h-215l-53 -154h-33l178 506h31l178 -506h-33zM146 180h195l-98 280z" />
    <glyph glyph-name="Aacute.001" horiz-adv-x="491" 
d="M151 183h190l-95 270zM262 507l179 -507h-36l-54 153h-211l-53 -153h-37l179 507h33zM276 612h-34l43 108h46z" />
    <glyph glyph-name="Agrave.001" horiz-adv-x="487" 
d="M171 683h46l43 -107h-34zM404 0l-53 154h-215l-53 -154h-33l178 506h31l178 -506h-33zM146 180h195l-98 280z" />
    <glyph glyph-name="Cacute.001" horiz-adv-x="527" 
d="M440 70l2 2l18 -29l-1 -1q-56 -50 -140 -50q-107 0 -179.5 77.5t-72.5 183.5q0 105 72.5 183t179.5 78q85 0 140 -51l1 -1l-18 -29l-2 2q-53 48 -121 48q-93 0 -155.5 -69t-62.5 -161t62.5 -161t155.5 -69q69 0 121 47zM320 576h-34l43 107h46z" />
    <glyph glyph-name="Ccircumflex.001" horiz-adv-x="527" 
d="M440 70l2 2l18 -29l-1 -1q-56 -50 -140 -50q-107 0 -179.5 77.5t-72.5 183.5q0 105 72.5 183t179.5 78q85 0 140 -51l1 -1l-18 -29l-2 2q-53 48 -121 48q-93 0 -155.5 -69t-62.5 -161t62.5 -161t155.5 -69q69 0 121 47zM297 658l-38 -83h-31l50 114h37l51 -114h-32z" />
    <glyph glyph-name="Cdotaccent.001" horiz-adv-x="527" 
d="M440 70l2 2l18 -29l-1 -1q-56 -50 -140 -50q-107 0 -179.5 77.5t-72.5 183.5q0 105 72.5 183t179.5 78q85 0 140 -51l1 -1l-18 -29l-2 2q-53 48 -121 48q-93 0 -155.5 -69t-62.5 -161t62.5 -161t155.5 -69q69 0 121 47zM326 605q0 -15 -11.5 -27t-27.5 -12t-27.5 11.5
t-11.5 27.5t11.5 27.5t27.5 11.5t27.5 -12t11.5 -27z" />
    <glyph glyph-name="Ccaron.001" horiz-adv-x="527" 
d="M440 70l2 2l18 -29l-1 -1q-56 -50 -140 -50q-107 0 -179.5 77.5t-72.5 183.5q0 105 72.5 183t179.5 78q85 0 140 -51l1 -1l-18 -29l-2 2q-53 48 -121 48q-93 0 -155.5 -69t-62.5 -161t62.5 -161t155.5 -69q69 0 121 47zM286 607l37 83h32l-50 -114h-37l-51 114h33z" />
    <glyph glyph-name="Ccedilla.001" horiz-adv-x="527" 
d="M256 0q-84 22 -136.5 93t-52.5 160q0 105 72.5 183t179.5 78q85 0 140 -51l1 -1l-18 -29l-2 2q-53 48 -121 48q-93 0 -155.5 -69t-62.5 -161t62.5 -161t155.5 -69q69 0 121 47l2 2l18 -29l-1 -1q-56 -50 -140 -50q-10 0 -21 1l-53 -105h-34z" />
    <glyph glyph-name="Ebreve.001" horiz-adv-x="444" 
d="M368 477h-259v-192h211v-31h-211v-224h259v-30h-292v507h292v-30zM263 636v2h33v-2q0 -31 -21 -53t-52 -22q-32 0 -53.5 22t-21.5 53v2h34v-2q0 -16 12 -28.5t28 -12.5t28.5 12.5t12.5 28.5z" />
    <glyph glyph-name="Eacute.001" horiz-adv-x="444" 
d="M76 507h292v-30h-259v-192h211v-31h-211v-224h259v-30h-292v507zM293 689l-55 -108h-34l43 108h46z" />
    <glyph glyph-name="Ecaron.001" horiz-adv-x="444" 
d="M368 477h-259v-192h211v-31h-211v-224h259v-30h-292v507h292v-30zM222 607l37 83h32l-50 -114h-37l-51 114h33z" />
    <glyph glyph-name="Ecircumflex.001" horiz-adv-x="444" 
d="M368 477h-259v-192h211v-31h-211v-224h259v-30h-292v507h292v-30zM229 658l-37 -82h-32l51 114h37l50 -114h-31z" />
    <glyph glyph-name="Edieresis.001" horiz-adv-x="444" 
d="M368 477h-259v-192h211v-31h-211v-224h259v-30h-292v507h292v-30zM342 601q0 -12 -8.5 -20.5t-21.5 -8.5t-22 8.5t-9 20.5q0 13 9 22t22 9t21.5 -9t8.5 -22zM166 601q0 -12 -8.5 -20.5t-21.5 -8.5t-21.5 8.5t-8.5 20.5q0 13 8.5 22t21.5 9t21.5 -9t8.5 -22z" />
    <glyph glyph-name="Edotaccent.001" horiz-adv-x="444" 
d="M368 477h-259v-192h211v-31h-211v-224h259v-30h-292v507h292v-30zM253 606q0 -15 -12 -27t-27 -12q-16 0 -27.5 12t-11.5 27q0 16 11.5 27.5t27.5 11.5t27.5 -11.5t11.5 -27.5z" />
    <glyph glyph-name="Egrave.001" horiz-adv-x="444" 
d="M76 507h292v-30h-259v-192h211v-31h-211v-224h259v-30h-292v507zM200 683l44 -108h-34l-55 108h45z" />
    <glyph glyph-name="Emacron.001" horiz-adv-x="452" 
d="M368 477h-259v-192h211v-31h-211v-224h259v-30h-292v507h292v-30zM376 606v-31h-300v31h300z" />
    <glyph glyph-name="Eogonek.001" horiz-adv-x="391" 
d="M405 -115l16 -25l-1 -1q-20 -17 -49 -17t-49 20.5t-20 48.5q0 47 28 89h-254v507h292v-30h-259v-192h211v-31h-211v-224h259v-30q-33 -36 -33 -84q0 -21 11 -33t32 -12q13 0 25 12z" />
    <glyph glyph-name="Gbreve.001" horiz-adv-x="545" 
d="M435 240h33v-175q0 -5 -3 -8l-3 -3q0 -1 -2 -3q-22 -28 -62.5 -43.5t-79.5 -15.5q-107 0 -179 78.5t-72 183.5q0 106 72 183.5t179 77.5q90 0 150 -55l1 -1l-18 -29l-1 1q-25 23 -61.5 38t-70.5 15q-93 0 -155 -68.5t-62 -161.5q0 -91 63 -161t154 -70q76 0 117 51v166z
M292 610q16 0 28 12.5t12 28.5v2h34v-2q0 -31 -21 -53t-53 -22q-31 0 -52.5 22t-21.5 53v2h34v-2q0 -16 12 -28.5t28 -12.5z" />
    <glyph glyph-name="Gcircumflex.001" horiz-adv-x="545" 
d="M465 57l-3 -3q0 -1 -2 -3q-22 -28 -62.5 -43.5t-79.5 -15.5q-107 0 -179 78.5t-72 183.5q0 106 72 183.5t179 77.5q90 0 150 -55l1 -1l-18 -29l-1 1q-25 23 -61.5 38t-70.5 15q-93 0 -155 -68.5t-62 -161.5q0 -91 63 -161t154 -70q76 0 117 51v166h33v-175q0 -5 -3 -8z
M289 658l-37 -83h-32l51 114h37l50 -114h-31z" />
    <glyph glyph-name="Gdotaccent.001" horiz-adv-x="545" 
d="M465 57l-3 -3q0 -1 -2 -3q-22 -28 -62.5 -43.5t-79.5 -15.5q-107 0 -179 78.5t-72 183.5q0 106 72 183.5t179 77.5q90 0 150 -55l1 -1l-18 -29l-1 1q-25 23 -61.5 38t-70.5 15q-93 0 -155 -68.5t-62 -161.5q0 -91 63 -161t154 -70q76 0 117 51v166h33v-175q0 -5 -3 -8z
M323 606q0 -15 -11.5 -27t-26.5 -12q-16 0 -27.5 12t-11.5 27q0 16 11.5 27.5t27.5 11.5t27 -11.5t11 -27.5z" />
    <glyph glyph-name="Hcircumflex.001" horiz-adv-x="483" 
d="M374 507h33v-507h-33v254h-265v-254h-33v507h33v-222h265v222zM241 658l-37 -82h-31l50 114h37l50 -114h-31z" />
    <glyph glyph-name="Hbar.001" horiz-adv-x="564" 
d="M488 409v-27h-39v-382h-30v256h-269v-256h-29v382h-45v27h45v97h29v-97h269v97h30v-97h39zM419 283v99h-269v-99h269z" />
    <glyph glyph-name="Iacute.001" horiz-adv-x="181" 
d="M110 507v-507h-33v507h33zM110 576h-34l43 107h46z" />
    <glyph glyph-name="Icircumflex.001" horiz-adv-x="169" 
d="M101 507v-507h-33v507h33zM85 658l-38 -82h-31l50 114h37l50 -114h-31z" />
    <glyph glyph-name="Idieresis.001" horiz-adv-x="175" 
d="M104 507v-507h-33v507h33zM205 601q0 -12 -8.5 -20.5t-21.5 -8.5q-12 0 -21.5 8.5t-9.5 20.5q0 13 9 22t22 9t21.5 -9t8.5 -22zM30 601q0 -12 -8.5 -20.5t-21.5 -8.5t-21.5 8.5t-8.5 20.5q0 13 8.5 22t21.5 9t21.5 -9t8.5 -22z" />
    <glyph glyph-name="Idotaccent.001" horiz-adv-x="169" 
d="M101 507v-507h-33v507h33zM123 605q0 -15 -11.5 -27t-26.5 -12q-16 0 -27.5 11.5t-11.5 27.5t11.5 27.5t27.5 11.5q15 0 26.5 -12t11.5 -27z" />
    <glyph glyph-name="Igrave.001" horiz-adv-x="202" 
d="M124 507v-507h-33v507h33zM126 576h-34l-56 107h46z" />
    <glyph glyph-name="Imacron.001" horiz-adv-x="200" 
d="M117 507v-507h-33v507h33zM250 606v-31h-300v31h300z" />
    <glyph glyph-name="Itilde.001" horiz-adv-x="182" 
d="M108 507v-507h-34v507h34zM-22 565l-28 14l1 2q31 52 90 52q28 0 58 -13q23 -8 25 -9q16 -4 28 -4q35 0 50 28l1 2l29 -14l-1 -2q-26 -45 -78 -45q-30 0 -60 13l-24 9q-18 4 -29 4q-41 0 -61 -36z" />
    <glyph glyph-name="Iogonek.001" horiz-adv-x="180" 
d="M149 -94l15 -24l-1 -1q-17 -17 -49 -17q-29 0 -48.5 20.5t-19.5 49.5q0 44 34 75v497h33v-507q-35 -25 -35 -62q0 -43 44 -43q17 0 25 10z" />
    <glyph glyph-name="Ntilde.001" horiz-adv-x="484" 
d="M130 570l-28 14l1 2q12 24 36.5 38t53.5 14q21 0 56 -13t55 -13q35 0 50 28l1 2l28 -14l-1 -2q-22 -45 -78 -45q-23 0 -58 13t-54 13q-42 0 -61 -36zM408 -1h-37l-260 439v-439h-35v509h36l262 -443v443h34v-509z" />
    <glyph glyph-name="OE.001" horiz-adv-x="826" 
d="M278 493q-87 0 -132 -69.5t-45 -161.5t45 -161.5t132 -69.5q88 0 133 69.5t45 161.5t-45 161.5t-133 69.5zM750 477h-260v-192h212v-30h-212v-224h260v-31h-293v113q-27 -53 -73 -83t-106 -30q-70 0 -119.5 40t-70.5 97.5t-21 124.5q0 65 22 123t71.5 98.5t117.5 40.5
q60 0 106 -31t73 -85v99h293v-30z" />
    <glyph glyph-name="Oacute.001" horiz-adv-x="558" 
d="M279 484q-88 0 -133 -69.5t-45 -161.5t45 -161t133 -69t133 69t45 161t-45 161.5t-133 69.5zM279 515q68 0 118 -40.5t72 -98.5t22 -123q0 -66 -21.5 -123.5t-71 -97.5t-119.5 -40t-119.5 40t-71 97.5t-21.5 123.5q0 65 22 123t72 98.5t118 40.5zM290 576h-34l44 107h46z
" />
    <glyph glyph-name="Obreve.001" horiz-adv-x="559" 
d="M321 644v2h33v-2q0 -31 -21 -53t-53 -22q-31 0 -52.5 22t-21.5 53v2h34v-2q0 -16 12 -28.5t28 -12.5t28 12.5t13 28.5zM280 -9q-103 0 -158 78t-55 184q0 66 22.5 124.5t72.5 98.5t118 40q100 0 156 -79.5t56 -183.5q0 -106 -55 -184t-157 -78zM280 23q87 0 132 69
t45 161q0 93 -45 162t-132 69q-60 0 -101.5 -36t-58.5 -86t-17 -109q0 -58 17 -108.5t58.5 -86t101.5 -35.5z" />
    <glyph glyph-name="Ocircumflex.001" horiz-adv-x="559" 
d="M280 658l-37 -82h-32l51 114h36l51 -114h-31zM280 -9q-103 0 -158 78t-55 184q0 66 22.5 124.5t72.5 98.5t118 40q100 0 156 -79.5t56 -183.5q0 -106 -55 -184t-157 -78zM280 23q87 0 132 69t45 161q0 93 -45 162t-132 69q-60 0 -101.5 -36t-58.5 -86t-17 -109
q0 -58 17 -108.5t58.5 -86t101.5 -35.5z" />
    <glyph glyph-name="Odieresis.001" horiz-adv-x="559" 
d="M398 611q0 -12 -8.5 -21t-21.5 -9t-22 9t-9 21q0 13 9 22t22 9t21.5 -9t8.5 -22zM222 611q0 -12 -8.5 -21t-21.5 -9t-21.5 9t-8.5 21q0 13 8.5 22t21.5 9t21.5 -9t8.5 -22zM280 -9q-103 0 -158 78t-55 184q0 66 22.5 124.5t72.5 98.5t118 40q100 0 156 -79.5t56 -183.5
q0 -106 -55 -184t-157 -78zM280 23q87 0 132 69t45 161q0 93 -45 162t-132 69q-60 0 -101.5 -36t-58.5 -86t-17 -109q0 -58 17 -108.5t58.5 -86t101.5 -35.5z" />
    <glyph glyph-name="Ograve.001" horiz-adv-x="559" 
d="M216 684h46l44 -107h-34zM280 -9q-103 0 -158 78t-55 184q0 66 22.5 124.5t72.5 98.5t118 40q100 0 156 -79.5t56 -183.5q0 -106 -55 -184t-157 -78zM280 23q87 0 132 69t45 161q0 93 -45 162t-132 69q-60 0 -101.5 -36t-58.5 -86t-17 -109q0 -58 17 -108.5t58.5 -86
t101.5 -35.5z" />
    <glyph glyph-name="Ohungarumlaut.001" horiz-adv-x="559" 
d="M363 576h-34l37 107h52zM215 576h-34l38 107h51zM280 -9q-103 0 -158 78t-55 184q0 66 22.5 124.5t72.5 98.5t118 40q100 0 156 -79.5t56 -183.5q0 -106 -55 -184t-157 -78zM280 23q87 0 132 69t45 161q0 93 -45 162t-132 69q-60 0 -101.5 -36t-58.5 -86t-17 -109
q0 -58 17 -108.5t58.5 -86t101.5 -35.5z" />
    <glyph glyph-name="Omacron.001" horiz-adv-x="559" 
d="M430 606v-31h-300v31h300zM280 -9q-103 0 -158 78t-55 184q0 66 22.5 124.5t72.5 98.5t118 40q100 0 156 -79.5t56 -183.5q0 -106 -55 -184t-157 -78zM280 23q87 0 132 69t45 161q0 93 -45 162t-132 69q-60 0 -101.5 -36t-58.5 -86t-17 -109q0 -58 17 -108.5t58.5 -86
t101.5 -35.5z" />
    <glyph glyph-name="Oslash.001" horiz-adv-x="558" 
d="M399 474q45 -36 68.5 -95.5t23.5 -124.5q0 -66 -21.5 -123.5t-71 -97.5t-119.5 -40q-55 0 -100 26l-38 -79h-35l47 98q-42 36 -64 94t-22 122q0 65 22 123t72 98.5t118 40.5q53 0 93 -23l43 88h36zM101 254q0 -122 67 -186l191 397q-34 20 -80 20q-88 0 -133 -69.5
t-45 -161.5zM279 24q88 0 133 69t45 161q0 56 -18 108t-53 84l-193 -398q38 -24 86 -24z" />
    <glyph glyph-name="Otilde.001" horiz-adv-x="559" 
d="M168 566l-1 -1l-28 14l1 2q31 52 90 52q28 0 58 -13q23 -8 25 -9q16 -4 28 -4q35 0 50 28l1 2l29 -14l-1 -2q-26 -45 -78 -45q-30 0 -60 13l-24 9q-18 4 -29 4q-41 0 -61 -36zM280 -9q-103 0 -158 78t-55 184q0 66 22.5 124.5t72.5 98.5t118 40q100 0 156 -79.5
t56 -183.5q0 -106 -55 -184t-157 -78zM280 23q87 0 132 69t45 161q0 93 -45 162t-132 69q-60 0 -101.5 -36t-58.5 -86t-17 -109q0 -58 17 -108.5t58.5 -86t101.5 -35.5z" />
    <glyph glyph-name="Uacute.001" horiz-adv-x="451" 
d="M391 507v-346q0 -68 -48 -118.5t-117 -50.5t-117.5 50.5t-48.5 118.5v346h34v-346q0 -54 38.5 -95t93.5 -41t93.5 41t38.5 95v346h33zM296 683l-55 -108h-34l43 108h46z" />
    <glyph glyph-name="Ubreve.001" horiz-adv-x="451" 
d="M358 507h33v-346q0 -68 -48 -118.5t-117 -50.5t-117.5 50.5t-48.5 118.5v346h34v-346q0 -54 38.5 -95t93.5 -41t93.5 41t38.5 95v346zM266 639v2h34v-2q0 -31 -21 -53t-53 -22q-31 0 -52.5 22t-21.5 53v2h33v-2q0 -16 12 -28.5t28 -12.5t28.5 12.5t12.5 28.5z" />
    <glyph glyph-name="Ucircumflex.001" horiz-adv-x="451" 
d="M358 507h33v-346q0 -68 -48 -118.5t-117 -50.5t-117.5 50.5t-48.5 118.5v346h34v-346q0 -54 38.5 -95t93.5 -41t93.5 41t38.5 95v346zM226 658l-38 -82h-31l50 114h37l51 -114h-32z" />
    <glyph glyph-name="Udieresis.001" horiz-adv-x="451" 
d="M358 507h33v-346q0 -68 -48 -118.5t-117 -50.5t-117.5 50.5t-48.5 118.5v346h34v-346q0 -54 38.5 -95t93.5 -41t93.5 41t38.5 95v346zM344 600q0 -12 -8.5 -21t-21.5 -9t-22 9t-9 21q0 13 9 22t22 9t21.5 -9t8.5 -22zM168 600q0 -12 -8.5 -21t-21.5 -9t-21.5 9t-8.5 21
q0 13 8.5 22t21.5 9t21.5 -9t8.5 -22z" />
    <glyph glyph-name="Ugrave.001" horiz-adv-x="451" 
d="M391 507v-346q0 -68 -48 -118.5t-117 -50.5t-117.5 50.5t-48.5 118.5v346h34v-346q0 -54 38.5 -95t93.5 -41t93.5 41t38.5 95v346h33zM210 683l44 -108h-34l-56 108h46z" />
    <glyph glyph-name="Uhungarumlaut.001" horiz-adv-x="451" 
d="M358 507h33v-346q0 -68 -48 -118.5t-117 -50.5t-117.5 50.5t-48.5 118.5v346h34v-346q0 -54 38.5 -95t93.5 -41t93.5 41t38.5 95v346zM368 683l-56 -107h-33l37 107h52zM220 683l-55 -107h-34l37 107h52z" />
    <glyph glyph-name="Umacron.001" horiz-adv-x="451" 
d="M358 507h33v-346q0 -68 -48 -118.5t-117 -50.5t-117.5 50.5t-48.5 118.5v346h34v-346q0 -54 38.5 -95t93.5 -41t93.5 41t38.5 95v346zM376 606v-31h-300v31h300z" />
    <glyph glyph-name="Uogonek.001" horiz-adv-x="451" 
d="M358 506h33v-346q0 -54 -31.5 -98.5t-81.5 -61.5l-1 -1q-33 -22 -33 -63q0 -20 11.5 -32t32.5 -12q18 0 25 11l2 2l15 -24l-1 -2q-19 -17 -49 -17q-29 0 -48.5 20.5t-19.5 49.5q0 32 19 59h-5q-69 0 -117.5 50.5t-48.5 118.5v346h34v-346q0 -54 38.5 -95t93.5 -41
t93.5 41t38.5 95v346z" />
    <glyph glyph-name="Uring.001" horiz-adv-x="451" 
d="M358 507h33v-346q0 -68 -48 -118.5t-117 -50.5t-117.5 50.5t-48.5 118.5v346h34v-346q0 -54 38.5 -95t93.5 -41t93.5 41t38.5 95v346zM185 640q0 -16 12 -28.5t28 -12.5t28.5 12.5t12.5 28.5t-12 27.5t-29 11.5q-16 0 -28 -11.5t-12 -27.5zM300 640q0 -31 -21.5 -53
t-52.5 -22t-52.5 22t-21.5 53q0 30 21.5 51t52.5 21t52.5 -21t21.5 -51z" />
    <glyph glyph-name="Utilde.001" horiz-adv-x="451" 
d="M358 507h33v-346q0 -68 -48 -118.5t-117 -50.5t-117.5 50.5t-48.5 118.5v346h34v-346q0 -54 38.5 -95t93.5 -41t93.5 41t38.5 95v346zM113 565l-28 14l1 2q31 52 90 52q28 0 58 -13q3 -1 7.5 -3t8.5 -3.5t8 -2.5q18 -4 29 -4q33 0 50 28l1 2l29 -14l-2 -2
q-26 -45 -78 -45q-29 0 -59 13l-24 9q-18 4 -29 4q-41 0 -61 -36z" />
    <glyph glyph-name="Dcaron.001" horiz-adv-x="489" 
d="M388 254q0 51 -17.5 100t-57.5 86t-94 37h-110v-447h110q77 0 123 72t46 152zM422 254q0 -94 -55.5 -174t-147.5 -80h-143v507h143q91 0 147 -80.5t56 -172.5zM208 607l37 83h32l-51 -114h-36l-51 114h33z" />
    <glyph glyph-name="Nacute.001" horiz-adv-x="484" 
d="M210 572l45 110h50l-57 -110h-38zM408 -1h-37l-260 439v-439h-35v509h36l262 -443v443h34v-509z" />
    <glyph glyph-name="Ncaron.001" horiz-adv-x="484" 
d="M278 689h36l-52 -117h-39l-51 117h36l35 -80zM408 -1h-37l-260 439v-439h-35v509h36l262 -443v443h34v-509z" />
    <glyph glyph-name="Amacron.001" horiz-adv-x="487" 
d="M395 575h-300v31h300v-31zM404 0l-53 154h-215l-53 -154h-33l178 506h31l178 -506h-33zM146 180h195l-98 280z" />
    <glyph glyph-name="Abreve.001" horiz-adv-x="487" 
d="M287 637v2h33v-2q0 -31 -21 -52.5t-53 -21.5q-31 0 -52.5 21.5t-21.5 52.5v2h34v-2q0 -15 12 -28t28 -13t28 12.5t13 28.5zM404 0l-53 154h-215l-53 -154h-33l178 506h31l178 -506h-33zM146 180h195l-98 280z" />
    <glyph glyph-name="Aogonek.001" horiz-adv-x="462" 
d="M374 -66q0 39 29 71l-52 147h-211l-53 -153h-37l179 507h33l179 -507q-35 -23 -35 -62q0 -43 44 -43q13 0 27 12l15 -24q-20 -18 -50 -18q-29 0 -48.5 20.5t-19.5 49.5zM151 182h190l-95 270z" />
    <glyph glyph-name="Lacute.001" horiz-adv-x="361" 
d="M165 683l-55 -107h-34l43 107h46zM285 30v-30h-208v507h33v-477h175z" />
    <glyph glyph-name="Lcaron.2" horiz-adv-x="450" 
d="M284 30v-30h-208v507h33v-477h175zM318 450h-34l44 108h46z" />
    <glyph glyph-name="Ldot.001" horiz-adv-x="360" 
d="M284 30v-30h-208v507h33v-477h175zM267 254q0 -15 -11.5 -27t-26.5 -12q-16 0 -27.5 11.5t-11.5 27.5q0 15 11.5 27t27.5 12q15 0 26.5 -12t11.5 -27z" />
    <glyph glyph-name="Lslash.001" horiz-adv-x="396" 
d="M145 30h175v-30h-208v248l-97 -71v41l97 70v219h33v-195l134 98v-39l-134 -99v-242z" />
    <glyph glyph-name="Wacute.001" horiz-adv-x="845" 
d="M758 507h37l-179 -507h-33l-161 451l-160 -451h-33l-179 507h36l160 -448l158 445h36l159 -445zM494 684l-56 -107h-34l44 107h46z" />
    <glyph glyph-name="Wcircumflex.001" horiz-adv-x="845" 
d="M758 507h37l-179 -507h-33l-161 451l-160 -451h-33l-179 507h36l160 -448l158 445h36l159 -445zM423 656l-38 -82h-31l50 114h37l50 -114h-31z" />
    <glyph glyph-name="Wdieresis.001" horiz-adv-x="845" 
d="M758 507h37l-179 -507h-33l-161 451l-160 -451h-33l-179 507h36l160 -448l158 445h36l159 -445zM510 631q13 0 21.5 -9.5t8.5 -21.5t-8.5 -21t-21.5 -9q-12 0 -21.5 9t-9.5 21t9 21.5t22 9.5zM335 631q12 0 21 -9.5t9 -21.5t-8.5 -21t-21.5 -9t-21.5 9t-8.5 21t8.5 21.5
t21.5 9.5z" />
    <glyph glyph-name="Wgrave.001" horiz-adv-x="845" 
d="M758 507h37l-179 -507h-33l-161 451l-160 -451h-33l-179 507h36l160 -448l158 445h36l159 -445zM392 683l44 -107h-34l-56 107h46z" />
    <glyph glyph-name="Sacute.001" horiz-adv-x="440" 
d="M67 45l19 28l2 -1q63 -48 128 -48q53 0 88.5 30.5t35.5 81.5q0 45 -40 75q-17 13 -41 24l-48 21q-33 14 -49.5 22t-39.5 23.5t-33 35t-10 45.5q0 65 47.5 99.5t115.5 34.5q71 0 114 -39l1 -1l-12 -29l-3 1q-41 35 -98 35q-53 0 -92 -25.5t-39 -73.5q0 -36 40 -61
q9 -6 41 -21q8 -4 24.5 -10.5t23.5 -9.5q29 -12 48.5 -23t40.5 -28t31.5 -40.5t10.5 -52.5q0 -67 -43.5 -106.5t-112.5 -39.5q-79 0 -148 51zM231 576h-34l44 107h46z" />
    <glyph glyph-name="Scaron.001" horiz-adv-x="440" 
d="M67 45l19 28l2 -1q63 -48 128 -48q53 0 88.5 30.5t35.5 81.5q0 45 -40 75q-17 13 -41 24l-48 21q-33 14 -49.5 22t-39.5 23.5t-33 35t-10 45.5q0 65 47.5 99.5t115.5 34.5q71 0 114 -39l1 -1l-12 -29l-3 1q-41 35 -98 35q-53 0 -92 -25.5t-39 -73.5q0 -36 40 -61
q9 -6 41 -21q8 -4 24.5 -10.5t23.5 -9.5q29 -12 48.5 -23t40.5 -28t31.5 -40.5t10.5 -52.5q0 -67 -43.5 -106.5t-112.5 -39.5q-79 0 -148 51zM221 607l36 83h32l-50 -114h-37l-50 114h32z" />
    <glyph glyph-name="Scedilla.001" horiz-adv-x="440" 
d="M197 -7q-71 8 -128 50l-2 2l19 28l2 -1q27 -21 62 -34.5t66 -13.5q53 0 88.5 30.5t35.5 81.5q0 45 -40 75q-17 13 -41 24q-5 3 -11.5 6t-12 5t-12.5 5t-12 5q-27 11 -39.5 17t-34 18t-31.5 23.5t-18.5 29t-8.5 38.5q0 65 47.5 99.5t115.5 34.5q71 0 114 -39l1 -1l-12 -29
l-3 1q-41 35 -98 35q-53 0 -92 -25.5t-39 -73.5q0 -36 40 -61q9 -6 41 -21q8 -4 24.5 -10.5t23.5 -9.5q29 -12 48.5 -23t40.5 -28t31.5 -40.5t10.5 -52.5q0 -63 -38.5 -102t-102.5 -43l-42 -105h-46z" />
    <glyph glyph-name="Scircumflex.001" horiz-adv-x="440" 
d="M67 45l19 28l2 -1q63 -48 128 -48q53 0 88.5 30.5t35.5 81.5q0 45 -40 75q-17 13 -41 24l-48 21q-33 14 -49.5 22t-39.5 23.5t-33 35t-10 45.5q0 65 47.5 99.5t115.5 34.5q71 0 114 -39l1 -1l-12 -29l-3 1q-41 35 -98 35q-53 0 -92 -25.5t-39 -73.5q0 -36 40 -61
q9 -6 41 -21q8 -4 24.5 -10.5t23.5 -9.5q29 -12 48.5 -23t40.5 -28t31.5 -40.5t10.5 -52.5q0 -67 -43.5 -106.5t-112.5 -39.5q-79 0 -148 51zM221 658l-38 -82h-31l50 114h37l50 -114h-31z" />
    <glyph glyph-name="Scommaaccent.001" horiz-adv-x="440" 
d="M67 45l19 28l2 -1q63 -48 128 -48q53 0 88.5 30.5t35.5 81.5q0 45 -40 75q-17 13 -41 24l-48 21q-33 14 -49.5 22t-39.5 23.5t-33 35t-10 45.5q0 65 47.5 99.5t115.5 34.5q71 0 114 -39l1 -1l-12 -29l-3 1q-41 35 -98 35q-53 0 -92 -25.5t-39 -73.5q0 -36 40 -61
q9 -6 41 -21q8 -4 24.5 -10.5t23.5 -9.5q29 -12 48.5 -23t40.5 -28t31.5 -40.5t10.5 -52.5q0 -67 -43.5 -106.5t-112.5 -39.5q-79 0 -148 51zM195 -184h-2l-4 25h2q33 5 37 48q-3 -1 -10 -1q-13 0 -21.5 8.5t-8.5 21.5q0 12 9 21t22 9q18 0 26 -16t8 -35q0 -28 -15.5 -52
t-42.5 -29z" />
    <glyph glyph-name="Kcommaaccent.001" horiz-adv-x="434" 
d="M127 277l252 -277h-42l-239 255v-255h-33v507h33v-211l210 211h42zM165 -184h-2l-5 25h2q34 5 38 48q-3 -1 -10 -1q-13 0 -21.5 8.5t-8.5 21.5q0 12 8.5 21t21.5 9q35 0 35 -51q0 -28 -15.5 -52t-42.5 -29z" />
    <glyph glyph-name="Racute.001" horiz-adv-x="498" 
d="M109 477v-211h168q38 0 64.5 34t26.5 72q0 40 -26 72.5t-66 32.5h-167zM391 0l-147 236h-135v-236h-33v507h200q54 0 90 -40.5t36 -93.5q0 -50 -33.5 -92.5t-83.5 -44.5l146 -236h-40zM242 576h-34l44 107h46z" />
    <glyph glyph-name="Rcaron.001" horiz-adv-x="498" 
d="M109 477v-211h168q38 0 64.5 34t26.5 72q0 40 -26 72.5t-66 32.5h-167zM391 0l-147 236h-135v-236h-33v507h200q54 0 90 -40.5t36 -93.5q0 -50 -33.5 -92.5t-83.5 -44.5l146 -236h-40zM217 607l36 82h32l-50 -114h-37l-51 114h33z" />
    <glyph glyph-name="Rcommaaccent.001" horiz-adv-x="498" 
d="M109 477v-211h168q38 0 64.5 34t26.5 72q0 40 -26 72.5t-66 32.5h-167zM391 0l-147 236h-135v-236h-33v507h200q54 0 90 -40.5t36 -93.5q0 -50 -33.5 -92.5t-83.5 -44.5l146 -236h-40zM197 -184h-2l-5 25h2q34 5 38 48q-3 -1 -10 -1q-13 0 -21.5 8.5t-8.5 21.5
q0 12 8.5 21t21.5 9q35 0 35 -51q0 -28 -15.5 -52t-42.5 -29z" />
    <glyph glyph-name="Zacute.001" horiz-adv-x="482" 
d="M406 508v-29l-292 -449h292v-30h-331v29l291 448h-277v31h317zM312 683l-56 -107h-34l44 107h46z" />
    <glyph glyph-name="Zcaron.001" horiz-adv-x="482" 
d="M406 508v-29l-292 -449h292v-30h-331v29l291 448h-277v31h317zM249 607l36 83h32l-50 -114h-37l-50 114h32z" />
    <glyph glyph-name="Zdotaccent.001" horiz-adv-x="482" 
d="M406 508v-29l-292 -449h292v-30h-331v29l291 448h-277v31h317zM279 605q0 -15 -11.5 -27t-26.5 -12q-16 0 -27.5 11.5t-11.5 27.5t11.5 27.5t27.5 11.5q15 0 26.5 -12t11.5 -27z" />
    <glyph glyph-name="Ncommaaccent.001" horiz-adv-x="484" 
d="M215 -184h-2l-4 25h2q33 5 37 48q-3 -1 -10 -1q-13 0 -21.5 8.5t-8.5 21.5q0 12 9 21t22 9q18 0 26 -16t8 -35q0 -28 -15.5 -52t-42.5 -29zM408 -1h-37l-260 439v-439h-35v509h36l262 -443v443h34v-509z" />
    <glyph glyph-name="Yacute.001" horiz-adv-x="475" 
d="M386 507h39l-171 -256v-251h-33v251l-171 256h38l149 -220zM309 683l-56 -107h-34l44 107h46z" />
    <glyph glyph-name="Ycircumflex.001" horiz-adv-x="475" 
d="M386 507h39l-171 -256v-251h-33v251l-171 256h38l149 -220zM237 658l-37 -83h-31l50 114h37l50 -114h-31z" />
    <glyph glyph-name="Ydieresis.001" horiz-adv-x="475" 
d="M386 507h39l-171 -256v-251h-33v251l-171 256h38l149 -220zM355 601q0 -12 -8.5 -20.5t-21.5 -8.5t-22 8.5t-9 20.5q0 13 9 22t22 9t21.5 -9t8.5 -22zM180 601q0 -12 -8.5 -20.5t-21.5 -8.5t-21.5 8.5t-8.5 20.5q0 13 8.5 22t21.5 9t21.5 -9t8.5 -22z" />
    <glyph glyph-name="Jcircumflex.001" horiz-adv-x="336" 
d="M261 505h34v-346q0 -69 -35.5 -119t-103.5 -50q-59 0 -105 38l-1 1l16 32l2 -2q38 -36 88 -36q53 0 79 40t26 96v346zM277 658l-37 -83h-32l51 114h37l50 -114h-31z" />
    <glyph glyph-name="Gcommaaccent.001" horiz-adv-x="545" 
d="M465 57l-3 -3q0 -1 -2 -3q-22 -28 -62.5 -43.5t-79.5 -15.5q-107 0 -179 78.5t-72 183.5q0 106 72 183.5t179 77.5q90 0 150 -55l1 -1l-18 -29l-1 1q-25 23 -61.5 38t-70.5 15q-93 0 -155 -68.5t-62 -161.5q0 -91 63 -161t154 -70q76 0 117 51v166h33v-175q0 -5 -3 -8z
M273 -184h-2l-5 25h2q34 5 38 48q-4 -1 -10 -1q-13 0 -21.5 8.5t-8.5 21.5q0 12 8.5 21t21.5 9q35 0 35 -51q0 -28 -15.5 -52t-42.5 -29z" />
    <glyph glyph-name="Tcaron.001" horiz-adv-x="518" 
d="M276 477v-477h-34v477h-175v30h384v-30h-175zM259 607l37 83h32l-51 -114h-36l-51 114h33z" />
    <glyph glyph-name="Tcommaaccent.001" horiz-adv-x="518" 
d="M276 477v-477h-34v477h-175v30h384v-30h-175zM246 -185h-2l-4 25h2q33 5 37 48q-3 -1 -10 -1q-12 0 -21 9t-9 21t9 21t22 9q18 0 26 -15.5t8 -34.5q0 -28 -15.5 -52.5t-42.5 -29.5z" />
    <glyph glyph-name="AEacute.001" horiz-adv-x="612" 
d="M244 183v265l-93 -265h93zM536 477h-259v-192h211v-30h-211v-225h259v-30h-292v153h-104l-53 -153h-37l179 507h307v-30zM321 576h-34l43 107h46z" />
    <glyph glyph-name="Ygrave.001" horiz-adv-x="475" 
d="M386 507h39l-171 -256v-251h-33v251l-171 256h38l149 -220zM182 683h46l43 -107h-34z" />
    <glyph glyph-name="Lcommaaccent.001" horiz-adv-x="400" 
d="M324 32v-32h-248v612h35v-580h213zM226 -84q11 -24 10 -53t-20 -55t-48 -31q0 4 -2 12.5t-2 12.5q45 8 47 65q-11 -5 -23.5 -1.5t-19.5 13.5q-8 12 -5 26t15 22t26.5 5t21.5 -16z" />
    <glyph glyph-name="Tbar.001" horiz-adv-x="518" 
d="M451 477h-175v-156h133v-30h-133v-291h-33v291h-134v30h134v156h-176v30h384v-30z" />
    <glyph glyph-name="check" horiz-adv-x="545" 
d="M525 656l-305 -666l-177 285h41l131 -215l272 596h38z" />
    <glyph glyph-name="doublecheck" horiz-adv-x="803" 
d="M722 612h38l-280 -612l-150 239l-110 -239l-177 285h41l131 -215l250 542h35l-151 -336l126 -206z" />
    <glyph glyph-name="one.tx" horiz-adv-x="356" 
d="M195 29h116v-31h-116h-36h-114v31h114v432l-112 -54l-12 33l131 64h29v-475z" />
    <glyph glyph-name="zero.tx" horiz-adv-x="498" 
d="M251 24q81 0 124 71t43 157q0 54 -16 104.5t-55.5 88.5t-95.5 38q-57 0 -97 -38t-56 -88t-16 -105q0 -54 16.5 -104t56.5 -87t96 -37zM249 517q65 0 113 -42t69.5 -100.5t21.5 -120.5q0 -64 -20.5 -122t-68.5 -100t-115 -42t-115 42t-68.5 100t-20.5 122q0 45 13 90.5
t37 84.5t64.5 63.5t89.5 24.5z" />
    <glyph glyph-name="seven.tx" horiz-adv-x="402" 
d="M35 474v32h322v-32l-249 -580h-39l249 580h-283z" />
    <glyph glyph-name="five.tx" horiz-adv-x="447" 
d="M35 -54l23 28q8 -6 21.5 -15t51.5 -24t71 -15q73 0 118 50.5t45 115.5q0 67 -45 112.5t-140 45.5h-113l7 262h281v-32h-247l-6 -193h78q111 0 166.5 -56.5t55.5 -139.5q0 -81 -54 -141t-146 -60q-40 0 -82 15.5t-64 30.5z" />
    <glyph glyph-name="six.tx" horiz-adv-x="480" 
d="M240 376q87 0 141 -57.5t54 -135.5t-53 -135.5t-142 -57.5q-90 0 -142.5 57.5t-52.5 135.5q0 60 33 110l184 319h42l-149 -254q37 18 85 18zM240 26q71 0 115 47t44 110q0 62 -44 109.5t-115 47.5q-72 0 -115.5 -47.5t-43.5 -109.5q0 -63 43.5 -110t115.5 -47z" />
    <glyph glyph-name="two.tx" horiz-adv-x="455" 
d="M45 0v33q0 61 31.5 106.5t76 72.5t89.5 49.5t76.5 52t31.5 66.5q0 44 -37 73t-88 29q-46 0 -91.5 -17.5t-73.5 -39.5l-15 32q76 61 180 61q83 0 122 -42.5t39 -95.5q0 -45 -31.5 -79.5t-76 -58.5t-89.5 -49t-76.5 -65.5t-31.5 -93.5h329v-34h-365z" />
    <glyph glyph-name="DEL" horiz-adv-x="575" 
d="M499 200h-423v32h423v-32z" />
    <glyph glyph-name="three.tx" horiz-adv-x="477" 
d="M222 254q90 0 145.5 -46t55.5 -132q0 -85 -59.5 -138.5t-139.5 -53.5q-29 0 -57.5 7.5t-49.5 18t-38 21.5t-25 19l-9 7l23 28q8 -7 21.5 -18t55 -29t81.5 -18q70 0 116 42t46 114q0 74 -49.5 109t-151.5 35h-14v34l179 220h-278v32h322v-32z" />
    <glyph glyph-name="four.tx" 
d="M482 92v-32h-100v-166h-36v166h-301v32l301 414h36v-414h100zM89 92h257v354z" />
    <glyph glyph-name="eight.tx" horiz-adv-x="463" 
d="M311 345q50 -22 78.5 -68.5t28.5 -100.5q0 -76 -50 -131t-136 -55t-136.5 55t-50.5 131q0 54 28.5 100.5t79.5 68.5q-34 20 -53 55t-19 74q0 61 41.5 105.5t109.5 44.5q67 0 108.5 -44.5t41.5 -105.5q0 -39 -18.5 -74t-52.5 -55zM117 474q0 -45 31.5 -80t83.5 -35
q51 0 82.5 34.5t31.5 80.5q0 45 -31 79.5t-83 34.5t-83.5 -34.5t-31.5 -79.5zM232 26q67 0 108.5 45t41.5 105q0 56 -46 103t-104 47q-59 0 -105 -47t-46 -103q0 -60 41.5 -105t109.5 -45z" />
    <glyph glyph-name="nine.tx" horiz-adv-x="480" 
d="M240 125q-87 0 -141 58t-54 135q0 79 52.5 136t142.5 57t142.5 -57t52.5 -136q0 -59 -34 -110l-184 -319h-41l149 254q-41 -18 -85 -18zM240 475q-72 0 -115.5 -47t-43.5 -109q0 -63 43.5 -110.5t115.5 -47.5t115.5 47.5t43.5 110.5q0 62 -43.5 109t-115.5 47z" />
    <glyph glyph-name="Ibreve.001" horiz-adv-x="181" 
d="M107 507v-507h-33v507h33zM131 646v2h34v-2q0 -30 -21.5 -52t-52.5 -22q-32 0 -53.5 21.5t-21.5 52.5v2h34v-2q0 -16 12 -28.5t28 -12.5t28.5 12.5t12.5 28.5z" />
    <glyph glyph-name="Lcaron.001" horiz-adv-x="342" 
d="M266 30v-30h-208v507h33v-477h175zM79 607l37 82h32l-51 -114h-37l-50 114h32z" />
    <glyph glyph-name="franc.001" horiz-adv-x="347" 
d="M93 523v-99h138v-31h-138v-73h84v-32h-84v-61h-34l1 61h-45v32h45v235h211v-32h-178z" />
    <glyph glyph-name="lira.001" horiz-adv-x="287" 
d="M185 468v-30h-82q-5 -85 -28 -123h144v-28h-205v28h3q29 0 43 50q10 31 12 73h-58v30h58q1 58 26 105.5t78 47.5q40 0 64 -26l2 -2l-16 -27l-3 3q-18 21 -47 21q-37 0 -53.5 -38.5t-17.5 -83.5h80z" />
    <glyph glyph-name="Euro.001" horiz-adv-x="392" 
d="M226 279q-59 0 -103.5 35t-60.5 92h-47v29h41v35h-41v29h45q16 58 61 95t105 37q62 0 98 -37l1 -2l-16 -25h-3l-1 1q-35 33 -79 33q-47 0 -82.5 -28.5t-48.5 -73.5h133v-29h-140v-15q0 -13 1 -20h139v-29h-132q15 -44 49.5 -71t80.5 -27q44 0 79 33l1 1h3l16 -25l-1 -2
q-35 -36 -98 -36z" />
    <glyph glyph-name="yen.001" horiz-adv-x="316" 
d="M238 456v-29h-64v-12h64v-28h-64v-100h-32v100h-64v28h64v12h-64v29h58l-106 158h35l92 -134l92 134h37l-106 -158h58z" />
    <glyph glyph-name="currency.001" horiz-adv-x="356" 
d="M75 451q0 -40 31 -71.5t71 -31.5q42 0 71 30.5t29 72.5q0 43 -29 73.5t-71 30.5q-41 0 -71.5 -31.5t-30.5 -72.5zM329 325l-25 -25l-45 44q-36 -28 -82 -28q-47 0 -82 27l-43 -43l-25 25l43 43q-27 36 -27 83q0 45 25 82l-41 41l25 25l41 -40q35 28 84 28q48 0 85 -29
l42 41l25 -25l-43 -43q24 -32 24 -80q0 -45 -26 -82z" />
    <glyph glyph-name="sterling.001" horiz-adv-x="265" 
d="M185 468v-29h-82q-5 -85 -28 -123h144v-29h-205v29h12q20 0 34 53q10 37 12 70h-58v29h58q1 58 26 105.5t78 47.5q12 0 23.5 -3t18.5 -7.5t12 -9t8 -7.5t2 -3q-10 -17 -14 -25l-3 3q-21 21 -47 21q-19 0 -33.5 -12t-22 -31.5t-11.5 -39t-4 -39.5h80z" />
    <glyph glyph-name="cent.001" horiz-adv-x="351" 
d="M290 355l21 -28l-2 -2q-13 -15 -40 -26t-51 -13v-58h-39v59q-59 9 -92 57t-33 109q0 62 33 110.5t92 57.5v56h39v-55q24 -2 51 -13.5t40 -26.5l2 -2l-21 -28l-2 3q-12 14 -38.5 24.5t-47.5 10.5q-49 0 -81 -42.5t-32 -94.5q0 -51 32.5 -93.5t80.5 -42.5q21 0 46.5 10
t39.5 25z" />
    <glyph glyph-name="d.001" horiz-adv-x="386" 
d="M287 589v142h32v-444h-32v20q-37 -27 -89 -27q-67 0 -105 54t-38 123t37.5 115t105.5 46q45 0 89 -29zM287 351v200q-38 36 -89 36t-81 -38.5t-30 -91.5q0 -58 28.5 -102.5t82.5 -44.5q56 0 89 41z" />
    <glyph glyph-name="h.001" horiz-adv-x="393" 
d="M313 481v-193h-31v166q0 29 -2.5 49t-11 41t-27 32t-46.5 11q-47 0 -67 -39.5t-20 -93.5v-166h-32v444h32v-161q31 48 87 48q61 0 89.5 -38t28.5 -100z" />
    <glyph glyph-name="n.001" horiz-adv-x="393" 
d="M313 482v-194h-31v167q0 60 -17.5 96t-69.5 36q-47 0 -67 -39.5t-20 -92.5v-167h-32v325h32v-42q31 48 87 48q62 0 90 -37.5t28 -99.5z" />
    <glyph glyph-name="r.001" horiz-adv-x="206" 
d="M57 455v-166h-32v324h32v-41q31 48 87 48q25 0 35 -5l2 -1l-13 -28h-5q-2 0 -8.5 1t-10.5 1q-47 0 -67 -39.5t-20 -93.5z" />
    <glyph glyph-name="s.001" horiz-adv-x="259" 
d="M25 318l19 29l3 -3q9 -12 36.5 -22t44.5 -10q30 0 52 17t22 46q0 26 -25 43q-6 5 -27 15q-2 1 -13 5.5t-17 7.5q-27 10 -42 18t-29.5 25.5t-14.5 39.5q0 41 32 65.5t73 24.5q58 0 87 -30l1 -2l-16 -27l-3 3q-8 11 -30.5 18.5t-38.5 7.5q-27 0 -49.5 -16.5t-22.5 -42.5
q0 -18 25 -35l26 -13q5 -2 15.5 -6t15.5 -6q40 -17 62.5 -37t22.5 -56q0 -45 -30 -70t-75 -25q-50 0 -99 34z" />
    <glyph glyph-name="t.001" horiz-adv-x="224" 
d="M147 280q-46 0 -65.5 37.5t-19.5 86.5v176h-42v31h42v92h31l1 -92h95v-31h-95v-176q0 -93 52 -93q30 0 38 11l3 4l13 -29l-1 -1q-12 -16 -52 -16z" />
    <glyph glyph-name="dollar.001" horiz-adv-x="344" 
d="M192 285v-37h-27v35q-51 2 -96 36l-2 2l18 22l2 -2q38 -32 83 -32q33 0 56 19.5t23 52.5q0 21 -13.5 36.5t-27.5 22.5t-43 19q-44 19 -60 31q-28 23 -28 54q0 39 24.5 62t63.5 29v36h27v-35q48 -2 76 -27l2 -2l-15 -23l-2 2q-28 22 -65 22q-35 0 -58.5 -16t-23.5 -48
q0 -21 25 -36q11 -7 27 -14q28 -11 32 -13q41 -17 64 -39t23 -60q0 -39 -23 -65t-62 -32z" />
    <glyph glyph-name="copyright.001" horiz-adv-x="509" 
d="M255 649q83 0 141.5 -58.5t58.5 -141.5t-58.5 -142t-141.5 -59q-84 0 -142.5 59t-58.5 142t59 141.5t142 58.5zM433 449q0 73 -52 125t-126 52t-126 -51.5t-52 -125.5t52 -126t126 -52q73 0 125.5 52.5t52.5 125.5zM257 349q18 0 35 6.5t25 12.5t8 7l14 -18
q-33 -29 -81 -29q-50 0 -80.5 35t-30.5 86q0 50 30.5 85.5t80.5 35.5q21 0 41.5 -7.5t30.5 -14.5l9 -8l-14 -17q-28 26 -68 26t-64.5 -32t-24.5 -68t24.5 -68t64.5 -32z" />
    <glyph glyph-name="registered.001" horiz-adv-x="449" 
d="M224 647q83 0 142 -58.5t59 -141.5t-59 -142t-142 -59q-82 0 -141 58.5t-59 142.5q0 83 59 141.5t141 58.5zM224 269q74 0 126 51.5t52 125.5t-52 126t-126 52t-126 -52t-52 -126q0 -73 52 -125t126 -52zM298 491q0 -21 -13.5 -39t-33.5 -22l62 -100h-26l-1 1l-61 98h-50
v-99h-23v222h89q24 0 40.5 -18t16.5 -43zM175 450h66q13 0 24 12.5t11 28.5t-10.5 28t-24.5 12h-66v-81z" />
    <glyph glyph-name="quadrate" horiz-adv-x="264" 
d="M45 203v173h174v-173h-174z" />
    <glyph glyph-name="circle.001" horiz-adv-x="294" 
d="M147 360q-28 0 -48.5 -20.5t-20.5 -49.5q0 -28 20 -48.5t49 -20.5t49 20.5t20 48.5q0 29 -20.5 49.5t-48.5 20.5zM147 384q39 0 66 -27.5t27 -66.5q0 -38 -27 -65.5t-66 -27.5q-38 0 -65.5 27.5t-27.5 65.5q0 39 27.5 66.5t65.5 27.5z" />
    <glyph glyph-name="quadrate.001" horiz-adv-x="264" 
d="M194 362h-124v-124h124v124zM219 387v-174h-174v174h174z" />
    <glyph glyph-name="triangle.001" horiz-adv-x="234" 
d="M53 355v-131l104 66zM20 417l200 -127l-200 -128v255z" />
    <glyph glyph-name="ampersand.001" horiz-adv-x="538" 
d="M216 28q74 0 132 73q-97 112 -146 188q-45 -19 -78.5 -55.5t-33.5 -83.5q0 -55 38.5 -88.5t87.5 -33.5zM184 320q-32 57 -32 88q0 53 39.5 81.5t86.5 28.5q53 0 97 -31l3 -2l-18 -28l-2 2q-39 22 -80 22q-32 0 -60 -18.5t-28 -51.5q0 -67 180 -279q47 73 47 157v4h38v-4
q0 -102 -57 -188q37 -44 86 -96l7 -7h-50l-1 1l-66 72q-65 -81 -156 -81q-63 0 -113.5 43.5t-50.5 116.5q0 58 38.5 102t91.5 68z" />
    <glyph glyph-name="a.salt" horiz-adv-x="554" 
d="M534 21l-10 -31q-22 0 -40.5 11.5t-29 29.5t-14.5 27t-6 16v1q-3 -5 -7.5 -10.5t-20.5 -20t-34.5 -25.5t-48.5 -20t-64 -9q-96 0 -160.5 73.5t-64.5 203.5q0 62 20 111.5t52.5 79.5t72 45.5t81.5 15.5q21 0 41 -3.5t35.5 -10t30 -14t24.5 -14.5t18 -13.5t11 -10.5l4 -3
v56h36v-348q0 -58 17.5 -97.5t56.5 -39.5zM424 125v252q0 14 -12 32t-32.5 35.5t-52.5 29t-68 11.5q-76 0 -132.5 -58t-56.5 -160q0 -111 54.5 -177t136.5 -66q33 0 65.5 13t52.5 31t32.5 33.5t12.5 23.5z" />
    <glyph glyph-name="aacute.salt" horiz-adv-x="554" 
d="M534 21l-10 -31q-22 0 -40.5 11.5t-29 29.5t-14.5 27t-6 16v1q-3 -5 -7.5 -10.5t-20.5 -20t-34.5 -25.5t-48.5 -20t-64 -9q-96 0 -160.5 73.5t-64.5 203.5q0 62 20 111.5t52.5 79.5t72 45.5t81.5 15.5q21 0 41 -3.5t35.5 -10t30 -14t24.5 -14.5t18 -13.5t11 -10.5l4 -3
v56h36v-348q0 -58 17.5 -97.5t56.5 -39.5zM424 125v252q0 14 -12 32t-32.5 35.5t-52.5 29t-68 11.5q-76 0 -132.5 -58t-56.5 -160q0 -111 54.5 -177t136.5 -66q33 0 65.5 13t52.5 31t32.5 33.5t12.5 23.5zM269 612h-36l51 126h50z" />
    <glyph glyph-name="abreve.salt" horiz-adv-x="554" 
d="M534 21l-10 -31q-22 0 -40.5 11.5t-29 29.5t-14.5 27t-6 16v1q-3 -5 -7.5 -10.5t-20.5 -20t-34.5 -25.5t-48.5 -20t-64 -9q-96 0 -160.5 73.5t-64.5 203.5q0 62 20 111.5t52.5 79.5t72 45.5t81.5 15.5q21 0 41 -3.5t35.5 -10t30 -14t24.5 -14.5t18 -13.5t11 -10.5l4 -3
v56h36v-348q0 -58 17.5 -97.5t56.5 -39.5zM424 125v252q0 14 -12 32t-32.5 35.5t-52.5 29t-68 11.5q-76 0 -132.5 -58t-56.5 -160q0 -111 54.5 -177t136.5 -66q33 0 65.5 13t52.5 31t32.5 33.5t12.5 23.5zM260 643q21 0 36.5 16.5t15.5 35.5h36q0 -37 -25.5 -62.5
t-61.5 -25.5q-37 0 -62.5 25.5t-25.5 62.5h36q0 -9 4 -18.5t10.5 -17t16 -12t20.5 -4.5z" />
    <glyph glyph-name="acircumflex.salt" horiz-adv-x="554" 
d="M534 21l-10 -31q-22 0 -40.5 11.5t-29 29.5t-14.5 27t-6 16v1q-3 -5 -7.5 -10.5t-20.5 -20t-34.5 -25.5t-48.5 -20t-64 -9q-96 0 -160.5 73.5t-64.5 203.5q0 62 20 111.5t52.5 79.5t72 45.5t81.5 15.5q21 0 41 -3.5t35.5 -10t30 -14t24.5 -14.5t18 -13.5t11 -10.5l4 -3
v56h36v-348q0 -58 17.5 -97.5t56.5 -39.5zM424 125v252q0 14 -12 32t-32.5 35.5t-52.5 29t-68 11.5q-76 0 -132.5 -58t-56.5 -160q0 -111 54.5 -177t136.5 -66q33 0 65.5 13t52.5 31t32.5 33.5t12.5 23.5zM267 716l-47 -104h-33l59 134h42l59 -134h-33z" />
    <glyph glyph-name="adieresis.salt" horiz-adv-x="554" 
d="M534 21l-10 -31q-22 0 -40.5 11.5t-29 29.5t-14.5 27t-6 16v1q-3 -5 -7.5 -10.5t-20.5 -20t-34.5 -25.5t-48.5 -20t-64 -9q-96 0 -160.5 73.5t-64.5 203.5q0 62 20 111.5t52.5 79.5t72 45.5t81.5 15.5q21 0 41 -3.5t35.5 -10t30 -14t24.5 -14.5t18 -13.5t11 -10.5l4 -3
v56h36v-348q0 -58 17.5 -97.5t56.5 -39.5zM424 125v252q0 14 -12 32t-32.5 35.5t-52.5 29t-68 11.5q-76 0 -132.5 -58t-56.5 -160q0 -111 54.5 -177t136.5 -66q33 0 65.5 13t52.5 31t32.5 33.5t12.5 23.5zM160 764q14 0 24 -10.5t10 -24.5t-10 -24t-24 -10t-24 10t-10 24
t10 24.5t24 10.5zM373 764q14 0 24 -10.5t10 -24.5t-10 -24t-24 -10t-24.5 10t-10.5 24t10.5 24.5t24.5 10.5z" />
    <glyph glyph-name="agrave.salt" horiz-adv-x="554" 
d="M534 21l-10 -31q-22 0 -40.5 11.5t-29 29.5t-14.5 27t-6 16v1q-3 -5 -7.5 -10.5t-20.5 -20t-34.5 -25.5t-48.5 -20t-64 -9q-96 0 -160.5 73.5t-64.5 203.5q0 62 20 111.5t52.5 79.5t72 45.5t81.5 15.5q21 0 41 -3.5t35.5 -10t30 -14t24.5 -14.5t18 -13.5t11 -10.5l4 -3
v56h36v-348q0 -58 17.5 -97.5t56.5 -39.5zM424 125v252q0 14 -12 32t-32.5 35.5t-52.5 29t-68 11.5q-76 0 -132.5 -58t-56.5 -160q0 -111 54.5 -177t136.5 -66q33 0 65.5 13t52.5 31t32.5 33.5t12.5 23.5zM240 738l51 -126h-36l-65 126h50z" />
    <glyph glyph-name="amacron.salt" horiz-adv-x="554" 
d="M534 21l-10 -31q-22 0 -40.5 11.5t-29 29.5t-14.5 27t-6 16v1q-3 -5 -7.5 -10.5t-20.5 -20t-34.5 -25.5t-48.5 -20t-64 -9q-96 0 -160.5 73.5t-64.5 203.5q0 62 20 111.5t52.5 79.5t72 45.5t81.5 15.5q21 0 41 -3.5t35.5 -10t30 -14t24.5 -14.5t18 -13.5t11 -10.5l4 -3
v56h36v-348q0 -58 17.5 -97.5t56.5 -39.5zM424 125v252q0 14 -12 32t-32.5 35.5t-52.5 29t-68 11.5q-76 0 -132.5 -58t-56.5 -160q0 -111 54.5 -177t136.5 -66q33 0 65.5 13t52.5 31t32.5 33.5t12.5 23.5zM450 700v-32h-359v32h359z" />
    <glyph glyph-name="aogonek.salt" horiz-adv-x="562" 
d="M534 21l-10 -31h-1h1q-36 -14 -36 -67q0 -24 14 -40t42 -16q5 0 11 2t10 4.5t7 4.5t4 3l16 -25q-20 -20 -58 -20t-59 25.5t-21 56.5q0 47 31 83q-30 18 -51 74q-3 -5 -7.5 -10.5t-20.5 -20t-34.5 -25.5t-48.5 -20t-64 -9q-96 0 -160.5 73.5t-64.5 203.5q0 62 20 111.5
t52.5 79.5t72 45.5t81.5 15.5q21 0 41 -3.5t35.5 -10t30 -14t24.5 -14.5t18 -13.5t11 -10.5l4 -3v56h36v-348q0 -58 17.5 -97.5t56.5 -39.5zM424 125v252q0 14 -12 32t-32.5 35.5t-52.5 29t-68 11.5q-76 0 -132.5 -58t-56.5 -160q0 -111 54.5 -177t136.5 -66q33 0 65.5 13
t52.5 31t32.5 33.5t12.5 23.5z" />
    <glyph glyph-name="aring.salt" horiz-adv-x="554" 
d="M534 21l-10 -31q-22 0 -40.5 11.5t-29 29.5t-14.5 27t-6 16v1q-3 -5 -7.5 -10.5t-20.5 -20t-34.5 -25.5t-48.5 -20t-64 -9q-96 0 -160.5 73.5t-64.5 203.5q0 62 20 111.5t52.5 79.5t72 45.5t81.5 15.5q21 0 41 -3.5t35.5 -10t30 -14t24.5 -14.5t18 -13.5t11 -10.5l4 -3
v56h36v-348q0 -58 17.5 -97.5t56.5 -39.5zM424 125v252q0 14 -12 32t-32.5 35.5t-52.5 29t-68 11.5q-76 0 -132.5 -58t-56.5 -160q0 -111 54.5 -177t136.5 -66q33 0 65.5 13t52.5 31t32.5 33.5t12.5 23.5zM272 776q36 0 61.5 -25.5t25.5 -60.5q0 -38 -25.5 -63t-61.5 -25
q-37 0 -62.5 25t-25.5 63q0 35 25.5 60.5t62.5 25.5zM271 740q-21 0 -36 -15.5t-15 -35t15 -35.5t36 -16t36.5 16t15.5 35.5t-15.5 35t-36.5 15.5z" />
    <glyph glyph-name="atilde.salt" horiz-adv-x="554" 
d="M534 21l-10 -31q-22 0 -40.5 11.5t-29 29.5t-14.5 27t-6 16v1q-3 -5 -7.5 -10.5t-20.5 -20t-34.5 -25.5t-48.5 -20t-64 -9q-96 0 -160.5 73.5t-64.5 203.5q0 62 20 111.5t52.5 79.5t72 45.5t81.5 15.5q21 0 41 -3.5t35.5 -10t30 -14t24.5 -14.5t18 -13.5t11 -10.5l4 -3
v56h36v-348q0 -58 17.5 -97.5t56.5 -39.5zM424 125v252q0 14 -12 32t-32.5 35.5t-52.5 29t-68 11.5q-76 0 -132.5 -58t-56.5 -160q0 -111 54.5 -177t136.5 -66q33 0 65.5 13t52.5 31t32.5 33.5t12.5 23.5zM140 654l-30 16q40 62 107 62q37 0 71 -16t64 -16q41 0 62 35
l31 -14q-32 -54 -93 -54q-39 0 -73 15.5t-63 15.5q-52 0 -76 -44z" />
    </font>
</defs>
</svg>
